<?xml version="1.0" encoding="utf-8"?>
<!-- Generator: Adobe Illustrator 24.1.2, SVG Export Plug-In . SVG Version: 6.00 Build 0)  -->
<svg version="1.1" id="Layer_1" xmlns="http://www.w3.org/2000/svg" xmlns:xlink="http://www.w3.org/1999/xlink" x="0px" y="0px"
	 viewBox="0 0 50 50" style="enable-background:new 0 0 50 50;" xml:space="preserve">
<style type="text/css">
	.st0{fill:#8F8F8F;}
	.st1{fill-rule:evenodd;clip-rule:evenodd;fill:#38383A;}
</style>
<path class="st0" d="M8.9,0h32.3C46,0,50,4,50,9.1v31.8c0,5-4,9.1-8.8,9.1H8.9C4,50,0,45.9,0,40.9V9.1C0,4,4,0,8.9,0z"/>
<g>
	<path class="st1" d="M18.4,41.7h-1.2L16.7,40h-2.3l-0.5,1.7h-1.2l2.1-7.7h1.3L18.4,41.7z M16.3,38.7l-0.8-2.9l-0.8,2.9H16.3z
		 M22.8,41.7h-1v-0.8c-0.2,0.3-0.4,0.6-0.6,0.7c-0.2,0.1-0.4,0.3-0.7,0.3c-0.4,0-0.8-0.3-1.2-0.8c-0.3-0.4-0.5-1.2-0.5-2.1
		c0-0.9,0.2-1.7,0.4-2.2c0.3-0.5,0.8-0.8,1.3-0.8c0.4,0,0.8,0.3,1.2,0.8v-2.8h1.1L22.8,41.7L22.8,41.7z M19.9,38.8
		c0,0.6,0.1,1.1,0.2,1.3c0.2,0.3,0.4,0.6,0.7,0.6c0.3,0,0.5-0.2,0.7-0.4c0.2-0.3,0.3-0.8,0.3-1.3c0-0.6-0.1-1.1-0.3-1.4
		c-0.2-0.3-0.4-0.5-0.7-0.5c-0.2,0-0.4,0.2-0.6,0.4C20,37.8,19.9,38.3,19.9,38.8L19.9,38.8z M23.7,38.8c0-0.4,0.1-0.9,0.2-1.4
		c0.2-0.5,0.4-0.8,0.8-1c0.3-0.3,0.7-0.4,1.1-0.4c0.6,0,1.2,0.3,1.5,0.8c0.4,0.6,0.6,1.3,0.6,2.2c0,0.8-0.2,1.5-0.6,2.1
		c-0.4,0.5-0.9,0.8-1.5,0.8c-0.4,0-0.7-0.1-1.1-0.3c-0.3-0.2-0.6-0.6-0.8-1C23.8,40.1,23.7,39.5,23.7,38.8L23.7,38.8L23.7,38.8
		L23.7,38.8z M24.8,39c0,0.6,0.1,1,0.2,1.3c0.2,0.3,0.5,0.5,0.8,0.5c0.3,0,0.5-0.2,0.7-0.5c0.2-0.3,0.3-0.7,0.3-1.3
		s-0.1-1.1-0.3-1.3c-0.2-0.3-0.5-0.5-0.7-0.5c-0.3,0-0.5,0.2-0.7,0.5C24.9,37.9,24.8,38.4,24.8,39L24.8,39z M28.8,41.7v-7.7h1.1v2.8
		c0.3-0.5,0.8-0.8,1.2-0.8c0.5,0,0.9,0.3,1.3,0.8c0.3,0.5,0.5,1.2,0.5,2.2c0,0.9-0.2,1.7-0.5,2.2c-0.3,0.5-0.8,0.8-1.2,0.8
		c-0.2,0-0.5-0.1-0.7-0.3c-0.2-0.1-0.4-0.4-0.6-0.7v0.8L28.8,41.7L28.8,41.7z M29.9,38.8c0,0.6,0.1,1.1,0.2,1.3
		c0.2,0.3,0.5,0.6,0.8,0.6c0.3,0,0.5-0.2,0.6-0.4c0.2-0.2,0.3-0.8,0.3-1.3c0-0.6-0.1-1.1-0.3-1.4c-0.2-0.3-0.4-0.5-0.7-0.5
		c-0.3,0-0.5,0.2-0.6,0.4C30,37.8,29.9,38.3,29.9,38.8L29.9,38.8z M36.1,40l1.1,0.2c-0.1,0.6-0.4,1.1-0.7,1.3
		c-0.3,0.2-0.7,0.4-1.2,0.4c-0.7,0-1.2-0.3-1.6-0.9c-0.3-0.5-0.4-1.2-0.4-1.9c0-0.9,0.2-1.7,0.5-2.2c0.3-0.5,0.8-0.8,1.4-0.8
		c0.6,0,1.1,0.3,1.4,0.8c0.4,0.6,0.6,1.4,0.6,2.5h-2.8c0,0.5,0.1,0.8,0.3,1.1c0.2,0.2,0.4,0.3,0.6,0.3c0.2,0,0.4,0,0.4-0.2
		C35.9,40.5,36,40.2,36.1,40L36.1,40z M36.2,38.5c0-0.4-0.2-0.8-0.3-1c-0.2-0.2-0.4-0.4-0.6-0.4c-0.3,0-0.5,0.2-0.6,0.4
		c-0.2,0.2-0.3,0.6-0.3,0.9H36.2L36.2,38.5z"/>
	<path class="st1" d="M12.5,8.1h9.2l-9.2,22.5V8.1z M28.1,8.1h9.4v22.2L28.1,8.1z M25,16.8l5.1,13.5H27L24.8,26h-3.5L25,16.8z"/>
</g>
</svg>
