<svg width="50" height="50" viewBox="0 0 50 50" fill="none" xmlns="http://www.w3.org/2000/svg">
<path d="M7.8 0H42.2C46.5 0 50 3.5 50 7.8V42.2C50 46.5 46.5 50 42.2 50H7.8C3.5 50 0 46.5 0 42.2V7.8C0 3.5 3.5 0 7.8 0Z" fill="#979797"/>
<path d="M20.4997 30.5H12.8997L11.3497 35.55C11.2997 35.75 11.1497 35.85 10.9497 35.85H7.09966C6.89966 35.85 6.79966 35.75 6.84966 35.5L13.4497 16.75C13.4997 16.55 13.5997 16.35 13.6497 16.05C13.7497 15.6 13.7997 15.15 13.7997 14.7C13.7997 14.6 13.8497 14.5 13.9497 14.45H13.9997H19.2497C19.3997 14.45 19.4997 14.5 19.4997 14.6L26.9997 35.5C27.0497 35.7 26.9997 35.85 26.7997 35.85H22.4997C22.3497 35.85 22.1997 35.75 22.1497 35.6L20.4997 30.5ZM14.0497 27H19.2497C19.0997 26.55 18.9497 25.65 18.7997 25.1C18.6497 24.55 18.4497 23.95 18.2497 23.35C18.0497 22.75 17.8497 22.1 17.6497 21.45C17.4497 20.85 17.2497 20.1999 17.0997 19.6499C16.9497 19.0499 16.7997 18.55 16.6497 18.05H16.5997C16.3997 18.95 16.1997 19.8 15.8997 20.7C15.5997 21.7 15.2997 22.7 14.9497 23.75C14.6997 24.75 14.3997 26.15 14.0497 27Z" fill="#38383A"/>
<path d="M39.15 28.7H32.65C32.75 29.35 32.95 30 33.3 30.6C33.65 31.15 34.2 31.6 34.8 31.85C35.65 32.25 36.55 32.4 37.5 32.4C38.1 32.4 38.75 32.35 39.35 32.25C40 32.15 40.65 31.95 41.3 31.65C41.4 31.55 41.45 31.6 41.45 31.8V34.95C41.45 35.05 41.45 35.1 41.4 35.2C41.35 35.25 41.3 35.3 41.25 35.35C40.55 35.65 39.85 35.9 39.1 36.05C38.2 36.2 37.3 36.2 36.4 36.15C35.05 36.2 33.7 35.95 32.45 35.4C31.45 34.95 30.55 34.3 29.85 33.45C29.2 32.65 28.7 31.75 28.45 30.75C28.15 29.8 28 28.75 28 27.75C28 26.65 28.15 25.55 28.5 24.5C28.85 23.5 29.35 22.5 30.05 21.7C30.75 20.9 31.55 20.2 32.55 19.75C33.65 19.25 34.8 19 36 19.05C37.15 19.05 38.3 19.25 39.35 19.7C40.2 20.1 40.95 20.65 41.5 21.4C42.05 22.1 42.45 22.9 42.7 23.75C42.95 24.55 43.1 25.4 43.1 26.25C43.1 26.75 43.1 27.2 43.05 27.55C43 27.8 43 28 42.9 28.25C42.9 28.4 42.75 28.5 42.6 28.5C42.45 28.5 42.25 28.5 41.9 28.55C41.6 28.6 41 28.55 40.55 28.6C40.15 28.7 39.65 28.7 39.15 28.7ZM32.6 26.1H36.95C37.5 26.1 37.85 26.1 38.1 26.1C38.25 26.1 38.4 26.1 38.6 26.05V25.85C38.6 25.45 38.6 25.05 38.55 24.65C38.2 23.5 37.1 22.7 35.85 22.75C34.7 22.7 33.65 23.3 33.1 24.3C32.85 24.9 32.7 25.5 32.6 26.1Z" fill="#38383A"/>
</svg>
