<svg width="45" height="50" viewBox="0 0 45 50" fill="none" xmlns="http://www.w3.org/2000/svg">
<path d="M44.4165 14.6578C44.4165 13.8085 44.2166 13.059 43.8669 12.4595C43.5171 11.81 42.9676 11.3103 42.2681 10.9106C36.3725 7.5132 30.427 4.11577 24.5315 0.668371C22.9327 -0.23095 21.3839 -0.230947 19.7851 0.718336C17.4368 2.11728 5.64574 8.86218 2.14838 10.9106C0.699473 11.76 0 13.0091 0 14.7078V35.2922C0 36.0916 0.199849 36.8411 0.499623 37.4906C0.849359 38.1401 1.39895 38.6897 2.14838 39.0894C5.64574 41.1378 17.4368 47.8827 19.7851 49.2817C21.3839 50.2309 22.9327 50.231 24.5315 49.3316C30.427 45.9342 36.3725 42.5368 42.2681 39.0894C43.0175 38.6897 43.5171 38.1401 43.9168 37.4906C44.2666 36.8411 44.4165 36.1416 44.4165 35.2922V14.6578Z" fill="#979797"/>
<path d="M22.2831 24.8501L0.499512 37.3906C0.849248 38.0401 1.39883 38.5897 2.14827 38.9894C5.64563 41.0379 17.4367 47.7828 19.785 49.1817C21.3837 50.131 22.9326 50.131 24.5314 49.2317C30.4269 45.8343 36.3724 42.4368 42.268 38.9894C43.0174 38.5897 43.517 38.0401 43.9167 37.3906L22.2831 24.8501Z" fill="#979797"/>
<path d="M15.8384 28.5473C17.0874 30.7456 19.4856 32.2445 22.2336 32.2445C24.9815 32.2445 27.3797 30.7457 28.6287 28.4974L22.2835 24.8501L15.8384 28.5473Z" fill="#979797"/>
<path d="M44.4166 14.6578C44.4166 13.8085 44.2168 13.059 43.8671 12.4595L22.2334 24.9001L43.8671 37.4406C44.2168 36.7911 44.3667 36.0916 44.3667 35.2423V14.6578H44.4166Z" fill="#979797"/>
<path d="M28.6283 28.5472C27.3793 30.7955 24.9811 32.2944 22.2332 32.2944C19.4852 32.2944 17.137 30.7956 15.838 28.5972C15.2385 27.498 14.8887 26.299 14.8887 24.95C14.8887 20.903 18.1862 17.6055 22.2332 17.6055C24.9311 17.6055 27.3293 19.1044 28.5784 21.2528L34.9736 17.5555C32.4255 13.1589 27.6291 10.1611 22.1832 10.1611C14.0394 10.1611 7.44434 16.7562 7.44434 24.9C7.44434 27.548 8.14381 30.0961 9.39287 32.2445C11.9409 36.6411 16.7373 39.6389 22.1832 39.6389C27.6791 39.6389 32.4754 36.6411 35.0235 32.1945L28.6283 28.5472ZM36.7222 21.4526H35.2733V28.5472H36.7222V21.4526ZM39.9698 21.4526H38.5209V28.5472H39.9698V21.4526Z" fill="#38383A"/>
<path d="M41.1689 22.6018H34.0742V24.0507H41.1689V22.6018ZM41.1689 25.8494H34.0742V27.2983H41.1689V25.8494Z" fill="#38383A"/>
</svg>
