<svg width="37" height="50" viewBox="0 0 37 50" fill="none" xmlns="http://www.w3.org/2000/svg">
<path fill-rule="evenodd" clip-rule="evenodd" d="M14.25 45.6L15.35 50H20.65L21.7 45.5L14.25 45.6Z" fill="#979797"/>
<path fill-rule="evenodd" clip-rule="evenodd" d="M17.0498 42.5002L17.2498 43.1002L17.3998 43.4002H18.6498L18.7998 43.3502L18.9998 42.9002C19.7998 40.9002 21.8498 32.2502 22.2998 30.0502C23.4498 24.0502 24.3498 17.9502 23.8998 11.8502C23.7498 9.55016 23.2998 6.95016 22.4498 4.80016C21.7998 3.15016 20.7998 1.25016 19.0498 0.500156C17.1498 -0.299844 15.3498 1.65016 14.4998 3.20016C10.1498 11.5502 12.9498 25.9502 14.9498 34.5002L15.6498 37.4502C16.0498 39.1002 16.5498 40.6002 17.0498 42.5002Z" fill="#979797"/>
<path fill-rule="evenodd" clip-rule="evenodd" d="M16.4998 42.9L15.7498 42.3C6.7498 33.85 -5.60023 5.45 13.8498 0.2C14.6498 0 14.4998 0.05 15.2498 0C-0.0502033 6.6 10.2498 32.25 16.4998 42.9Z" fill="#979797"/>
<path fill-rule="evenodd" clip-rule="evenodd" d="M19.75 42.9L20.5 42.3C29.5 33.85 41.85 5.45 22.4 0.2C21.6 0 21.75 0.05 21 0C36.25 6.6 25.95 32.25 19.75 42.9Z" fill="#979797"/>
<path fill-rule="evenodd" clip-rule="evenodd" d="M7.54999 2.25C3.74999 4.05 0.800024 7.9 0.150024 12.1L0 13.9V15.35L0.200012 16.95L0.299988 17.7C1.79999 26 8.7 36.85 14.75 42.6C6.45 31.35 -6.20001 13.7 7.54999 2.25Z" fill="#979797"/>
<path fill-rule="evenodd" clip-rule="evenodd" d="M28.6502 2.25C32.4502 4.05 35.4002 7.9 36.0502 12.1L36.2002 13.9V15.35L36.0002 16.95L35.9002 17.7C34.4002 26 27.5002 36.85 21.4502 42.6C29.8002 31.35 42.4502 13.7 28.6502 2.25Z" fill="#979797"/>
</svg>
