<svg width="36" height="50" viewBox="0 0 36 50" fill="none" xmlns="http://www.w3.org/2000/svg">
<path d="M3.2 46.0001L0 9.8501H35.4L32.15 46.0001L17.65 50.0001L3.2 46.0001Z" fill="#979797"/>
<path d="M17.7002 46.9501L29.4002 43.7001L32.1502 12.8H17.7002V46.9501Z" fill="#979797"/>
<path d="M6.14999 21.15L5.75 16.95H29.65L29.35 21.8L19.25 26.2499H28.95L27.9 39.9999L18.15 42.65L8 40.2L7.39999 33.2H11.85L12.1 36.9L17.95 37.9999L23.4 36.35L23.65 30.45H7L6.7 26.05L17.7 21.25L6.14999 21.15Z" fill="#38383A"/>
<path d="M6.7002 26.05L7.0002 30.45H17.7002V21.25L6.7002 26.05Z" fill="#38383A"/>
<path d="M12.0999 36.8999L11.8499 33.2H7.3999L7.99991 40.2L17.6999 42.5499V37.95L12.0999 36.8999Z" fill="#38383A"/>
<path d="M5.75 16.95L6.14999 21.15L17.7 21.25V16.95H5.75Z" fill="#38383A"/>
<path d="M21.0002 1.7V0H14.3502V3.9H18.9502V5.15H14.2002V6.7H20.9002V2.65H16.1502V1.7H21.0002Z" fill="#979797"/>
<path d="M8.95 3.95V5.15H13.65V6.7H7V2.7V0H13.5V1.7H8.95V3.95Z" fill="#979797"/>
<path d="M28.4001 1.7V0H21.7001V3.9H26.3001V5.15H21.6001V6.7H28.2501V2.65H23.5001V1.7H28.4001Z" fill="#979797"/>
</svg>
