<svg width="50" height="50" viewBox="0 0 50 50" fill="none" xmlns="http://www.w3.org/2000/svg">
<path d="M25 50C38.8071 50 50 38.8071 50 25C50 11.1929 38.8071 0 25 0C11.1929 0 0 11.1929 0 25C0 38.8071 11.1929 50 25 50Z" fill="#979797"/>
<path d="M42.5999 7.25L7.3999 42.75C17.1999 52.45 33.0499 52.4 42.7499 42.6C52.4499 32.8 52.3999 17 42.5999 7.25Z" fill="#979797"/>
<path d="M21.3503 29.1499C22.0003 28.6999 22.6503 28.2499 23.3003 27.8499C25.9003 26.0999 28.5003 24.2999 31.1003 22.5499L34.0003 20.5499C33.8503 20.3999 33.7003 20.2999 33.6003 20.1499C32.8003 19.4499 31.9003 18.8499 30.9503 18.3499C29.4503 17.5499 27.9003 17.0499 26.2003 16.9499C25.3503 16.8999 24.4503 16.9499 23.6003 17.0999C22.3003 17.2999 21.0503 17.7499 19.9003 18.3499C18.2003 19.2499 16.7503 20.4999 15.6503 22.0999C14.3503 23.9499 13.6503 25.9499 13.4503 28.1999C13.4003 29.0999 13.4003 29.9999 13.5503 30.8499C13.7503 31.9999 14.0503 33.0999 14.5503 34.0999C15.1003 35.2499 15.8003 36.2999 16.6503 37.2499C16.8503 37.4999 17.1003 37.6999 17.3003 37.8999C17.6503 37.4499 18.1003 37.1999 18.6003 36.9999C19.5003 36.6999 20.4503 36.5999 21.4003 36.5999C21.9503 36.5999 22.4503 36.5999 23.0003 36.6499C23.6003 36.6999 24.2003 36.7499 24.8003 36.8499C25.1003 36.8999 25.3503 36.9499 25.6503 36.9499C24.8003 35.0999 23.9003 33.2999 23.0503 31.4999C22.6003 31.5999 22.2003 31.6499 21.7503 31.7499C21.7503 31.6999 21.7003 31.6999 21.7003 31.6499C21.5503 30.9499 21.4003 30.1999 21.2503 29.4999C21.1503 29.3499 21.2003 29.2499 21.3503 29.1499ZM20.1503 20.1999C18.3003 21.7499 16.8003 23.5999 16.0003 25.9499C15.8003 26.5999 15.6503 27.2999 15.6003 27.9499C15.4503 29.8499 15.8503 31.5999 16.7003 33.2999C17.0003 33.8999 17.4003 34.4999 17.7003 35.0999C17.7003 35.1499 17.7503 35.1999 17.8003 35.2499C17.5503 35.3999 17.3003 35.4999 17.0503 35.6499C16.9503 35.6999 16.9003 35.6999 16.8003 35.5999C16.1003 34.3499 15.5003 33.0499 15.1503 31.5999C14.9003 30.5999 14.7503 29.5999 14.8003 28.5999C14.8503 26.8999 15.3503 25.3499 16.2503 23.8999C17.0503 22.6499 18.0503 21.5999 19.2003 20.6499C20.2003 19.8499 21.2503 19.1999 22.4003 18.6499C22.4503 18.6499 22.5003 18.5999 22.5503 18.5999C21.6503 19.0499 20.9003 19.5999 20.1503 20.1999Z" fill="#38383A"/>
<path d="M23.8003 32.1001C24.2503 32.0001 24.7003 31.9501 25.1003 31.8501C25.1503 31.8501 25.2003 31.9001 25.2503 31.9001C25.9003 32.5501 26.5003 33.2001 27.1503 33.8001C27.7003 34.3001 28.3003 34.7501 28.9003 35.2501C29.7503 35.9501 30.4503 36.7001 31.0503 37.6001C32.1503 39.1001 32.9003 40.8001 33.3503 42.6001C33.4003 42.7501 33.3503 42.9501 33.3003 43.1001C33.1003 43.6501 32.7003 44.0501 32.2503 44.4001C31.6503 44.9001 30.9503 45.3001 30.2003 45.6001C30.0503 45.6501 30.0003 45.6501 29.9003 45.5001C29.1503 43.8501 28.3503 42.2001 27.6003 40.5501C26.5503 38.3001 25.5503 36.0501 24.5003 33.8001C24.2503 33.3001 24.0003 32.7501 23.8003 32.2501C23.8503 32.1501 23.8503 32.1001 23.8003 32.1001Z" fill="#38383A"/>
<path d="M25.5003 37.7999C25.5003 37.7499 25.4003 37.6999 25.3503 37.6999C24.2503 37.5499 23.1003 37.4499 22.0003 37.3499C21.2003 37.2999 20.4503 37.3499 19.6503 37.4499C19.1003 37.5499 18.5503 37.6499 18.0503 37.9499C17.7503 38.0999 17.5503 38.2999 17.4003 38.6499C17.0003 39.5999 16.6003 40.4999 16.2003 41.4499C16.0003 41.9499 15.8003 42.3999 15.5503 42.9499C15.6003 42.9499 15.6003 42.9499 15.6503 42.8999C16.7503 42.5499 17.8503 42.4499 19.0003 42.4499C19.7003 42.4499 20.3503 42.4999 21.0503 42.5499C21.7003 42.5999 22.3503 42.6999 23.0503 42.7499C23.9003 42.8999 24.7503 43.0499 25.6503 43.1999C26.0503 42.4499 26.5003 41.6999 26.9003 40.9499C26.9003 40.8999 26.9003 40.8499 26.9003 40.7999C26.4003 39.7499 25.9503 38.7499 25.5003 37.7999ZM19.1003 38.5499C19.0003 38.5999 18.9003 38.6499 18.8503 38.6999C18.2503 39.5499 17.6503 40.3499 17.0503 41.1999C17.0503 41.1999 17.0503 41.2499 17.0003 41.2999L16.9503 41.2499C17.0503 41.0499 17.1503 40.7999 17.2503 40.5999C17.6003 39.8999 17.9503 39.1499 18.3003 38.4499C18.3503 38.3999 18.4003 38.2999 18.4503 38.2999C19.1503 38.0999 19.9003 37.9499 20.6503 37.8999C21.2003 37.8499 21.7503 37.8499 22.3003 37.9999C22.3503 37.9999 22.4003 38.0499 22.4503 38.0499C21.3503 37.8999 20.2503 38.1999 19.1003 38.5499Z" fill="#38383A"/>
<path d="M36.4502 26.5999C36.3002 25.7499 36.2002 24.9499 36.0502 24.0999C35.9502 23.3499 35.8002 22.5999 35.7002 21.8999C35.6002 21.3499 35.5002 20.8 35.4002 20.2L21.8002 29.5499C21.7502 29.5999 21.7002 29.65 21.7002 29.7C21.8002 30.15 21.9502 30.5499 22.0502 30.9999C22.1002 30.9999 22.1002 30.9999 22.1002 30.9999C23.2002 30.7999 24.2502 30.5499 25.3502 30.3499C27.4002 29.9499 29.4502 29.5499 31.5502 29.1499C33.2002 28.8499 34.8502 28.5 36.5002 28.2C36.6502 28.15 36.6502 28.0999 36.6502 27.9999C36.6002 27.4999 36.5002 27.0499 36.4502 26.5999Z" fill="#38383A"/>
<path d="M28.6502 15.2499C28.3502 15.6999 28.0002 16.1999 27.7002 16.6499C29.5002 16.9499 30.9002 17.6999 31.6502 18.1499C31.7502 18.1999 31.8502 18.1999 31.9502 18.0999C32.5502 17.5999 33.1502 17.0999 33.7502 16.5499C34.9502 15.5499 36.1502 14.5499 37.3502 13.5499C38.6002 12.4999 39.8502 11.4499 41.1002 10.3999C39.0502 8.94995 36.7502 7.84995 34.2502 7.19995C33.6502 8.04995 33.1002 8.84995 32.5002 9.69995C31.2002 11.55 29.9002 13.3999 28.6502 15.2499Z" fill="#38383A"/>
<path d="M22.0006 15.3999C21.8506 15.8999 21.7006 16.45 21.6006 16.95C21.9006 16.9 23.6006 16.2499 26.1006 16.3999C26.2006 16.3999 26.3006 16.3499 26.3506 16.2499C26.9006 15.2499 27.4006 14.2999 27.9506 13.2999C28.7506 11.8499 29.5006 10.4 30.3006 8.94995C30.7006 8.19995 31.1506 7.39995 31.5506 6.59995C30.7006 6.49995 29.8006 6.44995 28.9006 6.44995C27.3006 6.44995 25.8006 6.64995 24.3006 6.94995C24.2506 7.14995 24.2006 7.29994 24.1506 7.49994C23.4506 10.1499 22.7006 12.7999 22.0006 15.3999Z" fill="#38383A"/>
<path d="M15.9003 11.45C15.9503 11.95 16.0003 12.45 16.0003 12.9C16.0503 13.35 16.1003 13.85 16.1003 14.3C16.1503 14.8 16.2003 15.25 16.2503 15.75C16.3003 16.25 16.3503 16.75 16.3503 17.2C16.4003 17.65 16.4503 18.15 16.4503 18.6C16.5003 19.05 16.5003 19.45 16.5503 19.95C17.0503 19.5 18.5503 18.15 20.4003 17.35C20.5003 17.3 20.5503 17.3 20.6003 17.15C20.7003 16.4 20.8503 15.8 20.9503 15.05C21.1503 14 21.3003 13 21.5003 11.95C21.7003 10.65 21.9503 9.35001 22.1503 8.10001C22.2003 7.90001 22.2003 7.7 22.2503 7.5C19.9003 8.3 17.7003 9.45 15.8003 11C15.8503 11.2 15.9003 11.3 15.9003 11.45Z" fill="#38383A"/>
<path d="M13.4002 22.4999C13.6002 22.8499 13.8002 23.2999 14.0002 23.6499C14.4002 22.7999 15.2002 21.4499 16.0002 20.5999C16.0502 20.5499 16.0502 20.4499 16.0502 20.3999C15.9002 19.7999 15.8002 19.1999 15.6502 18.5999C15.3002 16.9999 14.9002 15.3499 14.5502 13.7499C14.4502 13.3499 14.3502 12.9 14.2502 12.45C14.1002 12.6 14.0002 12.6999 13.9002 12.8499C13.4502 13.3499 12.9502 13.7999 12.5502 14.3499C12.0002 15.0499 11.5002 15.7999 10.9502 16.5499C10.8502 16.6999 10.8002 16.8499 10.7002 16.9999C10.7002 17.0499 10.7002 17.0999 10.7502 17.1499C11.6002 18.8999 12.5002 20.6999 13.4002 22.4999Z" fill="#38383A"/>
<path d="M9.1 23.5999C10.15 24.4999 11.2 25.4499 12.25 26.3499C12.5 26.5499 12.75 26.7999 13 26.9999C13.1 26.1999 13.35 25.2499 13.65 24.4999C13.7 24.3499 13.65 24.2499 13.55 24.1499C12.5 22.7499 11.4 21.2999 10.35 19.8999C10.1 19.5999 9.85 19.25 9.6 18.95C9.55 19 9.55 19.0499 9.55 19.0499C9.5 19.1499 9.5 19.1999 9.45 19.2999C8.95 20.4499 8.55 21.5999 8.25 22.8499C8.25 22.8999 8.3 22.95 8.3 22.95C8.6 23.15 8.85 23.3999 9.1 23.5999Z" fill="#38383A"/>
<path d="M12.0503 30.5C12.3503 30.6 12.6503 30.7 12.9503 30.8C12.8003 29.75 12.8503 28.3 12.9003 27.95C12.9003 27.8 12.8503 27.75 12.7503 27.7C11.5503 26.95 10.3503 26.25 9.20029 25.5C8.80029 25.25 8.40029 25 8.00029 24.75C7.85029 25.75 7.80029 26.8 7.80029 27.85C7.80029 28.25 7.80029 28.65 7.85029 29C7.85029 29 7.90029 29 7.90029 29.05C9.25029 29.5 10.6503 30 12.0503 30.5Z" fill="#38383A"/>
<path d="M14.0504 34.4499C14.0004 34.3499 13.9004 34.2999 13.8004 34.3499C12.6004 34.6499 11.4004 34.9499 10.2004 35.1999C9.85039 35.2999 9.50039 35.3499 9.15039 35.4499C9.55039 36.4499 10.0004 37.4499 10.5504 38.3999C12.0004 37.5999 13.5004 36.8499 14.9504 36.0499C14.4004 35.1499 14.3504 34.9499 14.0504 34.4499Z" fill="#38383A"/>
<path d="M10.9002 33.6001C11.5502 33.6001 12.2002 33.6001 12.8502 33.6001H13.7002C13.7002 33.5501 13.3002 32.4001 13.1502 31.8001C13.1502 31.7501 13.0502 31.6501 13.0002 31.6501C11.5502 31.3501 10.1002 31.0501 8.6502 30.7501C8.4002 30.7001 8.2002 30.6501 7.9502 30.6001C8.1002 31.6501 8.3002 32.6501 8.5502 33.6001C9.3502 33.6501 10.1002 33.6501 10.9002 33.6001Z" fill="#38383A"/>
</svg>
