<svg width="25" height="25" viewBox="0 0 25 25" fill="none" xmlns="http://www.w3.org/2000/svg">
<path d="M11.8525 0C12.3018 0 12.7262 0 13.1755 0C13.4751 0.0499501 13.7747 0.0749251 14.0493 0.124875C15.5471 0.2997 16.995 0.724276 18.318 1.44855C21.8379 3.37163 24.0846 6.31868 24.7836 10.2647C25.4576 14.0859 24.5589 17.5325 22.0626 20.5295C19.9656 23.027 17.2696 24.5005 13.9993 24.9001C13.7747 24.9251 13.525 24.975 13.3004 25C12.8011 25 12.3018 25 11.8025 25C11.7027 24.975 11.6028 24.9501 11.503 24.9501C10.0052 24.8502 8.55728 24.4755 7.20924 23.8262C3.33989 21.9031 0.968348 18.8312 0.194478 14.5604C-0.254867 11.988 0.0696576 9.49051 1.21798 7.14286C3.16514 3.22178 6.31055 0.874126 10.6542 0.14985C11.0536 0.0999001 11.453 0.0499501 11.8525 0ZM14.7982 19.6553C14.6484 19.6803 14.5485 19.7053 14.4736 19.7303C12.9509 20.1299 11.453 20.0799 9.98019 19.5305C7.95814 18.7812 6.4853 17.4076 5.63653 15.4096C4.78777 13.3866 4.81274 11.3387 5.76135 9.34066C6.98457 6.79321 9.03158 5.36963 11.8275 5.04496C13.4501 4.84516 14.9979 5.21978 16.3958 6.09391C18.5677 7.44256 19.7909 9.39061 19.9906 11.9381C20.0655 13.1119 20.0156 14.3107 20.0405 15.5095C20.0405 15.6593 20.0156 15.8092 19.9906 15.959C19.7659 17.0829 18.5427 17.7323 17.4942 17.2827C16.6954 16.9331 16.3209 16.3087 16.3209 15.4346C16.3209 13.2118 16.3209 10.989 16.3209 8.79121C16.3209 8.66633 16.3209 8.56643 16.3209 8.44156C15.7967 8.44156 15.3474 8.44156 14.8481 8.44156C14.8481 8.66633 14.8231 8.89111 14.8231 9.14086C13.9244 8.61638 13.0008 8.36663 12.0022 8.49151C11.0037 8.64136 10.1549 9.11588 9.48092 9.86514C8.35756 11.1638 8.10793 13.0869 9.10647 14.5604C10.5793 16.7582 12.5764 17.033 14.8481 15.8841C14.8731 16.009 14.898 16.1339 14.923 16.2338C15.2475 17.8571 16.7453 18.981 18.4678 18.8561C20.0405 18.7562 21.4135 17.3826 21.4884 15.7842C21.5383 14.5604 21.4884 13.3367 21.4884 12.1379C21.4884 11.2138 21.2887 10.3147 20.9642 9.44056C20.0655 7.01798 18.4429 5.26973 16.0713 4.27073C13.6498 3.22178 11.1784 3.24675 8.78194 4.3956C6.06092 5.66933 4.38835 7.81718 3.76427 10.7393C3.26499 13.1369 3.68937 15.4346 5.1123 17.4575C7.20924 20.4795 10.1549 21.7532 13.7996 21.3536C14.2989 21.3037 14.7732 21.1538 15.2725 21.0539C15.0728 20.5544 14.9479 20.1299 14.7982 19.6553Z" fill="#C4C4C4"/>
<path d="M14.7982 12.5124C14.7982 12.7122 14.7732 12.887 14.7982 13.0868C14.923 13.8361 14.4737 14.3106 13.9245 14.6852C12.851 15.3845 11.4031 15.1847 10.6043 14.2357C9.73058 13.2117 9.70563 11.8381 10.5794 10.8141C11.4031 9.86506 12.8011 9.64028 13.8995 10.3146C14.1491 10.4645 14.3488 10.6892 14.5486 10.889C14.7483 11.0888 14.8481 11.3386 14.8232 11.6133C14.7732 11.913 14.7982 12.2127 14.7982 12.5124Z" fill="#C4C4C4"/>
</svg>
