<svg width="50" height="50" viewBox="0 0 50 50" fill="none" xmlns="http://www.w3.org/2000/svg">
<path d="M10.8501 18.6813V19.8301L12.6001 18.6813H10.8501Z" fill="#C4C4C4"/>
<path d="M7.6499 19.0809V19.9301H9.0499L7.6499 19.0809Z" fill="#C4C4C4"/>
<path d="M8.7998 17.4325C8.8998 17.4825 8.9998 17.4825 9.0998 17.4825H15.6498C16.0998 17.4825 16.4998 17.1328 16.4998 16.6333V14.5854V14.5354C16.4998 14.3856 16.4498 14.2857 16.3998 14.1358C16.2498 13.8861 15.9998 13.7362 15.6998 13.7362H10.6998C9.7998 13.7362 9.0498 14.3356 8.7498 15.1848L8.3498 16.3836C8.2498 16.6333 8.2998 16.933 8.4998 17.1328C8.4998 17.2827 8.5998 17.3826 8.7998 17.4325Z" fill="#C4C4C4"/>
<path d="M13.2001 19.0809L11.8501 19.9301H13.2001V19.0809Z" fill="#C4C4C4"/>
<path d="M13.1999 20.7792H11.8999L13.1999 21.5284V20.7792Z" fill="#C4C4C4"/>
<path d="M10.8501 22.028H12.7501L10.8501 20.9291V22.028Z" fill="#C4C4C4"/>
<path d="M9.9502 18.6813H8.2002L9.9502 19.6803V18.6813Z" fill="#C4C4C4"/>
<path d="M23.35 23.8262H19.55C19.1 23.8262 18.75 24.1758 18.75 24.6254V26.6733C18.75 26.8232 18.8 26.9231 18.85 27.023C19 27.2727 19.25 27.4725 19.55 27.4725H23.35C23.8 27.4725 24.15 27.1229 24.15 26.6733V24.8252V24.6254C24.15 24.2258 23.8 23.8262 23.35 23.8262Z" fill="#C4C4C4"/>
<path d="M29.6499 23.8262H25.9999C25.5499 23.8262 25.1499 24.2258 25.1499 24.6753V24.7752V26.6234C25.1499 27.0729 25.5499 27.4725 25.9999 27.4725H29.6499C30.0999 27.4725 30.4999 27.0729 30.4999 26.6234V24.7752V24.6753C30.4999 24.2258 30.1499 23.8262 29.6499 23.8262Z" fill="#C4C4C4"/>
<path d="M4.5 28.4216C4.75 28.3217 4.95 28.2718 5.25 28.2718H15.65V22.9771H6.5L4.5 28.4216Z" fill="#C4C4C4"/>
<path d="M7.6499 20.7792V21.8781L9.3499 20.7792H7.6499Z" fill="#C4C4C4"/>
<path d="M9.9501 22.028V21.1289L8.6001 22.028H9.9501Z" fill="#C4C4C4"/>
<path d="M37.2999 17.4326H43.4999C43.7999 17.4326 44.0499 17.2328 44.1499 16.9331C44.1499 16.8831 44.1499 16.8332 44.1499 16.7832V15.6843C44.1499 14.6354 43.2999 13.8362 42.2999 13.8362H37.2999C36.9499 13.8362 36.6499 14.1359 36.6499 14.4855V14.8851V16.8332C36.6499 17.1329 36.9499 17.4326 37.2999 17.4326Z" fill="#C4C4C4"/>
<path d="M44.3 20.7792H43L44.3 21.5284V20.7792Z" fill="#C4C4C4"/>
<path d="M42 22.028H43.85L42 20.9291V22.028Z" fill="#C4C4C4"/>
<path d="M44.3 19.0809L43 19.9301H44.3V19.0809Z" fill="#C4C4C4"/>
<path d="M11.3501 36.3137C12.1785 36.3137 12.8501 35.6428 12.8501 34.8152C12.8501 33.9876 12.1785 33.3167 11.3501 33.3167C10.5217 33.3167 9.8501 33.9876 9.8501 34.8152C9.8501 35.6428 10.5217 36.3137 11.3501 36.3137Z" fill="#C4C4C4"/>
<path d="M42 18.6813V19.8301L43.75 18.6813H42Z" fill="#C4C4C4"/>
<path d="M35.3501 33.3167C34.5501 33.3167 33.8501 33.966 33.8501 34.8152C33.8501 35.6643 34.5001 36.3137 35.3501 36.3137C36.1501 36.3137 36.8501 35.6643 36.8501 34.8152C36.8501 33.966 36.2001 33.3167 35.3501 33.3167Z" fill="#C4C4C4"/>
<path d="M36.1498 23.8262H32.3498C31.8998 23.8262 31.5498 24.1758 31.5498 24.6254V24.8751V26.7233C31.5498 27.1728 31.8998 27.5225 32.3498 27.5225H36.1498C36.4998 27.5225 36.7498 27.3227 36.8998 27.023C36.9498 26.9231 36.9498 26.8232 36.9498 26.7233V24.6254C36.8998 24.1758 36.5498 23.8262 36.1498 23.8262Z" fill="#C4C4C4"/>
<path d="M24.7001 17.4325H28.4001C28.8501 17.4325 29.2501 17.0829 29.2501 16.5834V14.6853V14.5854C29.2501 14.1358 28.9001 13.7362 28.4001 13.7362H24.7001C24.2501 13.7362 23.8501 14.0859 23.8501 14.5854V16.5334C23.8501 17.0829 24.2501 17.4325 24.7001 17.4325Z" fill="#C4C4C4"/>
<path d="M31.05 17.4325H34.85C35.3 17.4325 35.65 17.0829 35.65 16.6333V14.7852V14.5354C35.65 14.0859 35.3 13.7362 34.85 13.7362H31.05C30.6 13.7362 30.25 14.0859 30.25 14.5354V14.6853V16.5834C30.25 17.0829 30.6 17.4325 31.05 17.4325Z" fill="#C4C4C4"/>
<path d="M41.0998 18.6813H39.2998L41.0998 19.6803V18.6813Z" fill="#C4C4C4"/>
<path d="M38.7998 19.9301H40.1498L38.7998 19.0809V19.9301Z" fill="#C4C4C4"/>
<path d="M18.3 17.4326H22.05C22.5 17.4326 22.85 17.0829 22.85 16.6334V14.6354C22.85 14.1858 22.5 13.8362 22.05 13.8362H18.3C17.85 13.8362 17.5 14.1858 17.5 14.5854V14.6354V16.6334C17.5 17.0829 17.85 17.4326 18.3 17.4326Z" fill="#C4C4C4"/>
<path d="M41.85 24.4756H41H40.4C40.2 24.4756 40 24.6254 40 24.8752V33.3167C40 33.5165 40.15 33.7163 40.4 33.7163H41.3H41.85C42.05 33.7163 42.25 33.5665 42.25 33.3167V24.8752C42.25 24.6254 42.05 24.4756 41.85 24.4756Z" fill="#C4C4C4"/>
<path d="M36.7002 18.6813H15.3002C14.4002 18.6813 13.7002 19.3806 13.7002 20.2797V20.5294C13.7002 21.4285 14.4002 22.1278 15.3002 22.1278H36.7002C37.6002 22.1278 38.3002 21.4285 38.3002 20.5294V20.2797C38.3002 19.3806 37.5502 18.6813 36.7002 18.6813ZM17.6502 19.7802L17.3502 20.979C17.3502 21.0289 17.3002 21.0289 17.2502 21.0289H17.1002C17.0502 21.0289 17.0002 21.0289 17.0002 20.979L16.8502 20.3296L16.8002 20.1798L16.7502 20.3296L16.6002 20.979C16.6002 21.0289 16.5502 21.0289 16.5002 21.0289H16.3502C16.3002 21.0289 16.2502 21.0289 16.2502 20.979L15.9502 19.7302C15.9502 19.7302 15.9502 19.7302 15.9502 19.6803C15.9502 19.6303 16.0002 19.6303 16.0502 19.6303H16.1002C16.1502 19.6303 16.2002 19.6303 16.2502 19.6803L16.4002 20.2797C16.4002 20.3296 16.4502 20.4295 16.4502 20.5794C16.4502 20.4795 16.5002 20.3796 16.5002 20.2797L16.6502 19.6303C16.6502 19.5804 16.7002 19.5804 16.7502 19.5804H16.8002C16.8502 19.5804 16.9002 19.5804 16.9002 19.6303L17.0502 20.2797C17.0502 20.3296 17.1002 20.4795 17.1002 20.5794C17.1502 20.4795 17.1502 20.3796 17.1502 20.2797L17.3002 19.6803C17.3002 19.6303 17.3502 19.6303 17.4502 19.6303C17.6002 19.6803 17.6502 19.7302 17.6502 19.7802C17.6502 19.7802 17.6502 19.7302 17.6502 19.7802ZM18.6002 20.929C18.6002 20.979 18.6002 21.0289 18.5502 21.0289H17.8502C17.8002 21.0289 17.7502 21.0289 17.7502 20.929V19.7302C17.7502 19.6803 17.7502 19.6303 17.8502 19.6303H18.5502C18.6002 19.6303 18.6002 19.6803 18.6002 19.7302V19.7802C18.6002 19.8301 18.6002 19.8801 18.5502 19.8801H18.0502V20.1798H18.5002C18.5502 20.1798 18.5502 20.2297 18.5502 20.2797V20.3296C18.5502 20.3796 18.5502 20.4295 18.5002 20.4295H18.0502V20.7292H18.5502C18.6002 20.7292 18.6002 20.7792 18.6002 20.8291V20.929ZM19.6002 20.929C19.6002 20.979 19.6002 21.0289 19.5502 21.0289H18.9002C18.8502 21.0289 18.8002 21.0289 18.8002 20.929V19.7302C18.8002 19.6803 18.8502 19.6803 18.9002 19.6803H19.0002C19.1002 19.6803 19.1002 19.6803 19.1002 19.7302V20.7792H19.5502C19.6002 20.7792 19.6002 20.8291 19.6002 20.8791V20.929ZM20.3502 21.0289C19.9002 21.0289 19.7002 20.8291 19.7002 20.3296C19.7002 19.8801 19.9002 19.6303 20.3502 19.6303C20.5002 19.6303 20.7502 19.6803 20.7502 19.7802C20.7502 19.8301 20.6502 19.98 20.6502 19.98C20.6502 19.98 20.5502 19.93 20.3502 19.93C20.1002 19.93 20.0002 20.0799 20.0002 20.3796C20.0002 20.6793 20.1002 20.8291 20.3502 20.8291C20.5502 20.8291 20.6502 20.7292 20.6502 20.7292C20.7002 20.7292 20.7502 20.8791 20.7502 20.8791C20.7502 21.0289 20.5002 21.0289 20.3502 21.0289ZM21.5002 21.0289C21.1002 21.0289 20.9002 20.7792 20.9002 20.3296C20.9002 19.8801 21.1002 19.6303 21.5002 19.6303C21.9002 19.6303 22.1002 19.8801 22.1002 20.3296C22.1002 20.7792 21.9002 21.0289 21.5002 21.0289ZM23.7002 20.979C23.7002 21.0289 23.6502 21.0289 23.6002 21.0289H23.5502C23.4502 21.0289 23.4502 21.0289 23.4502 20.979V20.1798L23.1502 20.6793C23.1502 20.6793 23.1002 20.7292 23.0502 20.7292H23.0002C22.9502 20.7292 22.9502 20.7292 22.9002 20.6793L22.6002 20.1798V20.979C22.6002 21.0289 22.5502 21.0289 22.5002 21.0289H22.4502C22.3502 21.0289 22.3502 21.0289 22.3502 20.979V19.7302C22.3502 19.6803 22.4002 19.6803 22.4502 19.6803H22.5502C22.6002 19.6803 22.6502 19.6803 22.6502 19.7302L22.9502 20.2797V20.3296V20.2797L23.2502 19.7302C23.2502 19.6803 23.3002 19.6803 23.3502 19.6803H23.4502C23.5502 19.6803 23.5502 19.6803 23.5502 19.7302V20.979H23.7002ZM24.8002 20.929C24.8002 20.979 24.8002 21.0289 24.7502 21.0289H24.0502C24.0002 21.0289 23.9502 21.0289 23.9502 20.929V19.7302C23.9502 19.6803 23.9502 19.6303 24.0502 19.6303H24.7502C24.8002 19.6303 24.8002 19.6803 24.8002 19.7302V19.7802C24.8002 19.8301 24.8002 19.8801 24.7502 19.8801H24.2502V20.1798H24.7002C24.7502 20.1798 24.7502 20.2297 24.7502 20.2797V20.3296C24.7502 20.3796 24.7502 20.4295 24.7002 20.4295H24.2502V20.7292H24.7502C24.8002 20.7292 24.8002 20.7792 24.8002 20.8291V20.929ZM26.4002 19.8301C26.4002 19.8801 26.4002 19.93 26.3502 19.93H26.0002V20.979C26.0002 21.0289 25.9502 21.0289 25.9002 21.0289H25.8502C25.7502 21.0289 25.7502 21.0289 25.7502 20.979V19.93H25.4502C25.4002 19.93 25.4002 19.8801 25.4002 19.8301V19.7802C25.4002 19.7302 25.4002 19.6803 25.4502 19.6803H26.3502C26.4002 19.6803 26.4002 19.7302 26.4002 19.7802V19.8301V19.8301ZM27.1002 21.0289C26.7002 21.0289 26.5002 20.7792 26.5002 20.3296C26.5002 19.8801 26.7002 19.6303 27.1002 19.6303C27.5002 19.6303 27.7002 19.8801 27.7002 20.3296C27.7002 20.7792 27.5002 21.0289 27.1002 21.0289ZM29.2002 20.929C29.2002 20.979 29.2002 21.0289 29.1502 21.0289H28.5002C28.4502 21.0289 28.4002 21.0289 28.4002 20.929V19.7302C28.4002 19.6803 28.4502 19.6803 28.5002 19.6803H28.5502C28.6502 19.6803 28.6502 19.6803 28.6502 19.7302V20.7792H29.1002C29.1502 20.7792 29.1502 20.8291 29.1502 20.8791V20.929H29.2002ZM29.9002 21.0289C29.5002 21.0289 29.3002 20.7792 29.3002 20.3296C29.3002 19.8801 29.5002 19.6303 29.9002 19.6303C30.3002 19.6303 30.5002 19.8801 30.5002 20.3296C30.5002 20.7792 30.3002 21.0289 29.9002 21.0289ZM31.8502 20.979C31.8502 21.0289 31.8002 21.0289 31.7502 21.0289H31.7002C31.6502 21.0289 31.6002 21.0289 31.5502 20.979L31.0502 20.1798V20.979C31.0502 21.0289 31.0002 21.0289 30.9502 21.0289H30.9002C30.8002 21.0289 30.8002 21.0289 30.8002 20.979V19.7302C30.8002 19.6803 30.8502 19.6803 30.9002 19.6803H31.0002C31.0502 19.6803 31.1002 19.6803 31.1502 19.7302L31.6002 20.4295L31.6502 20.5294V19.7802C31.6502 19.7302 31.7002 19.7302 31.7502 19.7302H31.8002C31.9002 19.7302 31.9002 19.7302 31.9002 19.7802V20.979H31.8502ZM32.6502 21.0289H32.2002C32.1502 21.0289 32.1002 21.0289 32.1002 20.929V19.7302C32.1002 19.6803 32.1002 19.6303 32.2002 19.6303H32.6502C33.0502 19.6303 33.2502 19.8801 33.2502 20.2797C33.2502 20.7792 33.0002 21.0289 32.6502 21.0289ZM34.0502 21.0289C33.6502 21.0289 33.4502 20.7792 33.4502 20.3296C33.4502 19.8801 33.6502 19.6303 34.0502 19.6303C34.4502 19.6303 34.6502 19.8801 34.6502 20.3296C34.6502 20.7792 34.4002 21.0289 34.0502 21.0289ZM36.0002 20.979C36.0002 21.0289 35.9502 21.0289 35.9002 21.0289H35.8502C35.8002 21.0289 35.7502 21.0289 35.7002 20.979L35.2002 20.1798V20.979C35.2002 21.0289 35.1502 21.0289 35.1002 21.0289H35.0002C34.9002 21.0289 34.9002 21.0289 34.9002 20.979V19.7302C34.9002 19.6803 34.9502 19.6803 35.0002 19.6803H35.1002C35.1502 19.6803 35.2002 19.6803 35.2502 19.7302L35.7002 20.4295L35.7502 20.5294V19.7802C35.7502 19.7302 35.8002 19.7302 35.8502 19.7302H35.9002C36.0002 19.7302 36.0002 19.7302 36.0002 19.7802V20.979Z" fill="#C4C4C4"/>
<path d="M34.05 19.9301C33.85 19.9301 33.75 20.0799 33.75 20.3796C33.75 20.6793 33.85 20.8292 34.05 20.8292C34.25 20.8292 34.35 20.6793 34.35 20.3796C34.35 20.0799 34.25 19.9301 34.05 19.9301Z" fill="#C4C4C4"/>
<path d="M32.6502 19.9301H32.4502V20.7792H32.6502C32.8502 20.7792 32.9502 20.6294 32.9502 20.3796C32.9502 20.1299 32.8502 19.9301 32.6502 19.9301Z" fill="#C4C4C4"/>
<path d="M27.0998 19.9301C26.8998 19.9301 26.7998 20.0799 26.7998 20.3796C26.7998 20.6793 26.8998 20.8292 27.0998 20.8292C27.2998 20.8292 27.3998 20.6793 27.3998 20.3796C27.3998 20.0799 27.2998 19.9301 27.0998 19.9301Z" fill="#C4C4C4"/>
<path d="M29.9001 19.9301C29.7001 19.9301 29.6001 20.0799 29.6001 20.3796C29.6001 20.6793 29.7001 20.8292 29.9001 20.8292C30.1001 20.8292 30.2001 20.6793 30.2001 20.3796C30.2001 20.0799 30.1001 19.9301 29.9001 19.9301Z" fill="#C4C4C4"/>
<path d="M41.15 0H8.85C3.95 0 0 4.04595 0 9.09091V40.9091C0 45.9041 3.95 50 8.85 50H41.15C46.05 50 50 45.954 50 40.9091V9.09091C50 4.04595 46.05 0 41.15 0ZM14.3 35.3646C14.05 36.8132 12.8 37.8621 11.3 37.8621C9.8 37.8621 8.55 36.7632 8.3 35.3646C8.25 35.2148 8.25 35.015 8.25 34.8651C8.25 33.2168 9.6 31.8182 11.3 31.8182C12.95 31.8182 14.35 33.1668 14.35 34.8651C14.35 35.015 14.3 35.2148 14.3 35.3646ZM35.35 37.8621C33.65 37.8621 32.3 36.5135 32.3 34.8152C32.3 33.1668 33.65 31.7682 35.35 31.7682C37 31.7682 38.4 33.1169 38.4 34.8152C38.35 36.5135 37 37.8621 35.35 37.8621ZM47.1 21.8781C47.1 21.978 47.1 22.028 47.05 22.1279V35.3646H38.8C38.85 35.2148 38.85 35.015 38.85 34.8651C38.85 32.9171 37.3 31.3686 35.35 31.3686C33.4 31.3686 31.85 32.9171 31.85 34.8651C31.85 35.0649 31.85 35.2148 31.9 35.3646H17.45H15.65H14.75C14.8 35.2148 14.8 35.015 14.8 34.8651C14.8 32.9171 13.25 31.3686 11.3 31.3686C9.35 31.3686 7.8 32.9171 7.8 34.8651C7.8 35.0649 7.8 35.2148 7.85 35.3646H5.25C3.95 35.3646 2.9 34.3157 2.9 33.017V30.6693C2.9 29.8701 3.3 29.2208 3.9 28.7712L6 22.977H5.7C4.65 22.977 3.85 22.2777 4.05 21.4785L5.1 16.6334C5.7 13.986 8.7 12.038 12.25 12.038H45.7C46.5 12.038 47.1 12.5375 47.1 13.0869V21.8781Z" fill="#C4C4C4"/>
<path d="M41.1002 21.1289L39.7002 22.028H41.1002V21.1289Z" fill="#C4C4C4"/>
<path d="M44.6002 24.4756H43.5502H43.1002C42.9002 24.4756 42.7002 24.6254 42.7002 24.8752V33.3167C42.7002 33.5165 42.8502 33.7163 43.1002 33.7163H44.0502H44.5502C44.7502 33.7163 44.9502 33.5665 44.9502 33.3167V24.8752C44.9502 24.6254 44.8002 24.4756 44.6002 24.4756Z" fill="#C4C4C4"/>
<path d="M38.7998 20.7792V21.8781L40.4498 20.7792H38.7998Z" fill="#C4C4C4"/>
<path d="M21.5002 19.9301C21.3002 19.9301 21.2002 20.0799 21.2002 20.3796C21.2002 20.6793 21.3002 20.8292 21.5002 20.8292C21.7002 20.8292 21.8002 20.6793 21.8002 20.3796C21.8002 20.0799 21.7002 19.9301 21.5002 19.9301Z" fill="#C4C4C4"/>
</svg>
