<svg width="34" height="50" viewBox="0 0 34 50" fill="none" xmlns="http://www.w3.org/2000/svg">
<path d="M8.35 50.0001C12.95 50.0001 16.7 46.2501 16.7 41.6501V33.3501H8.35C3.75 33.3501 0 37.0501 0 41.6501C0 46.2501 3.75 50.0001 8.35 50.0001Z" fill="#979797"/>
<path d="M0 24.9999C0 20.3999 3.75 16.6499 8.35 16.6499H16.7V33.2999H8.35C3.75 33.3499 0 29.5999 0 24.9999Z" fill="#979797"/>
<path d="M0 8.35C0 3.75 3.75 0 8.35 0H16.7V16.65H8.35C3.75 16.65 0 12.95 0 8.35Z" fill="#979797"/>
<path d="M16.6499 0H24.9999C29.5999 0 33.3499 3.75 33.3499 8.35C33.3499 12.95 29.5999 16.65 24.9999 16.65H16.6499V0Z" fill="#979797"/>
<path d="M33.3499 24.9999C33.3499 29.5999 29.5999 33.3499 24.9999 33.3499C20.3999 33.3499 16.6499 29.5999 16.6499 24.9999C16.6499 20.3999 20.3999 16.6499 24.9999 16.6499C29.5999 16.6499 33.3499 20.3999 33.3499 24.9999Z" fill="#979797"/>
</svg>
