<svg width="25" height="25" viewBox="0 0 25 25" fill="none" xmlns="http://www.w3.org/2000/svg">
<path d="M9.58209 25C9.55708 25 9.53207 25 9.53207 25C9.45704 24.975 9.40702 24.9501 9.33199 24.9251C7.98147 24.5505 6.73099 23.976 5.58054 23.1518C2.67942 21.0789 0.903733 18.2567 0.228472 14.7602C-0.246712 12.2378 0.00338423 9.76523 1.12882 7.41758C3.07957 3.32168 6.30582 0.874126 10.7826 0.14985C11.1577 0.0999001 11.5328 0.0499501 11.908 0C12.3332 0 12.7583 0 13.1585 0C13.2335 0.024975 13.3085 0.0499501 13.3836 0.0499501C15.9095 0.24975 18.1854 1.07393 20.1362 2.67233C24.0877 5.86913 25.6383 9.99001 24.763 14.985C24.3878 17.1578 23.4124 19.0809 22.0119 20.7792C20.7114 22.3776 19.1358 23.5764 17.2351 24.3756C16.6848 24.6004 16.0846 24.7752 15.5094 24.975C15.4844 24.975 15.4594 24.975 15.4594 24.975C15.4594 23.2767 15.4594 21.6034 15.4594 19.9051C15.4594 19.1558 15.2843 18.4565 14.7841 17.8821C14.7091 17.7822 14.634 17.6823 14.534 17.5325C14.6841 17.4825 14.8341 17.4825 14.9342 17.4326C15.5844 17.2328 16.2597 17.0829 16.8599 16.8082C19.0107 15.8591 20.2612 13.4615 19.8861 11.1638C19.736 10.2148 19.3359 9.39061 18.7857 8.61638C18.6606 8.44156 18.6106 8.26673 18.6856 8.04196C18.9607 7.06793 18.8357 6.09391 18.4855 5.11988C18.1604 5.16983 17.8103 5.16983 17.5102 5.29471C16.8599 5.56943 16.2347 5.89411 15.6094 6.21878C15.3843 6.31868 15.2093 6.41858 14.9342 6.34366C13.4336 5.96903 11.933 5.89411 10.4324 6.26873C9.90722 6.39361 9.48205 6.31868 9.03188 6.01898C8.25658 5.51948 7.45627 5.11988 6.48089 5.14486C6.43087 5.24476 6.40586 5.34466 6.35584 5.44456C6.10575 6.29371 6.00571 7.16783 6.25581 8.04196C6.30583 8.19181 6.28081 8.41658 6.20578 8.54146C5.50551 9.46554 5.13037 10.5145 5.08035 11.6883C5.00532 13.037 5.33045 14.2607 6.20578 15.3596C6.95607 16.2837 7.90644 16.8581 9.00687 17.2078C9.48205 17.3576 9.95724 17.4575 10.4574 17.5824C10.0823 18.0819 9.70714 18.5814 9.63211 19.2058C9.63211 19.2557 9.50706 19.3307 9.43203 19.3556C8.60672 19.6304 8.00648 19.4056 7.48128 18.6813C7.18116 18.2567 6.83103 17.8322 6.45588 17.5075C5.9807 17.1079 5.40548 16.8831 4.75523 16.983C4.80524 17.4575 4.83025 17.9321 4.88027 18.2567C5.25542 18.5065 5.53052 18.6314 5.78062 18.8561C6.00571 19.0559 6.18078 19.3307 6.35584 19.5804C6.85604 20.3047 7.5313 20.7792 8.40664 20.9041C8.78178 20.954 9.18194 20.9041 9.58209 20.9041C9.58209 22.2527 9.58209 23.6264 9.58209 25Z" fill="#C4C4C4"/>
</svg>
