<svg width="36" height="50" viewBox="0 0 36 50" fill="none" xmlns="http://www.w3.org/2000/svg">
<path d="M35.45 9.8501L32.2 46.0001L17.7 50.0001L3.25 46.0001L0 9.8501H35.45Z" fill="#979797"/>
<path d="M17.6999 46.9501L29.3999 43.7001L32.1499 12.8H17.6499V46.9501H17.6999Z" fill="#979797"/>
<path d="M11.4501 21.65H17.7001V17.2H6.6001L6.7001 18.4L7.8001 30.6H17.7001V26.15H11.8501L11.4501 21.65ZM12.4501 32.85H8.0001L8.6001 39.8L17.7001 42.3V37.7L12.7501 36.35L12.4501 32.85Z" fill="#38383A"/>
<path d="M3.30029 0H5.55029V2.25H7.60029V0H9.85029V6.75H7.60029V4.5H5.55029V6.75H3.30029V0ZM12.8503 2.25H10.8503V0H17.0503V2.25H15.0503V6.75H12.8003L12.8503 2.25ZM18.0503 0H20.4003L21.8503 2.35L23.3003 0H25.6503V6.75H23.4003V3.4L21.8503 5.8H21.8003L20.2503 3.4V6.75H18.0503V0V0ZM26.7503 0H29.0003V4.5H32.1503V6.75H26.7503V0Z" fill="#979797"/>
<path d="M17.7002 30.65H23.1502L22.6502 36.4L17.7002 37.7499V42.35L26.8002 39.85L26.8502 39.1L27.9002 27.45L28.0002 26.2499H17.7002V30.65ZM17.7002 21.65H28.4002L28.5002 20.65L28.7002 18.4L28.8002 17.2H17.7002V21.65Z" fill="#38383A"/>
</svg>
