<svg width="50" height="50" viewBox="0 0 50 50" fill="none" xmlns="http://www.w3.org/2000/svg">
<path d="M7.79999 0H42.2C46.5 0 50 3.5 50 7.8V42.2C50 46.5 46.5 50 42.2 50H7.79999C3.49999 50 0 46.5 0 42.2V7.8C0 3.5 3.49999 0 7.79999 0Z" fill="#979797"/>
<path d="M24.4002 30.4501H16.7502L15.2002 35.5501C15.1502 35.7501 15.0002 35.8501 14.8002 35.8501H10.9502C10.7502 35.8501 10.6502 35.7501 10.7002 35.5001L17.3002 16.4501C17.3502 16.2501 17.4502 16.0501 17.5002 15.7501C17.6002 15.4001 17.6502 15.0001 17.6502 14.6001C17.6502 14.5001 17.7002 14.4001 17.8002 14.3501H17.8502H23.1002C23.2502 14.3501 23.3502 14.4001 23.3502 14.5001L30.8502 35.4501C30.9002 35.6501 30.8502 35.8001 30.6502 35.8001H26.3502C26.2002 35.8001 26.0502 35.7001 26.0002 35.5501L24.4002 30.4501ZM17.9002 26.9001H23.5002C23.3502 26.4501 22.9002 25.4501 22.7502 24.9001C22.6002 24.3501 22.3502 23.9001 22.1502 23.3001C21.9502 22.7001 21.7502 22.0501 21.5502 21.4001C21.3502 20.7501 21.1502 20.1501 21.0002 19.6001C20.8502 19.0001 20.7002 18.5001 20.5502 18.0001H20.5002C20.3002 18.9001 20.1002 19.7501 19.8002 20.6501C19.5002 21.6501 19.2002 22.6501 18.8502 23.7001C18.5502 24.7001 18.2002 26.0501 17.9002 26.9001Z" fill="#38383A"/>
<path d="M35.3496 17.8498C34.6496 17.8998 33.9996 17.5998 33.5496 17.0998C33.0996 16.5998 32.8496 15.8998 32.8496 15.1998C32.8496 14.4998 33.0996 13.8498 33.5996 13.3498C34.0996 12.8998 34.7496 12.5998 35.4496 12.6498C36.1496 12.5998 36.7996 12.8498 37.2996 13.3498C37.7496 13.8498 37.9996 14.4998 37.9996 15.1998C38.0496 15.8998 37.7496 16.5998 37.2996 17.0998C36.7496 17.5998 36.0496 17.8998 35.3496 17.8498ZM33.1996 35.4998V20.3998C33.1996 20.1998 33.2996 20.0998 33.4496 20.0998H37.1996C37.3996 20.0998 37.4496 20.1998 37.4496 20.3998V35.4998C37.4496 35.6998 37.3496 35.8498 37.1996 35.8498H33.4996C33.2996 35.8498 33.1996 35.6998 33.1996 35.4998Z" fill="#38383A"/>
</svg>
