<svg width="50" height="50" viewBox="0 0 50 50" fill="none" xmlns="http://www.w3.org/2000/svg">
<path d="M8.85001 0H41.15C46.05 0 50 4.04595 50 9.09091V40.9091C50 45.9041 46.05 50 41.15 50H8.85001C3.95001 50 0 45.954 0 40.9091V9.09091C0 4.04595 3.95001 0 8.85001 0Z" fill="#979797"/>
<path d="M18.15 13.0868V35.0648C18.15 35.3146 18.05 35.4145 17.85 35.4145H13.75C13.55 35.4145 13.5 35.3146 13.5 35.0648V13.0868C13.5 12.887 13.6 12.7871 13.8 12.7871H17.85C18 12.7871 18.1 12.8371 18.1 12.9869C18.15 13.0369 18.15 13.0369 18.15 13.0868Z" fill="#38383A"/>
<path d="M30.1999 35.6642C28.6499 35.6642 27.0999 35.3645 25.6999 34.7152C24.3999 34.1158 23.2999 33.0668 22.5499 31.8181C21.7999 30.5194 21.3999 28.871 21.3999 26.9729C21.3999 25.3745 21.7999 23.8261 22.5499 22.4774C23.3499 21.0788 24.4999 19.93 25.8499 19.1807C27.2999 18.3316 29.0499 17.932 31.0999 17.932C31.1999 17.932 31.3499 17.932 31.5499 17.932C31.7499 17.932 31.9499 17.932 32.1999 17.9819V11.1887C32.1999 11.0389 32.2499 10.939 32.3999 10.939H36.6499C36.7499 10.939 36.8499 10.9889 36.8499 11.0888V11.1388V31.4684C36.8499 31.868 36.8499 32.2676 36.8999 32.7671C36.9499 33.2167 36.9499 33.6662 36.9999 34.0159C36.9999 34.1657 36.9499 34.3156 36.7999 34.3655C35.6999 34.8151 34.5499 35.1647 33.3999 35.4145C32.3499 35.5643 31.2999 35.6642 30.1999 35.6642ZM32.2499 31.3685V21.9779C32.0499 21.928 31.8499 21.878 31.6999 21.878C31.4499 21.878 31.2499 21.8281 30.9999 21.8281C30.1999 21.8281 29.3499 21.9779 28.6499 22.3775C27.9499 22.7272 27.3499 23.2766 26.8999 23.9759C26.4499 24.6752 26.1999 25.5743 26.1999 26.6732C26.1999 27.4225 26.2999 28.1717 26.5499 28.871C26.7499 29.4704 27.0499 29.9699 27.4999 30.3695C27.8999 30.7691 28.3999 31.0688 28.8999 31.2187C29.4499 31.4185 30.0499 31.5184 30.6499 31.5184C30.9499 31.5184 31.2499 31.5184 31.5499 31.4684C31.7499 31.5184 31.9999 31.4684 32.2499 31.3685Z" fill="#38383A"/>
</svg>
