<?xml version="1.0" encoding="utf-8"?>
<!-- Generator: Adobe Illustrator 24.1.2, SVG Export Plug-In . SVG Version: 6.00 Build 0)  -->
<svg version="1.1" id="Layer_1" xmlns="http://www.w3.org/2000/svg" xmlns:xlink="http://www.w3.org/1999/xlink" x="0px" y="0px"
	 viewBox="0 0 50 50" style="enable-background:new 0 0 50 50;" xml:space="preserve">
<style type="text/css">
	.st0{fill:#8F8F8F;}
	.st1{fill:#38383A;}
</style>
<path class="st0" d="M8.9,0h32.3C46,0,50,4,50,9.1v31.8c0,5-4,9.1-8.8,9.1H8.9C4,50,0,45.9,0,40.9V9.1C0,4,4,0,8.9,0z"/>
<path class="st1" d="M33.6,39c1,1.7,2.3,2.8,4.7,2.8c2,0,3.2-0.9,3.2-2.3c0-1.6-1.3-2.2-3.4-3.1L36.9,36c-3.4-1.5-5.6-3.3-5.6-7.1
	c0-3.5,2.7-6.2,6.9-6.2c3,0,5.2,1,6.7,3.8l-3.6,2.3c-0.8-1.5-1.7-2-3-2c-1.4,0-2.3,0.9-2.3,2c0,1.4,0.8,2,2.9,2.9l1.2,0.5
	c4,1.7,6.3,3.5,6.3,7.4c0,4.3-3.3,6.5-7.8,6.5c-4.4,0-7.2-2.1-8.6-4.8L33.6,39z M17,39.4c0.8,1.3,1.4,2.4,3,2.4c1.5,0,2.5-0.6,2.5-3
	v-16h4.7v16.1c0,4.8-2.9,7.1-7,7.1c-3.8,0-5.9-1.9-7-4.3L17,39.4z"/>
</svg>
