<svg width="50" height="50" viewBox="0 0 50 50" fill="none" xmlns="http://www.w3.org/2000/svg">
<path d="M50 0H0V50H50V0Z" fill="#979797"/>
<path d="M33.5999 39.0499C34.5999 40.6999 35.8999 41.8999 38.2499 41.8999C40.1999 41.8999 41.4499 40.9499 41.4499 39.5999C41.4499 37.9999 40.1499 37.4 38.0499 36.5L36.8999 36C33.4999 34.55 31.2499 32.7499 31.2499 28.8999C31.2499 25.3999 33.9499 22.7 38.1499 22.7C41.1499 22.7 43.2999 23.75 44.8499 26.45L41.1999 28.7999C40.3999 27.3499 39.5499 26.7999 38.1999 26.7999C36.7999 26.7999 35.9499 27.6499 35.9499 28.7999C35.9499 30.1999 36.7999 30.7999 38.8499 31.6499L39.9999 32.1499C43.9999 33.8499 46.2499 35.5999 46.2499 39.5499C46.2499 43.7999 42.9499 46.0999 38.4499 46.0999C34.0999 46.0999 31.2499 43.9999 29.8999 41.2999L33.5999 39.0499ZM16.9999 39.4499C17.7499 40.7499 18.3999 41.8499 19.9999 41.8499C21.5499 41.8499 22.4999 41.2499 22.4999 38.8999V22.8999H27.1999V38.9499C27.1999 43.7999 24.3499 46.0499 20.1999 46.0499C16.4499 46.0499 14.2499 44.1 13.1499 41.75L16.9999 39.4499Z" fill="#38383A"/>
</svg>
