<svg width="25" height="25" viewBox="0 0 25 25" fill="none" xmlns="http://www.w3.org/2000/svg">
<path d="M10.8406 5.1991C11.9468 5.1991 13.0899 5.1991 14.1961 5.1991C14.4173 5.1991 14.4911 5.08848 14.4911 4.90412C14.4911 4.68288 14.4173 4.60913 14.1961 4.60913C13.643 4.60913 13.0899 4.60913 12.5368 4.60913C11.9837 4.60913 11.4306 4.60913 10.8406 4.60913C10.6194 4.60913 10.5457 4.68288 10.5457 4.90412C10.5457 5.12536 10.6194 5.1991 10.8406 5.1991Z" fill="#c4c4c4"/>
<path d="M8.55444 17.146C11.2093 17.146 13.8273 17.146 16.4453 17.146C16.4453 13.4218 16.4453 9.69758 16.4453 5.97339C13.7904 5.97339 11.1724 5.97339 8.55444 5.97339C8.55444 9.69758 8.55444 13.4218 8.55444 17.146Z" fill="#c4c4c4"/>
<path d="M12.4999 18.3259C12.0575 18.3259 11.6887 18.6947 11.6887 19.1371C11.6887 19.5796 12.0575 19.9115 12.4999 19.9115C12.9424 19.9115 13.3111 19.5427 13.2743 19.1003C13.2743 18.6578 12.9424 18.3259 12.4999 18.3259Z" fill="#c4c4c4"/>
<path d="M12.5 0C5.60472 0 0 5.60472 0 12.5C0 19.3953 5.60472 25 12.5 25C19.3953 25 25 19.3953 25 12.5C25 5.60472 19.3953 0 12.5 0ZM17.4041 19.8009C17.4041 20.2802 17.2566 20.649 16.851 20.9071C16.7035 21.0177 16.4823 21.0546 16.2979 21.1652C13.7537 21.1652 11.1726 21.1652 8.62832 21.1652C8.44395 21.0914 8.22271 21.0177 8.07522 20.9071C7.66962 20.649 7.52212 20.2434 7.52212 19.764C7.52212 14.8968 7.52212 10.0295 7.52212 5.19912C7.52212 5.16224 7.52212 5.0885 7.52212 5.05162C7.559 4.46165 7.92773 4.01917 8.48083 3.87168C8.59145 3.83481 8.66519 3.83481 8.77581 3.79794C11.2094 3.79794 13.6431 3.79794 16.0398 3.79794C16.2979 3.87168 16.556 3.90855 16.7773 4.05605C17.1829 4.31416 17.3304 4.75664 17.3304 5.23599C17.3304 9.14454 17.3304 13.0162 17.3304 16.9248C17.4041 17.8835 17.4041 18.8422 17.4041 19.8009Z" fill="#c4c4c4"/>
</svg>
