<svg width="50" height="50" viewBox="0 0 50 50" fill="none" xmlns="http://www.w3.org/2000/svg">
<path d="M8.85 0H41.15C46.05 0 50 4.04595 50 9.09091V40.9091C50 45.954 46.05 50 41.15 50H8.85C3.95 49.9501 0 45.9041 0 40.8591V9.09091C0 4.04595 3.95 0 8.85 0Z" fill="#8F8F8F"/>
<path d="M11.25 35.0149V13.0369C11.25 12.8871 11.3 12.7872 11.45 12.7872C11.8 12.7872 12.15 12.7872 12.6 12.7872C13.1 12.7872 13.6 12.7872 14.2 12.7372C14.75 12.7372 15.35 12.7372 16 12.6873C16.65 12.6873 17.25 12.6873 17.9 12.6873C19.6 12.6873 21.05 12.8871 22.2 13.3366C23.25 13.6863 24.2 14.2857 25 15.0849C25.65 15.7842 26.2 16.5834 26.5 17.5324C26.8 18.4315 27 19.3306 27 20.3296C27 22.1778 26.6 23.6763 25.75 24.8751C24.9 26.0739 23.75 26.973 22.4 27.4725C21 28.0219 19.4 28.2217 17.7 28.2217C17.2 28.2217 16.85 28.2217 16.65 28.2217C16.45 28.2217 16.15 28.2217 15.75 28.2217V35.0649C15.75 35.2147 15.65 35.3646 15.5 35.3646C15.5 35.3646 15.45 35.3646 15.4 35.3646H11.5C11.35 35.3146 11.25 35.2147 11.25 35.0149ZM15.8 16.933V24.1258C16.1 24.1258 16.35 24.1758 16.6 24.1758H17.7C18.5 24.1758 19.35 24.0259 20.1 23.7762C20.75 23.5764 21.35 23.1768 21.8 22.6273C22.25 22.0779 22.45 21.3786 22.45 20.4295C22.45 19.7802 22.3 19.1308 21.95 18.5314C21.6 17.982 21.1 17.5324 20.5 17.3326C19.75 17.0329 18.9 16.8831 18.05 16.8831C17.5 16.8831 17.05 16.8831 16.65 16.8831C16.25 16.933 15.95 16.933 15.8 16.933Z" fill="#38383A"/>
<path d="M40.0002 22.8271C39.3502 22.4775 38.7002 22.2777 38.0002 22.0779C37.2502 21.928 36.4502 21.7782 35.6502 21.7782C35.2502 21.7782 34.8002 21.8281 34.4002 21.928C34.1502 21.978 33.9002 22.1278 33.7502 22.3776C33.6502 22.5274 33.6002 22.7772 33.6002 22.927C33.6002 23.1268 33.7002 23.3266 33.8002 23.4765C34.0002 23.7262 34.2502 23.926 34.5002 24.0259C35.0002 24.2757 35.5002 24.5254 36.0002 24.7252C37.1502 25.1248 38.2002 25.6243 39.2002 26.2737C39.9002 26.7232 40.4502 27.3226 40.8502 28.0219C41.2002 28.7212 41.3502 29.4705 41.3502 30.2197C41.3502 31.2187 41.1002 32.2177 40.5502 33.0669C39.9502 33.916 39.1502 34.5654 38.2002 34.965C37.2002 35.4145 35.9502 35.6643 34.4502 35.6643C33.5002 35.6643 32.5502 35.5644 31.6002 35.3646C30.8502 35.2147 30.1502 35.0149 29.4502 34.6653C29.3002 34.5654 29.2002 34.4155 29.2002 34.2657V30.5694C29.2002 30.5194 29.2002 30.4195 29.3002 30.3696C29.4002 30.3196 29.4502 30.3696 29.5002 30.3696C30.3002 30.8691 31.1502 31.2187 32.1002 31.4185C32.9002 31.6183 33.7502 31.7182 34.5502 31.7182C35.3502 31.7182 35.9002 31.6183 36.3002 31.4185C36.6502 31.2687 36.8502 30.919 36.8502 30.5194C36.8502 30.2197 36.7002 29.97 36.3502 29.6703C36.0002 29.3706 35.3502 29.0709 34.3002 28.6713C33.2502 28.2717 32.2502 27.7722 31.3502 27.1228C30.7002 26.6733 30.1502 26.0239 29.7502 25.3246C29.4002 24.6253 29.2502 23.8761 29.2502 23.1768C29.2502 22.2777 29.5002 21.3786 29.9502 20.5794C30.4502 19.7302 31.2502 19.0309 32.1502 18.6313C33.1502 18.1318 34.3502 17.8821 35.8502 17.8821C36.7002 17.8821 37.6002 17.932 38.4502 18.0819C39.1002 18.1818 39.7002 18.3316 40.2502 18.5814C40.3502 18.5814 40.4002 18.6813 40.4502 18.7812C40.4502 18.8811 40.5002 18.931 40.5002 19.0309V22.5274C40.5002 22.6273 40.4502 22.6773 40.4002 22.7272C40.2002 22.8771 40.1002 22.8771 40.0002 22.8271Z" fill="#38383A"/>
</svg>
