<svg width="50" height="50" viewBox="0 0 50 50" fill="none" xmlns="http://www.w3.org/2000/svg">
<path d="M25.4001 4.84514C25.4501 5.09489 25.4501 5.39459 25.5001 5.64434C25.8001 5.49449 25.9001 5.24474 25.7501 4.84514C25.6001 4.49549 25.4501 4.24574 25.5001 3.84614C25.5001 3.69629 25.3001 3.54644 25.1501 3.39659C25.1001 3.34664 24.9501 3.39659 24.8501 3.39659C24.9501 3.59639 25.1501 3.79619 25.1501 3.94604C25.1501 4.09589 24.9501 4.24574 24.8501 4.44554C25.1501 4.39559 25.3501 4.49549 25.4001 4.84514Z" fill="#C4C4C4"/>
<path d="M23.5 6.49353C23.5 6.69333 23.5 6.74328 23.7 6.74328C24.55 6.74328 25.4 6.74328 26.25 6.74328C26.45 6.74328 26.5 6.64338 26.45 6.49353C25.45 6.49353 24.5 6.49353 23.5 6.49353Z" fill="#C4C4C4"/>
<path d="M25.3999 12.0379C25.1999 11.8881 25.0999 11.988 25.1499 12.2377C25.1499 12.4375 25.1999 12.6373 25.1999 12.8371C25.0999 13.7862 24.7499 14.6353 23.8999 15.3346C23.9999 15.3346 24.0499 15.3346 24.0999 15.3346C24.8499 15.0349 25.4499 14.5354 25.5999 13.6863C25.6999 13.2867 25.6499 12.8371 25.6499 12.4375C25.6499 12.2877 25.5499 12.1378 25.3999 12.0379Z" fill="#C4C4C4"/>
<path d="M28.1499 12.6873C28.1999 11.8382 28.2999 10.989 28.0499 10.1399C27.9499 9.74026 27.8499 9.69031 27.3999 9.69031C27.4999 9.99001 27.5999 10.2897 27.6499 10.5894C27.6999 11.2887 27.6999 11.988 27.6999 12.6873C27.6999 13.1868 27.7499 13.6364 27.7499 14.1359C27.7499 14.2358 27.8499 14.2857 27.8999 14.3856C27.9499 14.2857 27.9999 14.2358 27.9999 14.1359C28.0999 13.6364 28.0999 13.1868 28.1499 12.6873Z" fill="#C4C4C4"/>
<path d="M26.5501 6.19373C26.4501 6.09383 26.4501 5.99393 26.3501 5.99393C26.1001 5.94398 25.1501 6.09383 25.1001 6.19373C25.5501 6.19373 26.0001 6.19373 26.5501 6.19373Z" fill="#C4C4C4"/>
<path d="M23.2499 10.6893C22.5499 10.8391 21.8999 11.0889 21.1499 11.2887C21.4499 11.2887 21.6499 11.3386 21.8499 11.3386C22.3499 11.2387 22.7999 11.1388 23.2499 11.0389C23.6999 10.939 24.1499 10.8891 24.5999 11.0889C24.6999 11.1388 24.7999 11.0889 24.8999 11.0889C24.8999 11.0389 24.8999 10.989 24.8999 10.989C24.3999 10.7892 23.8499 10.5394 23.2499 10.6893Z" fill="#C4C4C4"/>
<path d="M18.6002 13.1369C19.0002 13.8362 19.3002 14.5854 19.3502 15.3846C19.4002 16.3836 19.0002 17.3826 17.7002 17.4326C17.6502 17.5824 17.6502 17.6823 17.8502 17.7323C18.5502 17.7822 19.3002 17.3826 19.6002 16.7333C20.0502 15.7343 19.9502 14.7353 19.5002 13.7862C19.2002 13.1369 18.7502 12.5375 18.3502 11.8881C17.7502 10.9391 16.9002 10.1898 16.0002 9.49053C15.9502 9.44058 15.8502 9.39062 15.7502 9.39062C15.7502 9.44058 15.7002 9.44058 15.7002 9.49053C15.8002 9.59043 15.9002 9.69033 16.0002 9.84018C16.9502 10.8392 17.9002 11.8881 18.6002 13.1369Z" fill="#C4C4C4"/>
<path d="M23.6 6.19384C24 6.19384 24.4 6.19384 24.9 6.19384C24.85 6.09394 24.8 6.04399 24.8 6.04399C24.4 5.99404 24 5.99404 23.6 5.94409C23.55 5.94409 23.5 5.99404 23.5 6.04399C23.55 6.09394 23.55 6.19384 23.6 6.19384Z" fill="#C4C4C4"/>
<path d="M24.5498 5.6943C24.2998 5.24475 24.5498 4.8951 24.6498 4.54545C24.6498 4.44555 24.5998 4.34565 24.4998 4.1958C24.0498 4.8951 23.9498 5.3946 24.5498 5.6943Z" fill="#C4C4C4"/>
<path d="M32.4002 17.6823C32.4002 17.5824 32.4002 17.5325 32.4002 17.4326C31.3502 17.4326 30.8502 16.7333 30.7502 15.8841C30.6502 15.035 30.9002 14.2358 31.3002 13.4865C32.0002 12.038 33.0502 10.8891 34.1502 9.7902C34.2502 9.6903 34.3502 9.5904 34.4002 9.4905C34.4002 9.44055 34.3502 9.44055 34.3502 9.44055C34.2502 9.4905 34.2002 9.4905 34.1002 9.54045C33.8502 9.74025 33.6002 9.94005 33.3502 10.1399C32.3502 10.989 31.6002 12.038 30.9502 13.1369C30.5002 13.8861 30.2002 14.6853 30.2002 15.5844C30.2502 16.9331 31.0502 17.8322 32.3002 17.7822C32.3502 17.7323 32.4002 17.7323 32.4002 17.6823Z" fill="#C4C4C4"/>
<path d="M32.8498 18.4316L32.8998 18.4815C33.3498 18.1818 33.7498 17.8821 34.1998 17.5325C34.8498 19.2308 33.9998 20.4795 32.7998 21.6284C32.9998 21.6284 33.0998 21.5285 33.2498 21.4785C34.4998 20.7792 35.3498 19.7802 35.3998 18.2318C35.3998 17.5824 35.3998 17.5824 34.7998 17.3826C34.7498 17.3826 34.7498 17.3826 34.6998 17.3327C34.1998 17.1329 34.0498 16.983 34.0498 16.3836C34.6998 16.7333 35.2998 17.0829 35.9998 17.4326C36.0498 16.7832 35.5998 16.4336 35.2498 16.034C35.4998 15.7842 35.6998 15.4845 35.6498 15.0849C35.3998 15.1848 35.1998 15.2847 34.9998 15.3846C34.7998 15.4845 34.5998 15.5844 34.3998 15.7343C34.3498 14.6354 33.8998 13.9361 33.0998 13.8362C33.2998 14.5355 33.5498 15.2847 33.7498 15.984L33.6998 16.034C33.4498 15.8841 33.1498 15.7343 32.8998 15.5844C32.7998 15.5345 32.7498 15.4845 32.6498 15.4845C32.2998 15.4346 31.6998 15.8841 31.5498 16.2338C32.2498 16.2338 32.9498 16.2338 33.6998 16.2338C33.3998 17.033 33.0998 17.7323 32.8498 18.4316Z" fill="#C4C4C4"/>
<path d="M18.2498 15.8342C17.8498 15.4845 17.5498 15.4845 17.0498 15.7343C16.8498 15.8342 16.5998 15.9341 16.3998 16.034L16.3498 15.984C16.5498 15.2847 16.7998 14.5854 16.9998 13.8362C16.5998 13.9361 16.3498 14.1359 16.0998 14.3856C15.6998 14.7353 15.6498 15.2348 15.7498 15.7842C15.2998 15.5345 14.8998 15.3347 14.4498 15.1349C14.3998 15.5844 14.5998 15.8342 14.8498 16.0839C14.0998 16.9331 14.0498 17.033 14.1498 17.4326C14.7998 17.0829 15.3998 16.7832 16.0498 16.3836C16.0498 16.9331 15.8498 17.2827 15.2998 17.3826C15.1498 17.3826 14.9998 17.4825 14.8498 17.5325C14.7998 17.5824 14.6998 17.6324 14.6998 17.6823C14.6498 18.3816 14.6998 19.1309 15.0498 19.7802C15.4998 20.6294 16.1998 21.1788 17.0498 21.6284C17.0998 21.6783 17.1998 21.6783 17.2998 21.6783L17.3498 21.6284C16.7498 21.1289 16.2498 20.5295 15.8998 19.8302C15.5998 19.0809 15.6498 18.2817 15.8998 17.5824C16.3498 17.8821 16.7498 18.2318 17.1998 18.5315C17.1998 18.4815 17.2498 18.4815 17.2498 18.4316C16.9498 17.7323 16.6998 17.033 16.3998 16.2837C17.1498 16.2837 17.8498 16.2837 18.6498 16.2837C18.4998 16.0839 18.3998 15.9341 18.2498 15.8342Z" fill="#C4C4C4"/>
<path d="M31.0002 42.8571C31.0002 42.957 30.9502 43.0569 30.9502 43.1069C30.9002 43.5065 30.7002 43.8062 30.3002 43.956C29.9502 44.0559 29.5502 44.1059 29.1502 43.9061C28.3502 43.5065 27.7502 42.8571 27.2002 42.1578C27.0002 41.9081 26.8502 41.6583 26.6502 41.4086C26.4002 42.008 26.4002 42.008 26.7502 42.4575C26.9002 42.6573 27.0502 42.8571 27.2002 43.0569C27.8502 43.8561 28.6002 44.5055 29.7002 44.5554C30.3002 44.6054 30.9502 44.2058 31.1002 43.6064C31.2002 43.3067 31.2002 43.007 31.0002 42.7572C31.0502 42.8571 31.0502 42.8571 31.0002 42.8571Z" fill="#C4C4C4"/>
<path d="M41.15 0H8.85C3.95 0 0 4.04595 0 9.09091V40.9091C0 45.9041 3.95 50 8.85 50H41.15C46.05 50 50 45.954 50 40.9091V9.09091C50 4.04595 46.05 0 41.15 0ZM44.45 17.0829C44.45 17.1329 44.45 17.1828 44.45 17.1828C43.7 17.4825 43 17.8322 42.2 18.032C41.25 18.2817 40.3 18.4815 39.35 18.5814C38.9 18.6314 38.4 18.3816 37.95 18.2817C37.95 18.2318 37.95 18.2318 37.95 18.1818C38.9 17.982 39.8 17.8322 40.75 17.6324C41.65 17.4825 42.6 17.3826 43.5 17.2328C43.5 17.1828 43.5 17.1329 43.5 17.0829C41.8 17.2328 40.05 17.4326 38.3 17.5824C38.55 17.2827 38.75 16.983 38.95 16.6833C39 16.6334 39.05 16.5834 39.15 16.5834C40.6 16.3836 42.05 16.2338 43.5 16.6833C43.85 16.8332 44.15 16.983 44.45 17.0829ZM29.2 32.0679C28.85 32.6673 28.75 33.3666 28.25 33.7662C28.05 33.1668 27.9 32.5175 27.6 31.968C27.25 31.2687 26.8 30.6693 26.35 30.02C26.15 29.7702 26 29.4705 26 29.1708C26.05 28.4715 26.05 27.7223 26.2 27.023C26.45 25.6743 27.8 25.1249 28.8 25.974C29.1 26.2238 29.35 26.6733 29.55 27.0729C29.8 27.5724 29.95 28.1219 30.25 28.6214C30.5 29.1209 30.85 29.5704 31.15 30.0699C31 30.0699 30.85 30.0699 30.75 30.02C30.4 29.8202 30.05 29.5704 29.7 29.3706C29.6 29.3207 29.5 29.2208 29.4 29.1708C28.85 29.0709 28.4 28.8212 28 28.4715C27.95 28.4216 27.9 28.4216 27.8 28.4715C27.85 28.5714 27.9 28.6713 28 28.7213C28.45 28.971 28.85 29.2208 29.3 29.5205C29.5 29.6204 29.65 29.7203 29.85 29.8202C30.2 30.02 30.55 30.2198 30.9 30.4196C31.1 30.5195 31.3 30.6693 31.5 30.8192C30.85 30.8691 30.4 30.3696 29.85 30.1199C29.3 29.8202 28.8 29.5205 28.2 29.2208C28.25 29.3706 28.3 29.4705 28.4 29.5205C28.75 29.9201 29.25 30.1199 29.75 30.3197C29.95 30.3696 30.1 30.5195 30.25 30.6194C30.55 30.8192 30.9 31.0689 31.25 31.2188C31.45 31.3187 31.65 31.3686 31.75 31.5684C31.85 31.7183 32 31.8681 32.2 32.0679C32.05 32.0679 31.95 32.1179 31.85 32.1179C31.45 32.018 31.05 31.8681 30.75 31.5185C30.6 31.3686 30.35 31.2687 30.15 31.1688C29.75 30.969 29.35 30.7692 29 30.5694C28.95 30.5195 28.9 30.4695 28.8 30.4695L28.75 30.5195C28.8 30.6194 28.85 30.7692 28.95 30.8192C29.35 31.0689 29.75 31.2687 30.15 31.5185C30.4 31.6683 30.6 31.8182 30.85 31.9181C31.15 32.0679 31.4 32.2677 31.7 32.4176C32.1 32.6673 32.5 32.8671 32.85 33.1169C31.85 33.3666 31 32.967 30.1 32.5674C30.1 32.7173 30.1 32.8172 30.1 32.9171C30.1 33.1668 30.1 33.3666 30.1 33.6164C30.05 34.3656 29.5 35.015 28.8 35.2148C28.75 34.9151 28.75 34.6154 28.75 34.3157C28.75 34.2158 28.8 34.1658 28.85 34.0659C29.2 33.5165 29.3 32.9171 29.35 32.2677C29.3 32.2178 29.25 32.1678 29.2 32.0679ZM25.75 37.1628C25.55 37.7123 25.35 38.2118 25.15 38.8112C25 38.4116 24.85 38.0619 24.75 37.7622C24.5 37.0629 24.2 36.3137 23.95 35.5644C23.9 35.3646 23.85 35.1149 23.85 34.8651C23.85 34.6653 23.85 34.4655 23.8 34.2657C23.45 34.8152 23.05 35.2148 22.3 35.2148C22.4 35.0649 22.5 34.9151 22.55 34.8152C22.8 34.2657 23.05 33.7163 23.35 33.1668C23.6 32.6673 23.85 32.2178 24.1 31.7183C24.45 32.3177 24.75 32.8671 25.1 33.4166C25.15 33.4166 25.15 33.4166 25.2 33.4166C25.5 32.8671 25.8 32.3177 26.15 31.7183C26.35 32.1179 26.65 32.4675 26.8 32.8671C27.05 33.6164 27.35 34.3157 27.8 34.965C27.85 35.015 27.85 35.0649 27.9 35.1648C27.2 35.1648 26.8 34.7652 26.45 34.1159C26.4 34.2657 26.35 34.3157 26.35 34.3656C26.5 35.4146 26.05 36.2637 25.75 37.1628ZM25.15 43.2567C24.55 42.4076 24.15 39.1608 24.55 38.2617C24.7 38.6613 24.9 39.0609 25.05 39.4605C25.1 39.4605 25.1 39.4605 25.15 39.4605C25.3 39.0609 25.5 38.6613 25.7 38.1618C25.95 40.01 25.75 41.6583 25.15 43.2567ZM20.8 32.3177C20.9 32.9171 21 33.5165 21.35 34.016C21.45 34.1658 21.4 34.3656 21.4 34.5654C21.4 34.7153 21.4 34.9151 21.4 35.1149C20.85 34.8651 20.35 34.6154 20.2 34.0659C20.05 33.5664 20.05 33.0669 19.95 32.4675C19.1 32.8172 18.25 33.2168 17.25 32.967C17.6 32.7672 17.95 32.4675 18.3 32.3177C18.7 32.1179 19.1 31.968 19.45 31.6184C19.55 31.5185 19.7 31.4685 19.8 31.4186C20.2 31.2188 20.6 31.019 20.95 30.8192C21.1 30.7193 21.2 30.5694 21.35 30.4196C21.35 30.3696 21.3 30.3696 21.3 30.3197C21.25 30.3197 21.15 30.3197 21.1 30.3696C20.75 30.7193 20.25 30.8691 19.8 31.019C19.65 31.0689 19.45 31.1688 19.35 31.3187C19.05 31.6683 18.65 31.8182 18.2 31.9181C18.1 31.9181 18 31.9181 17.85 31.8681C18.25 31.5185 18.5 31.0689 19 30.9191C19.3 30.8192 19.55 30.5694 19.8 30.4196C19.95 30.3197 20.1 30.2198 20.25 30.1698C20.75 29.97 21.2 29.7702 21.55 29.4206C21.65 29.3207 21.7 29.2208 21.75 29.0709C21.7 29.0709 21.6 29.0709 21.6 29.1209C21.2 29.5205 20.7 29.7702 20.15 29.97C19.8 30.0699 19.5 30.3696 19.15 30.5694C18.95 30.6693 18.75 30.7193 18.55 30.7692C18.55 30.7193 18.5 30.6693 18.5 30.6194C18.7 30.5195 18.85 30.3197 19.05 30.2697C19.5 30.1199 19.85 29.8701 20.2 29.6204C20.45 29.3706 20.85 29.3207 21.15 29.1209C21.45 28.9211 21.75 28.7213 22.05 28.4715C22.1 28.4216 22.15 28.3716 22.25 28.2218C22.1 28.2717 22.05 28.2717 22 28.3217C21.65 28.6713 21.2 28.8711 20.7 29.021C20.55 29.0709 20.4 29.2208 20.2 29.3207C19.9 29.5205 19.55 29.7203 19.25 29.9201C19.15 29.97 19 29.9201 18.75 29.97C18.95 29.7702 19.15 29.6204 19.25 29.4206C19.55 28.9211 19.8 28.4216 20.05 27.972C20.3 27.4226 20.5 26.8731 20.8 26.3736C21.25 25.5245 22.1 25.5245 22.85 25.7243C23.6 25.9241 23.95 26.4236 23.95 27.2228C23.95 27.9221 24 28.5714 24 29.2707C24 29.5704 23.75 29.8202 23.6 30.0699C23.3 30.5694 22.95 31.019 22.65 31.5185C22.25 32.1678 22 32.8671 21.9 33.6164C21.9 33.6663 21.9 33.7662 21.85 33.8661C21.3 33.3666 21.15 32.7173 20.85 32.1179C20.8 32.1179 20.8 32.1179 20.75 32.1179C20.8 32.1179 20.8 32.2178 20.8 32.3177ZM10.6 19.1808C10.9 18.8312 11.3 18.6813 11.65 18.5814C12.25 18.4316 12.85 18.3816 13.5 18.3317C13.65 18.3317 13.8 18.4815 13.9 18.5814C14 18.6813 13.85 18.8811 13.65 18.8811C13.1 18.9311 12.55 18.981 12.05 18.981C11.75 18.981 11.5 19.031 11.2 19.031C11.15 19.031 11.1 19.0809 11.05 19.0809C11.05 19.1309 11.05 19.1309 11.05 19.1808C11.9 19.1808 12.8 19.1808 13.7 19.1808C13.7 19.4805 13.7 19.7303 13.7 19.98C12.55 20.2797 11.6 19.7303 10.6 19.1808ZM11 19.8801C9.25 19.8302 7.55 19.9301 6 18.981C6.7 18.9311 7.4 18.9311 8.1 18.8811C8.8 18.8811 9.5 18.8811 10.2 18.9311C10.2 19.4805 10.75 19.5305 11 19.8801ZM15.95 13.5365C15.75 13.7363 15.6 13.986 15.4 14.1858C14.85 13.7363 14.75 12.6873 15.1 11.7882C15.75 11.8881 16.8 12.7872 16.85 13.3367C16.35 13.4865 16.3 13.4366 16 13.037C15.75 12.7373 15.55 12.3876 15.3 12.0879C15.25 12.0879 15.25 12.1379 15.2 12.1379C15.45 12.5874 15.7 13.037 15.95 13.5365ZM14.85 11.6883C14.75 11.8881 14.65 12.1379 14.55 12.3876C13.25 11.1888 12.3 9.74026 11.55 8.14186C12 8.59141 12.5 9.09091 12.95 9.54046C13.55 10.1399 14.15 10.7393 14.75 11.2887C14.95 11.4386 14.95 11.4885 14.85 11.6883ZM14.85 14.1858C14.65 14.2857 14.45 14.3856 14.2 14.4855C14.15 14.4855 14.05 14.4356 13.95 14.3856C13.6 14.1858 13.3 13.9361 12.95 13.6863C12.9 13.6364 12.8 13.5864 12.7 13.5864L12.65 13.6364C13 13.9361 13.3 14.2857 13.65 14.5355C13.8 14.6853 13.9 14.7852 13.8 14.985C13.75 15.1349 13.75 15.2847 13.75 15.4845C13.15 15.2348 12.45 14.0859 12.5 13.3866C13.1 13.2867 14.6 13.7363 14.85 14.1858ZM14 16.0839C13.85 16.2338 13.75 16.4336 13.6 16.5834C13.55 16.6334 13.4 16.6334 13.35 16.6334C12.85 16.4835 12.3 16.3337 11.8 16.2338C11.7 16.2338 11.65 16.1838 11.55 16.1838C11.55 16.2338 11.55 16.2338 11.5 16.2837C11.65 16.3337 11.75 16.4336 11.9 16.4835C12.35 16.6833 12.8 16.8332 13.25 17.033C13.35 17.0829 13.4 17.1828 13.45 17.2827C13.5 17.4825 13.5 17.7323 13.5 17.9321C12.75 18.2318 11.7 17.2827 11.2 16.1838C11.5 15.7343 13.1 15.5345 14 16.0839ZM12.6 20.5794C12.9 20.4296 13.3 20.3796 13.7 20.2797C13.75 20.2797 13.85 20.3297 13.9 20.3796C14.05 20.5794 14.15 20.7792 14.3 20.979C13.35 21.5285 12.4 22.0779 11.45 22.6274C11.45 22.6773 11.5 22.7273 11.5 22.7273C12.5 22.2278 13.5 21.7283 14.5 21.1788C14.6 21.3786 14.7 21.5285 14.8 21.6783C15 21.978 14.95 22.028 14.65 22.2278C14 22.5774 13.35 22.8272 12.65 22.8771C12.25 22.9271 11.85 22.8771 11.4 22.8771C11.2 22.8771 11.15 22.7273 11.2 22.5774C11.35 21.7283 11.8 21.029 12.6 20.5794ZM15.05 22.5774C15.15 22.4276 15.25 22.3776 15.4 22.5275C15.5 22.6274 15.65 22.6773 15.75 22.7772C15.2 23.4765 14.65 24.2258 14.1 24.9251L14.15 24.975C14.2 24.9251 14.3 24.8751 14.35 24.8252C14.9 24.2258 15.5 23.6264 16.05 23.027C16.2 22.8771 16.3 22.8771 16.35 23.0769C16.35 23.1269 16.4 23.1768 16.4 23.2268C16.65 23.6763 16.65 23.7762 16.3 24.1259C15.65 24.8252 14.8 25.2248 13.8 25.4246C13.85 25.1249 13.85 24.8751 13.95 24.5754C14.2 23.8262 14.55 23.1768 15.05 22.5774ZM15.55 25.025C15.45 27.4725 15.45 29.8701 14.7 32.2178C14.75 32.2178 14.75 32.2178 14.8 32.2677C14.85 32.1678 14.9 32.1179 14.95 32.018C15.7 29.7203 16.25 27.4226 16.05 24.975C16 24.5754 16.35 24.4755 16.55 24.1758C16.55 24.3257 16.6 24.4256 16.6 24.4755C16.65 25.3746 16.7 26.2737 17.1 27.1229C17.15 27.2727 17.1 27.4725 17.1 27.6224C16.75 29.4705 16.2 31.2687 15.2 32.8671C14.95 33.2168 14.7 33.6164 14.4 33.966C14.4 33.8661 14.35 33.7662 14.35 33.6663C14.15 31.8182 14.15 29.97 14.3 28.1219C14.35 27.3227 14.6 26.5235 14.75 25.7243C14.8 25.3247 15.1 25.1249 15.55 25.025ZM17.05 23.8761C17.25 23.9261 17.5 23.976 17.7 24.026C17.6 24.8751 17.5 25.6743 17.35 26.5235C17.4 26.5235 17.45 26.5235 17.45 26.5734C17.5 26.4735 17.55 26.3237 17.55 26.2238C17.7 25.5744 17.85 24.8751 18 24.2258C18.05 24.0759 18.05 23.8761 18.25 23.9261C18.45 23.976 18.7 24.1758 18.7 24.2757C18.7 25.2747 18.4 26.1738 17.7 26.8731C17.65 26.9231 17.6 26.973 17.55 26.973C17.5 27.023 17.45 27.023 17.35 27.0729C16.85 26.4236 16.65 24.7253 17.05 23.8761ZM18.85 28.3217C19.15 27.023 19.2 25.6743 19.35 24.3756C19.65 24.3257 19.95 24.3756 20.25 24.2757C20.65 24.1259 20.85 24.2258 21.15 24.4755C21.3 24.6254 21.6 24.6254 21.85 24.6753C21.95 24.6753 22.05 24.6753 22.25 24.6753C21.95 24.975 21.65 25.025 21.4 25.025C21 24.975 20.55 24.8751 20.15 24.7752C20.05 24.7752 19.95 24.7253 19.85 24.6753C19.85 24.7752 19.8 24.8751 19.85 24.975C20 26.1239 19.95 27.2727 19.3 28.3217C19.25 28.3716 19.2 28.4715 19.15 28.5215C19.05 28.6214 19 28.7213 18.85 28.8711C18.65 28.4216 18.5 28.022 18.35 27.6224C18.2 27.1229 18.1 26.6234 18.45 26.1239C18.8 25.6244 18.9 25.025 18.95 24.4755C18.95 24.4256 18.95 24.3756 19 24.3257C19 24.3257 19 24.2757 19.1 24.2258C19.15 24.3756 19.2 24.4755 19.2 24.5754C19.15 25.4246 19.05 26.2238 18.95 27.0729C18.9 27.4226 18.9 27.8222 18.85 28.1718C18.8 28.1718 18.8 28.2717 18.85 28.3217ZM27.2 19.7802C27.45 20.1299 27.75 20.4296 27.95 20.7792C28.05 20.9291 28 21.2288 28 21.4785C28.05 21.4785 28.15 21.4785 28.25 21.4785C28.25 21.9281 28.1 22.2777 27.85 22.6274C26.7 21.6783 26.5 20.8791 27.2 19.7802ZM27.35 17.9321C27.7 18.3317 28.05 18.5814 28.55 18.6314C28.6 18.6314 28.65 18.6813 28.65 18.7313C28.75 18.981 28.85 19.1808 28.85 19.4306C28.9 20.03 28.65 20.4795 28.45 21.029C28.05 20.5295 27.7 20.1299 27.35 19.6803C27.1 19.2807 27.1 18.5814 27.35 17.9321ZM31 24.9251C31 24.7752 30.95 24.6254 31 24.4755C31 24.3756 31.05 24.3257 31.1 24.2757H31.15C31.2 24.4755 31.2 24.6753 31.25 24.8751C31.4 25.3746 31.6 25.9241 31.8 26.3736C31.95 26.6733 32 26.8731 31.95 27.1728C31.8 27.7722 31.65 28.3716 31.25 28.8711C30.65 28.2218 30.3 27.4725 30.25 26.5734C30.25 26.024 30.3 25.4745 30.3 24.9251C30.3 24.8252 30.3 24.7253 30.25 24.6753C30.15 24.6753 30.05 24.7253 30 24.7253C29.5 24.975 28.95 25.1249 28.4 24.975C28.25 24.9251 28.05 24.8751 27.9 24.7752C27.9 24.7253 27.9 24.7253 27.9 24.6753C28 24.6753 28.1 24.6753 28.2 24.6753C28.55 24.7253 28.9 24.5754 29.15 24.3257C29.3 24.1758 29.45 24.1259 29.65 24.2258C29.9 24.3257 30.2 24.3257 30.5 24.3257C30.7 24.3257 30.75 24.3756 30.8 24.5754C30.9 25.7243 31.05 26.8731 31.15 28.022C31.15 28.1219 31.2 28.2218 31.2 28.3217C31.25 28.3217 31.25 28.3217 31.3 28.3217C31.3 28.2218 31.35 28.1219 31.35 28.022C31.2 27.023 31.05 25.974 31 24.9251ZM32.7 30.6194C32.7 30.6693 32.7 30.7692 32.75 30.8192C32.75 30.8192 32.75 30.8691 32.7 30.9191C32.25 30.2697 31.85 29.5704 31.75 28.8212C31.7 28.6214 31.75 28.4216 31.8 28.2717C31.9 27.8222 32.05 27.3726 32.15 26.8731C32.4 27.0729 32.65 27.2228 32.6 27.6224C32.4 28.6713 32.55 29.6703 32.7 30.6194ZM25.8 31.0689C25.85 31.7682 25.55 32.2677 25.15 32.8172C24.75 32.3177 24.45 31.8182 24.45 31.1189C24.45 29.9201 24.45 28.7712 24.4 27.5724C24.35 27.023 24.15 26.5235 24.05 25.974C24.75 25.6743 25.5 25.6743 26.3 25.974C26.2 26.3237 26 26.7233 25.95 27.0729C25.85 28.1219 25.85 29.1708 25.8 30.1698C25.8 30.5195 25.75 30.8192 25.8 31.0689ZM25.05 25.4246C25 25.3746 24.8 25.4246 24.7 25.4745C24.05 25.7742 23.45 25.7243 22.8 25.3746C22.7 25.3247 22.65 25.2248 22.6 25.1748C22.95 25.0749 23.25 24.9251 23.55 24.8252C23.6 24.8252 23.7 24.8252 23.75 24.8751C24.5 25.2248 25.25 25.2248 26 24.9251C26.15 24.8751 26.3 24.8751 26.45 24.9251C26.75 25.025 27.1 25.0749 27.5 25.1249C27.35 25.2248 27.25 25.3746 27.1 25.4745C26.45 25.8242 25.75 25.8741 25.05 25.4246ZM24.1 21.2288C24.15 21.0789 24.15 20.9291 24.25 20.8292C24.5 20.5794 24.85 20.3297 25.1 20.1299C25.3 20.3297 25.55 20.5295 25.75 20.7293C25.9 20.8791 26 21.029 25.9 21.2787C25.85 21.3287 25.9 21.4286 25.95 21.5285C26.1 21.3786 26.3 21.2787 26.45 21.1289C26.55 21.3287 26.6 21.5784 26.7 21.7782C26.3 22.0779 25.55 22.0779 25.1 21.7782C24.95 21.6783 24.85 21.6783 24.7 21.7782C24.2 22.0779 23.7 22.1279 23.15 21.9281C22.95 21.8282 22.85 21.7283 23 21.4785C23.15 21.2787 23.2 21.0789 23.35 20.8292C23.55 21.0789 23.8 21.2787 24 21.5285C24 21.5285 24.05 21.5285 24.05 21.4785C24.1 21.3786 24.05 21.2787 24.1 21.2288ZM24.85 22.028C24.95 21.978 25.05 21.978 25.15 22.028C25.65 22.2777 26.15 22.3277 26.7 22.1279C26.8 22.0779 26.95 22.1279 27.05 22.1778C27.25 22.2777 27.4 22.4775 27.6 22.6773C26.95 22.8272 26.4 22.8771 25.85 22.5774C25.8 22.5275 25.65 22.5774 25.6 22.6274C25.05 22.8771 24.5 22.8771 23.95 22.5774C23.85 22.5275 23.7 22.5275 23.6 22.5774C23.1 22.8771 22.45 22.8771 21.95 22.5774C22.2 22.2777 22.45 22.028 22.7 21.7283C23.4 22.3277 24.1 22.3776 24.85 22.028ZM23.5 23.0769C23.55 22.9271 23.9 22.7772 24.05 22.8771C24.6 23.1768 25.15 23.1768 25.75 22.9271C26 22.8272 26.2 22.9271 26.3 23.2268C26.35 23.4266 26.45 23.5764 26.55 23.7762C26.05 23.976 25.6 23.9261 25.1 23.6763C24.95 23.5764 24.85 23.5764 24.7 23.6763C24.25 23.9261 23.75 24.026 23.25 23.8262C23.35 23.5764 23.45 23.3267 23.5 23.0769ZM24.8 24.026C24.95 23.9261 25.1 23.9261 25.25 24.026C25.7 24.2258 26.2 24.2757 26.7 24.0759C26.8 24.026 27 24.0759 27.05 24.1259C27.2 24.2757 27.35 24.4755 27.5 24.6753C27.05 24.8252 26.7 24.7752 26.35 24.5754C26.25 24.5255 26.1 24.5255 26.05 24.5255C25.25 24.8252 24.45 24.8252 23.65 24.4755C23.55 24.4256 23.4 24.4755 23.3 24.5255C23.05 24.6753 22.8 24.8252 22.45 24.6753C22.65 24.4256 22.8 24.2258 22.95 23.976C23 23.9261 23.1 23.9261 23.15 23.976C23.7 24.3257 24.25 24.2757 24.8 24.026ZM26.6 23.1768C27.05 23.1269 27.45 23.0769 27.8 23.027C27.95 23.5265 27.85 23.976 27.6 24.5255C27.25 24.026 26.95 23.6264 26.6 23.1768ZM26.15 20.9291C25.25 20.1798 25.3 19.3307 25.8 18.3816C25.85 18.5814 25.9 18.7812 26 18.9311C26.2 19.2807 26.4 19.3307 26.65 19.031C26.7 18.981 26.75 18.8811 26.8 18.8312C27.05 19.4306 26.65 20.5295 26.15 20.9291ZM25.65 17.982C25.35 19.1309 24.9 20.1798 23.9 20.8791C23.15 20.1798 23.15 19.1808 23.95 18.7313C24.15 19.031 24.35 18.9311 24.5 18.7313C24.85 18.3816 25.2 17.982 25.55 17.5824C25.6 17.7323 25.7 17.8821 25.65 17.982ZM23.25 18.9311C22.65 19.4306 22.05 19.8801 21.4 20.3796C21 19.8801 21.15 19.4306 21.2 18.9311C21.25 18.5814 21.45 18.3317 21.85 18.2318C22.2 18.1319 22.55 17.982 22.85 17.7822C23.15 17.5824 23.45 17.3327 23.75 17.1329C23.8 17.8322 23.85 18.4815 23.25 18.9311ZM21.2 20.7792C21.85 20.3297 22.45 19.8801 23.05 19.4306C23.25 20.2797 23.2 21.029 22.4 21.5784C22.1 21.7782 21.9 22.0779 21.65 22.3277C21.35 21.8781 21.05 21.3287 21.2 20.7792ZM23.2 23.1768C23 23.5764 22.75 23.976 22.5 24.3756C22.1 23.9261 21.95 23.4765 21.95 22.9271C22.4 23.027 22.8 23.0769 23.2 23.1768ZM17.5 27.7223C17.45 27.2228 17.45 27.2228 17.95 26.9231C18.1 27.4725 18.25 27.972 18.35 28.5215C18.4 28.6713 18.35 28.8711 18.3 29.0709C18.15 29.7203 17.8 30.3197 17.35 30.8691C17.4 30.4695 17.5 30.0699 17.5 29.6703C17.55 28.971 17.5 28.3716 17.5 27.7223ZM32.7 27.023C32.3 26.9231 32.1 26.6234 31.9 26.2737C31.55 25.6743 31.35 25.0749 31.3 24.3756C31.3 24.1259 31.55 23.8262 31.8 23.8761C31.9 23.8761 32 24.026 32 24.1259C32.15 24.8252 32.3 25.5245 32.45 26.1738C32.5 26.2737 32.5 26.4236 32.55 26.5235C32.6 26.5235 32.65 26.5235 32.65 26.5235C32.55 25.6743 32.45 24.8751 32.3 24.026C32.5 23.976 32.7 23.9261 32.9 23.8761C33.4 24.5754 33.25 26.3237 32.7 27.023ZM32.95 27.1229C33.35 26.2737 33.45 25.4246 33.45 24.4755C33.45 24.4256 33.45 24.3257 33.45 24.2258C33.85 24.4755 34 24.7752 34 25.2747C33.85 26.973 34.15 28.6214 34.6 30.2697C34.75 30.8691 34.95 31.4186 35.1 32.018C35.15 32.1179 35.2 32.2178 35.3 32.3177C35 31.1688 34.8 29.97 34.7 28.7712C34.6 27.5724 34.55 26.3736 34.5 25.1249C34.9 25.2248 35.2 25.3746 35.3 25.7742C35.65 26.8731 35.8 27.972 35.85 29.1209C35.95 30.7692 35.9 32.4176 35.7 34.1159C35.6 34.016 35.55 33.966 35.5 33.9161C34.5 32.5175 33.75 31.019 33.35 29.3207C33.2 28.7712 33.1 28.1718 32.95 27.6224C32.95 27.3726 32.9 27.2228 32.95 27.1229ZM33.5 23.8761C33.35 23.6763 33.35 23.5265 33.5 23.3267C33.8 22.9271 33.8 22.8771 34.15 23.2767C34.65 23.7762 35.15 24.3257 35.6 24.8252C35.65 24.8751 35.75 24.975 35.8 25.025C35.85 24.975 35.85 24.975 35.9 24.9251C35.35 24.2258 34.8 23.5265 34.25 22.7772C34.35 22.7273 34.4 22.6773 34.5 22.6274C34.85 22.3776 34.9 22.3776 35.15 22.7273C35.6 23.3766 36 24.0759 36.15 24.8751C36.2 25.025 36.2 25.1748 36.2 25.3746C35.1 25.1748 34.2 24.7253 33.5 23.8761ZM35.3 21.7283C35.4 21.5784 35.5 21.4286 35.55 21.2288C35.55 21.2288 35.55 21.2288 35.6 21.1788C36.6 21.6783 37.6 22.1778 38.55 22.6773C38.55 22.6274 38.6 22.6274 38.6 22.5774C37.7 21.9281 36.7 21.5285 35.8 20.9291C35.95 20.7293 36.05 20.4795 36.2 20.3297C36.25 20.2797 36.35 20.2797 36.45 20.2797C37.9 20.4296 38.7 21.5285 38.9 22.6274C38.95 22.8272 38.85 22.8771 38.7 22.9271C38 23.0769 37.35 22.9271 36.7 22.7772C36.25 22.6773 35.85 22.4775 35.45 22.2777C35.15 22.1279 35.15 22.028 35.3 21.7283ZM36.65 20.0799C36.4 20.03 36.3 19.98 36.35 19.6803C36.35 19.5305 36.35 19.4306 36.35 19.2308C37.25 19.2308 38.1 19.2308 39 19.2308C39 19.1808 39 19.1309 39 19.1309C38.5 19.0809 38 19.031 37.5 18.981C37.15 18.9311 36.85 18.9311 36.5 18.9311C36.3 18.9311 36.1 18.9311 36.15 18.6813C36.2 18.5315 36.4 18.3317 36.55 18.3317C37.25 18.2817 37.9 18.3816 38.55 18.6314C38.85 18.7812 39.15 18.9311 39.5 19.1309C38.55 19.6803 37.7 20.1798 36.65 20.0799ZM34.8 12.0879C34.7 12.1878 34.65 12.2378 34.55 12.3377C34.4 12.5375 34.2 12.7872 34.05 13.037C33.85 13.4865 33.5 13.4366 33.15 13.3367C33.2 13.2368 33.2 13.1369 33.25 13.037C33.6 12.4875 34.1 12.0879 34.75 11.7882C34.9 11.6883 35 11.7383 35.05 11.9381C35.25 12.6873 35.3 13.4366 34.75 14.1359L34.7 14.1858C34.55 13.986 34.35 13.7363 34.15 13.4865C34.35 13.037 34.6 12.5874 34.85 12.0879C34.85 12.1379 34.8 12.0879 34.8 12.0879ZM35.15 11.5385C35.15 11.4885 35.15 11.3886 35.2 11.3886C36.3 10.2897 37.35 9.24076 38.45 8.14186C38.45 8.14186 38.45 8.14186 38.5 8.14186C37.75 9.74026 36.8 11.1389 35.5 12.3876C35.35 12.0879 35.25 11.8382 35.15 11.5385ZM37.6 13.3866C37.45 14.2857 37.05 14.985 36.35 15.5844C36.3 15.3347 36.25 15.0849 36.2 14.8352C36.2 14.7852 36.25 14.6853 36.3 14.6853C36.6 14.3856 36.95 14.0859 37.25 13.7862C37.3 13.7363 37.3 13.6863 37.3 13.5864C37.25 13.6364 37.15 13.6364 37.1 13.6863C36.75 13.9361 36.4 14.1359 36.05 14.3856C35.95 14.4356 35.85 14.4356 35.75 14.4356C35.55 14.3856 35.4 14.2857 35.15 14.1858C35.85 13.5365 36.7 13.4366 37.6 13.3866ZM38.9 16.0839C38.6 16.8831 37.5 18.1319 36.6 17.8821C36.6 17.6324 36.6 17.3826 36.65 17.1329C36.65 17.0829 36.75 16.983 36.85 16.983C37.3 16.7832 37.75 16.6334 38.2 16.4835C38.35 16.4336 38.45 16.3337 38.6 16.2837C38.6 16.2338 38.6 16.2338 38.55 16.1838C38.45 16.1838 38.35 16.1838 38.3 16.2338C37.8 16.3836 37.3 16.4835 36.8 16.6334C36.6 16.6833 36.5 16.6334 36.35 16.4835C36.25 16.3337 36.15 16.2338 36.05 16.1339C36.7 15.6344 38.15 15.6344 38.9 16.0839ZM39.55 19.4805C39.7 19.3806 39.95 19.2807 39.8 18.981C40.55 18.8811 41.25 18.7812 41.95 18.8811C42.65 18.9311 43.35 18.8811 44.1 18.8811C43.55 19.5804 40.4 20.1299 39 19.8302C39.25 19.6803 39.4 19.5804 39.55 19.4805ZM43.5 14.6853C42.7 15.5345 41.75 15.984 40.6 16.0839C40.2 16.1339 39.8 16.1339 39.4 16.1339C39.35 16.1339 39.3 16.0839 39.2 16.034C39.25 15.984 39.3 15.9341 39.35 15.8841C40 15.6344 40.65 15.3347 41.25 15.0849C41.35 15.035 41.5 15.035 41.6 15.035C42.15 14.985 42.65 14.9351 43.15 14.6853C43.3 14.7353 43.4 14.7353 43.5 14.6853ZM42.85 12.9371C42.65 13.5864 42.25 14.036 41.75 14.3856C40.95 14.985 40 15.3846 39.1 15.7343C39.05 15.7343 39 15.7842 38.95 15.7842C38.5 15.6843 38.1 15.5844 37.6 15.4845C39.2 14.7353 40.75 14.036 42.35 13.2867C42.35 13.2368 42.3 13.1868 42.3 13.1369C40.55 13.7862 38.8 14.6354 37.05 15.3846C37.15 15.035 38 14.3856 39 13.8362C40.15 13.1868 41.4 12.7872 42.85 12.9371ZM41.3 11.039C41.1 11.5385 40.8 11.9381 40.45 12.2378C39.5 13.037 38.5 13.8362 37.55 14.6354C37.5 14.5854 37.45 14.5854 37.45 14.5355C37.6 14.2857 37.65 13.986 37.85 13.7862C38.55 12.987 39.35 12.2378 40.35 11.7383C40.65 11.5884 40.95 11.3387 41.3 11.039ZM40 10.3896C39.5 11.3886 38.85 12.2877 38.05 13.037C38 13.0869 37.85 13.1868 37.8 13.1868C37.2 13.0869 36.6 13.2368 36 13.3866C37.3 12.1878 38.6 10.9391 39.9 9.74026C39.85 9.69031 39.85 9.69031 39.8 9.64036C38.35 10.7892 37 12.038 35.55 13.2867C35.5 12.9371 35.45 12.6374 35.75 12.3876C36.8 11.4885 37.8 10.5894 38.85 9.69031C39.25 9.34066 39.7 9.09091 40.3 9.09091C40.35 9.54046 40.2 9.99001 40 10.3896ZM29.4 19.7802C29.9 19.6304 30.4 19.4805 30.9 19.2807C31.45 19.031 31.7 18.4815 31.5 17.8821C31.5 17.8322 31.4 17.7323 31.3 17.7323C30.4 17.5824 29.75 16.983 29.6 16.0839C29.4 15.0849 29.65 14.1858 30.1 13.3367C31.15 11.4386 32.6 9.89011 34.55 8.79121C35.7 8.14186 36.95 7.79221 38.25 7.54246C38.45 7.49251 38.65 7.44256 38.9 7.49251C38.65 7.69231 38.45 7.89211 38.2 8.14186C36.8 9.44056 35.4 10.6893 34.05 11.988C33.8 12.2378 33.5 12.4376 33.3 12.7373C33.05 13.1868 32.75 13.5864 32.35 13.9361C32.2 14.0859 32.2 14.3357 32.15 14.5854C32.1 14.7852 32.15 14.985 32.15 15.2348C31.5 15.2847 31.05 15.5844 31.05 16.2837C31.05 16.7832 31.3 17.1329 31.9 17.2328C32.15 17.2827 32.4 17.5325 32.65 17.1329C32.35 17.0829 32.1 17.033 31.85 16.983C31.45 16.8831 31.25 16.6334 31.25 16.2338C31.25 15.8342 31.5 15.4845 31.9 15.3846C31.95 15.3846 32 15.3347 32.05 15.3347C32.3 15.3347 32.35 15.2348 32.35 15.035C32.35 14.8851 32.35 14.6853 32.35 14.5355C32.4 13.986 32.65 13.6863 33.1 13.5864C33.55 13.4865 34.05 13.7363 34.25 14.1858C34.35 14.3856 34.4 14.5854 34.45 14.7852C34.55 14.7353 34.7 14.6853 34.8 14.6354C35.2 14.4855 35.55 14.5854 35.8 14.8851C36.05 15.1848 36.1 15.5345 35.85 15.8841C35.65 16.1838 35.7 16.3337 35.95 16.5335C36.5 17.033 36.45 17.982 35.9 18.4815C35.75 18.5814 35.75 18.6813 35.8 18.8811C36.05 19.4306 36.1 19.98 35.8 20.5295C35.75 20.6294 35.65 20.7792 35.5 20.8791C35.2 21.029 35.05 21.2787 35 21.5784C34.9 22.1279 34.5 22.3776 34 22.4276C33.7 22.4775 33.5 22.6773 33.4 22.9271C33.25 23.4765 33 23.6763 32.5 23.5764C32.05 23.4765 31.7 23.5764 31.35 23.7762C30.8 24.026 30.2 24.0759 29.65 23.7762C29.4 23.6763 29.3 23.8262 29.2 23.9261C28.95 24.1758 28.7 24.3257 28.35 24.2757C28.3 24.2757 28.3 24.2757 28.3 24.2757C28.3 23.7762 28.3 23.2767 28.3 22.8272C28.3 22.7273 28.35 22.6274 28.35 22.5275C28.7 21.6783 29.05 20.8292 29.15 19.9301C29.2 19.8801 29.3 19.7802 29.4 19.7802ZM29.1 17.5824C29.05 17.8821 28.9 18.1818 28.65 18.3317C28.55 18.3816 28.45 18.4316 28.35 18.3816C27.75 18.2318 27.55 17.7323 27.35 17.2827C27.25 17.0829 27.25 16.8831 27.15 16.6833C27.1 16.6833 27.05 16.6833 27.05 16.6833C27 16.983 27 17.2827 26.95 17.5824C26.85 17.9321 26.75 18.2817 26.65 18.6813C26.6 18.7812 26.5 18.8312 26.4 18.981C25.9 18.2318 25.9 17.3826 25.7 16.5335C25.45 17.4326 25 18.1818 24.15 18.6813C23.95 17.8322 24.1 17.033 24.25 16.1339C24.15 16.2338 24.1 16.2338 24.1 16.2837C23.65 17.1329 22.8 17.5325 22 17.9321C21.95 17.982 21.85 17.982 21.8 17.982C21.4 18.0819 21.3 17.982 21.35 17.5325C22.2 17.4825 22.6 16.8332 23.1 16.2338C23.3 16.034 23.45 15.8342 23.6 15.5844C23.65 15.4845 23.65 15.3347 23.7 15.2348C23.75 15.1349 23.75 15.035 23.8 14.985C24 14.6853 24.25 14.4356 24.45 14.1858C24.95 13.3866 25.2 12.5874 24.7 11.6384C24.95 11.6883 25.15 11.7383 25.3 11.7882C25.7 11.8881 25.9 11.7383 25.8 11.3387C25.7 10.7892 25.3 10.3896 24.8 10.1898C24.05 9.89011 23.6 9.29071 23.05 8.79121C22.85 8.64136 23 8.44156 23.05 8.34166C23.15 8.24176 23.35 8.14186 23.5 8.14186C23.55 8.14186 23.7 8.39161 23.7 8.49151C23.6 8.99101 24.2 9.44056 24.75 9.54046C24.6 9.44056 24.5 9.34066 24.45 9.29071C24.3 9.14086 24.2 8.94106 24.1 8.74126C24.1 8.69131 24.2 8.59141 24.25 8.54146C24.3 8.59141 24.35 8.64136 24.4 8.74126C24.5 9.09091 24.5 9.19081 24.7 9.24076C24.75 9.09091 24.8 8.89111 24.85 8.74126C24.85 8.74126 25.15 8.79121 25.15 8.84116C25.2 8.99101 25.15 9.14086 25.1 9.34066C25.2 9.29071 25.35 9.29071 25.45 9.19081C25.65 9.04096 25.8 9.09091 26.05 9.14086C26.7 9.29071 27.4 9.44056 28.1 9.54046C28.3 9.59041 28.3 9.69031 28.35 9.84016C28.6 10.6893 28.55 11.5385 28.5 12.3876C28.45 13.0869 28.45 13.7363 28.4 14.4356C28.4 14.6354 28.45 14.8352 28.45 15.0849C28.35 15.0849 28.25 15.035 28.1 15.035C28.05 15.6344 27.95 16.2338 28.1 16.8332C28.2 17.2328 28.5 17.5325 28.9 17.6324C28.95 17.5325 29 17.5325 29.1 17.5824ZM22.8 8.44156C22.65 8.34166 22.5 8.29171 22.3 8.19181C22.7 7.59241 23.2 7.29271 23.9 7.29271C24.45 7.34266 25.05 7.44256 25.6 7.49251C26.35 7.59241 27.15 7.79221 27.85 7.29271C27.95 7.79221 27.9 7.94206 27.4 7.89211C26.8 7.89211 26.15 7.79221 25.55 7.74226C24.95 7.69231 24.4 7.59241 23.8 7.59241C23.15 7.69231 23 7.84216 22.8 8.44156ZM27.95 9.04096C27.15 9.04096 26.4 8.79121 25.65 8.59141C25.3 8.49151 24.9 8.34166 24.55 8.24176C24.5 8.19181 24.4 8.19181 24.35 8.14186C24.35 8.14186 24.35 8.09191 24.4 8.09191C25.75 8.19181 27.15 8.29171 28.55 8.39161C28.6 8.69131 28.4 9.04096 27.95 9.04096ZM23.1 4.99501C23.15 4.99501 23.15 4.94505 23.2 4.94505C23.2 4.84515 23.15 4.7952 23.15 4.6953C23.15 4.5954 23.1 4.4955 23.1 4.3956C23.1 4.2957 23.15 4.0959 23.25 4.0959C23.35 4.04595 23.55 4.0959 23.6 4.1958C23.65 4.24575 23.7 4.44555 23.65 4.54545C23.55 4.84516 23.45 5.09491 23.35 5.39461C23.4 5.44456 23.4 5.44456 23.45 5.49451C23.55 5.44456 23.65 5.39461 23.65 5.34466C23.75 4.99501 23.85 4.64535 23.9 4.2957C23.9 3.5964 23.9 3.54645 24.6 3.3966V3.34665C24.55 3.14685 24.55 2.997 24.5 2.8971C24.65 2.8971 24.75 2.8971 24.9 2.8971C25 2.8971 25.1 2.84715 25.2 2.8971C25.3 2.8971 25.4 2.94705 25.5 2.94705C25.5 3.04695 25.45 3.14685 25.45 3.24675C25.45 3.2967 25.45 3.2967 25.45 3.34665C25.45 3.3966 25.5 3.3966 25.5 3.3966C26.1 3.54645 26.2 3.74625 26.15 4.44555C26.15 4.74525 26.3 5.09491 26.4 5.39461C26.4 5.44456 26.5 5.44456 26.55 5.44456C26.6 5.39461 26.65 5.34466 26.6 5.29471C26.5 4.99501 26.4 4.7952 26.3 4.5954C26.2 4.34565 26.25 4.14585 26.5 4.0959C26.7 3.996 26.85 4.0959 26.85 4.2957C26.85 4.44555 26.8 4.5954 26.8 4.74525C26.8 4.84515 26.75 4.89511 26.8 4.99501C27.2 4.44555 27.6 3.8961 28.35 3.7962C28.15 4.1958 27.9 4.4955 27.75 4.89511C27.45 5.64436 27.25 6.44356 27 7.19281C26.9 7.49251 26.8 7.54246 26.55 7.49251C25.75 7.39261 24.95 7.24276 24.2 7.14286C23.85 7.09291 23.45 7.19281 23 7.19281C22.75 5.99401 22.45 4.7952 21.55 3.6963C22.35 3.84615 22.75 4.3956 23.1 4.99501ZM20.95 8.64136C21.05 8.39161 21.3 8.34166 21.55 8.29171C22.25 8.29171 22.75 8.59141 23.2 9.09091C23.6 9.54046 24 9.94006 24.6 10.1898C24.85 10.2897 25.1 10.5395 25.3 10.7393C25.45 10.8392 25.5 11.039 25.6 11.1888C25.65 11.2887 25.6 11.3886 25.6 11.4885C25.5 11.4885 25.4 11.4885 25.35 11.4885C25 11.4386 24.65 11.3886 24.3 11.3387C24.25 11.3387 24.2 11.3387 24.15 11.3387C23.55 11.0889 22.95 11.3387 22.35 11.4386C22.05 11.4885 21.75 11.5385 21.45 11.5385C21.15 11.5385 20.9 11.3387 20.75 11.039C21 11.039 21.2 11.039 21.45 10.989C21.75 10.9391 22.05 10.8891 22.3 10.7393C23.1 10.2897 23.9 10.1898 24.75 10.7393C24.8 10.7892 24.9 10.7892 25 10.7393C24.95 10.6394 24.85 10.5894 24.8 10.4895C24.4 10.2398 24 10.1399 23.55 10.1399C23.4 10.1399 23.25 10.0899 23.15 9.99001C22.7 9.59041 22.2 9.49051 21.65 9.54046C21.4 9.54046 21.15 9.59041 20.8 9.64036C20.8 9.24076 20.85 8.94106 20.95 8.64136ZM11.2 7.39261C11.4 7.44256 11.65 7.49251 11.85 7.54246C13.25 7.79221 14.65 8.24176 15.9 8.99101C17.3 9.84016 18.45 10.989 19.4 12.3377C20 13.1369 20.4 14.036 20.55 15.035C20.65 15.8841 20.45 16.6334 19.85 17.2328C19.55 17.5325 19.25 17.6823 18.85 17.7323C18.65 17.7323 18.6 17.7822 18.6 17.982C18.55 18.7313 18.75 19.0809 19.4 19.3806C19.8 19.5305 20.2 19.6304 20.65 19.7802C20.8 19.8302 20.9 19.8801 20.9 20.03C20.9 20.5295 20.9 21.029 21 21.5285C21.05 21.8781 21.25 22.2278 21.4 22.6274C21.45 22.7772 21.5 22.8771 21.55 23.027C21.65 23.3267 21.7 23.5764 21.8 23.8761C21.85 24.026 21.9 24.1758 21.95 24.3257C21.6 24.4256 21.3 24.3756 21.05 24.0759C20.85 23.8262 20.65 23.7263 20.3 23.8761C19.65 24.1259 19.05 23.976 18.45 23.6763C18.3 23.6264 18.1 23.5764 17.95 23.5764C17.7 23.5764 17.45 23.6264 17.2 23.5764C16.95 23.5265 16.8 23.3766 16.7 23.1269C16.6 22.7772 16.4 22.5774 16 22.4775C15.45 22.3776 15.1 22.028 15 21.4785C15 21.3287 14.9 21.1289 14.75 21.0789C14.15 20.7792 13.9 19.9301 14.1 19.2308C14.1 19.1808 14.15 19.1309 14.15 19.0809C14.3 18.8312 14.25 18.6314 14.05 18.4316C13.55 17.982 13.6 16.983 14.15 16.5335C14.35 16.3337 14.4 16.2338 14.25 15.984C13.95 15.5844 14 15.2348 14.3 14.8851C14.55 14.5854 14.95 14.5355 15.4 14.6853C15.5 14.7353 15.55 14.7353 15.65 14.7852C15.7 14.6354 15.75 14.4855 15.8 14.3357C16 13.7862 16.5 13.4865 17 13.5864C17.4 13.6863 17.7 13.986 17.75 14.3856C17.75 14.5854 17.8 14.8352 17.75 15.035C17.75 15.2348 17.8 15.2847 18 15.3347C18.5 15.3846 18.8 15.6843 18.85 16.1838C18.85 16.5834 18.7 16.8332 18.3 16.9331C18.05 16.983 17.75 17.033 17.45 17.0829C17.5 17.2827 17.65 17.2827 17.8 17.2827C18.6 17.0829 18.9 16.8332 18.95 16.2338C19 15.6843 18.7 15.3846 17.9 15.1349C17.85 14.8352 17.85 14.5355 17.8 14.2358C17.75 13.8861 17.55 13.6364 17.2 13.4865C17.1 13.4366 17 13.3367 17 13.2867C16.9 12.8871 16.65 12.5874 16.35 12.2877C14.75 10.8392 13.15 9.34066 11.6 7.89211C11.45 7.74226 11.3 7.59241 11.1 7.44256C11.2 7.44256 11.2 7.44256 11.2 7.39261ZM10.4 9.24076C11.25 9.64036 11.9 10.2398 12.6 10.8392C13.15 11.3387 13.7 11.8382 14.25 12.3377C14.55 12.5874 14.55 12.8871 14.5 13.2867C13.75 12.6374 13.1 11.988 12.4 11.3886C11.7 10.7892 11 10.1898 10.25 9.64036C10.6 10.1399 11.05 10.4895 11.5 10.8891C11.95 11.2887 12.35 11.6883 12.8 12.1379C13.25 12.5375 13.7 12.987 14.1 13.4366C13.9 13.3866 13.75 13.3367 13.55 13.2867C13.2 13.2368 12.85 13.1868 12.5 13.1868C12.3 13.1868 12.2 13.1369 12.05 13.037C11.15 12.1379 10.35 11.1389 9.9 9.89011C9.85 9.69031 9.8 9.54046 9.75 9.34066C9.75 9.29071 9.75 9.19081 9.7 9.04096C9.95 9.14086 10.2 9.14086 10.4 9.24076ZM9.9 11.8881C10 11.9381 10.1 12.038 10.2 12.0879C11.05 12.4875 11.65 13.2368 12.3 13.8861C12.45 14.0859 12.5 14.3357 12.6 14.5854L12.55 14.6354C11.25 13.5864 9.7 12.7373 8.85 11.1888C9.2 11.3886 9.55 11.6384 9.9 11.8881ZM9.75 13.2368C11 13.7363 12.1 14.4356 13.05 15.3846C11.25 14.6853 9.55 13.8861 7.8 13.1868C7.8 13.2368 7.75 13.2867 7.75 13.2867C9.3 14.036 10.9 14.7353 12.5 15.4845C12 15.5844 11.6 15.6843 11.15 15.7842C11.1 15.7842 11.05 15.7842 11 15.7343C10.1 15.2847 9.25 14.8851 8.4 14.3856C7.85 14.0859 7.45 13.5864 7.25 12.8871C8.1 12.8372 8.95 12.9371 9.75 13.2368ZM8.55 15.1349C8.6 15.1349 8.7 15.1848 8.75 15.1848C9.4 15.4346 10.05 15.7343 10.75 15.984C10.8 15.984 10.9 16.034 10.9 16.0839C9.85 16.5335 7.4 15.7842 6.65 14.8352C7.25 14.9351 7.9 15.035 8.55 15.1349ZM7.65 16.5335C8.75 16.3836 9.8 16.4835 10.9 16.6833C11 16.6833 11.05 16.7333 11.1 16.7832C11.3 17.033 11.5 17.3327 11.7 17.6324C9.95 17.4825 8.2 17.2827 6.5 17.1329C6.5 17.1828 6.5 17.2328 6.5 17.2827C7.1 17.4326 7.75 17.4326 8.35 17.5325C8.95 17.6324 9.6 17.7323 10.2 17.8322C10.85 17.9321 11.45 18.0819 12.05 18.1818C12.05 18.2318 12.05 18.2318 12.05 18.2817C11.55 18.3816 11.1 18.5814 10.6 18.5814C9.35 18.5315 8.15 18.2318 7 17.7822C6.5 17.5824 6.05 17.3826 5.5 17.1329C6.25 16.7832 6.95 16.5834 7.65 16.5335ZM5.6 22.1279C6.45 21.3287 7.45 20.7792 8.55 20.3297C8.75 20.2298 8.95 20.2298 9.2 20.2298C9.85 20.2298 10.55 20.2298 11.2 20.2298L11.25 20.2797C10.65 20.5794 10.05 20.9291 9.4 21.1788C8.8 21.4785 8.15 21.7283 7.55 22.028C8.35 21.9281 9.1 21.7283 9.8 21.4286C10.55 21.1289 11.2 20.7792 12 20.4296C11.85 20.6294 11.75 20.8292 11.55 21.029C10.65 22.028 9.5 22.5774 8.2 22.8771C7.15 23.0769 6.1 23.027 4.9 22.9271C5.2 22.5774 5.4 22.3277 5.6 22.1279ZM8.1 30.7692C8.05 28.3716 8.95 26.3736 10.5 24.6254C9.6 24.975 8.8 25.3746 7.85 25.4745C6.95 25.5744 6 25.5744 5.1 25.3247C5.15 25.2747 5.15 25.2747 5.15 25.2248C6.5 24.975 7.55 24.1758 8.65 23.4765C9.3 23.027 9.9 22.4276 10.65 22.1279C10.7 22.1279 10.75 22.0779 10.85 22.0779C10.9 22.4276 10.85 22.6773 10.6 22.8771C10 23.3267 9.4 23.7762 8.8 24.1259C8.2 24.4755 7.55 24.6753 6.9 24.975C6.8 25.025 6.7 25.0749 6.6 25.1249C6.6 25.1748 6.6 25.1748 6.6 25.2248C6.7 25.2248 6.8 25.2248 6.9 25.2248C8.2 24.9251 9.4 24.3756 10.45 23.5764C10.55 23.5265 10.65 23.4266 10.75 23.3766C10.9 23.2268 11.1 23.1768 11.35 23.2268C11.65 23.2767 11.95 23.2268 12.3 23.2268C12.15 23.4266 12.1 23.5764 12 23.7263C11.1 25.1748 10.15 26.6733 9.25 28.1219C9.1 28.3716 9 28.7213 8.9 29.021C8.9 29.0709 8.9 29.1209 8.9 29.2208C8.9 29.2208 8.95 29.2208 8.95 29.2707C9.25 28.8212 9.55 28.3716 9.85 27.972C10.95 26.4735 12.05 24.975 13.2 23.4765C13.5 23.0769 13.9 22.9271 14.4 22.9271C13.7 24.4755 13 25.974 11.9 27.3227C10.75 28.5215 9.6 29.7203 8.1 30.7692ZM10.9 30.9191C11.4 30.3197 11.75 29.5704 12 28.8212C12.25 27.9221 12.65 27.1229 13.05 26.2737C13.2 25.9241 13.4 25.5744 13.55 25.2248C13.75 25.4246 13.75 25.5744 13.7 25.8242C13.35 26.8232 13 27.8222 12.6 28.8212C12.25 29.7203 11.7 30.5694 11 31.2687C10.95 31.3187 10.9 31.4186 10.8 31.5185L10.85 31.5684C10.95 31.5185 11.05 31.4685 11.1 31.4186C11.7 30.9191 12.15 30.3197 12.45 29.6204C13 28.3716 13.5 27.0729 14.05 25.8242C14.15 25.5245 14.2 25.5245 14.55 25.4745C14.5 25.7742 14.4 26.024 14.35 26.2737C14.2 27.1229 14 28.022 13.85 28.8711C13.85 28.971 13.8 29.1209 13.75 29.1708C13.1 29.9201 12.5 30.7193 11.85 31.4685C11.35 32.018 10.75 32.3177 10.05 32.3676C9.9 32.3676 9.75 32.3177 9.65 32.3177C10.05 31.8681 10.5 31.4186 10.9 30.9191ZM17.45 40.6094C17.25 40.6094 17.2 40.7093 17.2 40.8591C17.1 41.4585 16.85 41.6583 16.2 41.4086C16.3 41.3586 16.35 41.3087 16.4 41.2587C16.65 41.1089 16.65 40.8092 16.4 40.6593C16.35 40.6094 16.25 40.5594 16.25 40.5095C16.2 40.2098 15.95 40.2098 15.7 40.1598C15.5 40.1099 15.35 40.01 15.15 39.9101C15 39.8102 14.9 39.8102 14.75 39.96C14.4 40.5095 14 41.009 13.6 41.5584C13.55 41.6583 13.5 41.8581 13.55 42.008C13.6 42.3576 13.55 42.6074 13.2 42.7572C12.95 42.8571 12.9 43.0569 13 43.3067C13.05 43.4066 13.1 43.5065 13.15 43.6064C12.8 43.7562 12.6 43.6563 12.5 43.3566C12.4 43.0569 12.3 42.7572 12.1 42.4575C11.8 42.0579 12.05 41.6084 12.55 41.4585C12.9 41.3586 13.55 40.7093 13.7 40.3097C13.4 40.1598 13.1 40.2597 12.8 40.3596C12.5 40.4595 12.2 40.5594 11.9 40.7093C11.8 40.7592 11.7 40.8591 11.65 40.9091C11.5 41.1089 11.4 41.3586 11.2 41.4585C10.9 41.6084 10.9 41.8581 10.95 42.1079C10.95 42.1578 10.95 42.2078 10.95 42.2577C10.45 42.2078 10.25 41.8581 10.35 41.3087C10.4 41.1089 10.35 40.9091 10.35 40.7093C10.3 40.3596 10.35 40.2098 10.7 40.0599C10.8 40.01 10.9 40.01 11 40.01C11.7 39.7103 12.4 39.5604 13.15 39.5604C13.25 39.5604 13.3 39.4605 13.4 39.4106C13.15 39.1109 12.85 39.0609 12.55 39.0609C12.15 39.0609 11.7 38.961 11.3 39.1608C11.2 39.2108 11.05 39.1608 10.9 39.1608C10.65 39.1109 10.4 39.011 10.15 39.011C10 39.011 9.85 39.1608 9.7 39.2108C9.6 39.011 9.7 38.7113 9.95 38.4615C10.05 38.3616 10.1 38.2617 10.15 38.1119C10.25 37.8122 10.5 37.7622 10.7 37.7123C11.05 37.6623 11.35 37.7622 11.6 37.962C11.85 38.1618 12.15 38.2617 12.45 38.3117C12.7 38.3117 12.95 38.3616 13.1 38.4615C13.65 38.7612 14.15 38.6114 14.65 38.4116C14.85 38.3117 15 38.3117 15.15 38.3616C15.6 38.4615 16.3 38.2118 16.5 37.8621C16.05 38.0619 15.6 38.2118 15.1 38.0619C15.65 37.4625 16.55 37.4625 17.05 36.9131C17.05 36.8631 17 36.8631 17 36.8132C16.65 36.963 16.35 37.0629 16 37.2128C16 37.1628 15.95 37.1628 15.95 37.1129C16.3 36.8132 16.5 36.4136 17.05 36.3636C17.3 36.3636 17.6 36.1638 17.85 36.014C17.95 35.964 18 35.8641 18 35.7143C17.6 35.8641 17.2 36.2138 16.75 36.1139C17.35 35.5145 18.25 35.2647 18.85 34.7153C18.85 34.6653 18.8 34.6653 18.8 34.6154C18.4 34.7652 18.05 34.9151 17.65 35.0649C18 34.5155 18.3 34.0659 18.6 33.6164C18.65 33.5165 18.75 33.5165 18.85 33.4665C19.1 33.3666 19.3 33.2667 19.5 33.1668C19.6 33.6663 19.7 34.0659 19.75 34.5155C19.75 34.5654 19.7 34.7153 19.65 34.7652C18.55 35.8142 17.65 37.013 16.75 38.2617C16.6 38.4615 16.4 38.7113 16.3 38.961C16.25 39.1608 16.2 39.4106 16.3 39.5604C16.4 39.7602 16.65 39.7602 16.85 39.7103C17 39.6603 17.2 39.6603 17.35 39.6603C17.65 39.7103 17.85 39.96 17.85 40.2597C17.9 40.4595 17.8 40.6094 17.45 40.6094ZM30.05 45.1049C28.65 45.2048 27.65 44.5055 26.9 43.4565C26.8 43.3566 26.7 43.2567 26.6 43.1568C26.55 43.3067 26.5 43.4066 26.45 43.5564C26.3 44.6553 26.05 45.6543 25.45 46.6034C25.35 46.7532 25.25 46.9031 25.1 47.1029C24.5 46.4036 24.2 45.6543 24 44.8551C23.9 44.3556 23.8 43.8561 23.7 43.4066C23.7 43.3067 23.65 43.2567 23.6 43.1568C23.55 43.2068 23.45 43.2567 23.4 43.3566C23 44.0559 22.4 44.6054 21.65 44.9051C20.8 45.3047 19.9 45.3546 19.15 44.7552C18.35 44.1558 18.4 42.7073 19.25 42.1578C19.3 42.6074 19.5 42.9071 19.9 43.1069C20.3 43.3067 20.7 43.2567 21.1 43.1568C22 42.9071 22.5 42.2577 22.3 41.5584C22.2 41.6084 22.05 41.6084 21.95 41.6583C21.35 41.958 20.7 42.0579 20.05 41.9081C19.5 41.7582 19.05 41.5085 18.75 41.009C18.3 40.3097 18.6 39.3606 19.35 39.1109C19.4 39.0609 19.5 39.0609 19.6 39.0609C19.6 39.2108 19.65 39.3107 19.65 39.4106C19.75 40.01 20.25 40.4096 20.85 40.3596C21.85 40.3097 22.75 39.6603 22.95 38.8112C23 38.7113 22.95 38.5614 22.95 38.3616C22.75 38.4615 22.6 38.5614 22.45 38.6613C22.15 38.8112 21.75 38.7612 21.5 38.5115C21.2 38.2617 21.15 37.8122 21.25 37.5624C21.55 37.6124 21.9 37.7123 22.15 37.6623C22.55 37.5624 22.85 37.2128 23.1 36.9131C23.3 36.7133 23.45 36.4635 23.6 36.2138C23.8 36.8132 24.1 37.3626 24.2 37.962C24.3 38.3117 24.15 38.6613 24.1 39.011C23.9 40.4595 24.1 41.8581 24.55 43.2068C24.65 43.4565 24.8 43.7063 24.95 44.006C25.3 43.4565 25.5 42.9071 25.65 42.3576C26 41.009 26 39.6104 25.75 38.2617C25.7 38.1119 25.75 37.9121 25.8 37.7622C25.95 37.2627 26.15 36.7632 26.35 36.2138C26.4 36.3137 26.5 36.4136 26.55 36.4635C26.8 36.7632 27 37.0629 27.25 37.3127C27.7 37.7622 28.05 37.7622 28.65 37.4625C28.85 37.7622 28.75 38.0619 28.55 38.3616C28.1 39.0609 27.55 38.7113 27 38.4116C26.85 38.8112 27 39.1109 27.2 39.3606C27.7 40.0599 28.4 40.3596 29.3 40.3596C29.75 40.3596 30.15 40.01 30.25 39.6104C30.3 39.4605 30.3 39.3107 30.35 39.1109C30.85 39.0609 31.35 39.5105 31.4 40.1099C31.5 40.959 30.85 41.7582 29.95 41.958C29.25 42.1079 28.6 41.958 28 41.6583C27.7 41.5085 27.6 41.5584 27.65 41.9081C27.7 42.2078 27.85 42.4575 28.05 42.7073C28.5 43.2567 29.55 43.4565 30.15 43.1568C30.55 42.957 30.6 42.9071 30.8 42.2078C31.1 42.4076 31.25 42.6573 31.35 42.957C31.95 43.956 31.25 45.005 30.05 45.1049ZM40.45 39.2607C40.1 38.8112 39.7 39.011 39.3 39.0609C39.15 39.1109 38.95 39.1109 38.8 39.0609C38.2 38.8611 37.6 38.9111 37.05 39.1109C36.95 39.1608 36.9 39.2607 36.8 39.3606C36.9 39.4106 37 39.5105 37.1 39.5105C37.85 39.4605 38.55 39.7602 39.25 39.96C39.85 40.1099 40 40.2597 39.85 40.8092C39.8 40.9091 39.85 41.009 39.85 41.1588C40 41.7083 39.85 42.0579 39.4 42.2078C39.35 42.2078 39.3 42.2078 39.25 42.2078C39.25 42.0579 39.3 41.958 39.25 41.8581C39.2 41.7083 39.15 41.5584 39.05 41.4585C38.9 41.2587 38.7 41.0589 38.55 40.8591C38.5 40.8092 38.45 40.7093 38.35 40.6593C37.85 40.3596 37.3 40.1598 36.75 40.1598C36.65 40.1598 36.55 40.2098 36.4 40.2098C36.65 40.4595 36.8 40.6593 37 40.9091C37.2 41.1588 37.4 41.3087 37.75 41.4086C38.2 41.5085 38.4 42.008 38.1 42.4076C37.9 42.7073 37.8 42.957 37.7 43.3067C37.6 43.6563 37.45 43.7063 37.05 43.6064C37.05 43.5564 37.1 43.5065 37.1 43.4565C37.3 43.007 37.3 42.957 36.85 42.7073C36.6 42.5574 36.55 42.3576 36.6 42.1079C36.65 41.8082 36.55 41.6084 36.4 41.3586C36.05 40.9091 35.75 40.4595 35.45 40.01C35.3 39.8102 35.2 39.8102 35 39.9101C34.7 40.0599 34.4 40.1598 34.1 40.2597C33.95 40.4096 33.85 40.5594 33.7 40.7093C33.55 40.8092 33.6 41.1089 33.75 41.2088C33.8 41.2587 33.9 41.3087 34 41.3586C33.45 41.6583 33 41.4086 33 40.9091C33 40.7093 33 40.5594 32.7 40.5594C32.35 40.5594 32.25 40.4096 32.25 40.1099C32.25 39.8102 32.4 39.5604 32.7 39.5105C32.9 39.4605 33.05 39.5105 33.25 39.5105C33.5 39.5604 33.7 39.5604 33.85 39.3606C34 39.1608 33.95 38.9111 33.85 38.7612C33.45 38.1618 33.05 37.5624 32.55 36.963C31.9 36.1638 31.15 35.3646 30.45 34.6154C30.4 34.5654 30.35 34.4655 30.35 34.4156C30.45 33.966 30.55 33.5664 30.65 33.0669C31 33.2667 31.5 33.2667 31.75 33.8162C31.9 34.2158 32.2 34.5155 32.45 34.8651C32.05 34.9151 31.7 34.6154 31.3 34.5155C31.35 34.5654 31.35 34.6653 31.4 34.6653C31.7 34.8152 32 35.015 32.25 35.1648C32.3 35.2148 32.4 35.2148 32.45 35.2647C32.75 35.5145 33.05 35.7143 33.35 35.964C32.85 36.0639 32.5 35.7143 32.05 35.5145C32.15 35.8641 32.45 35.964 32.65 36.1139C32.75 36.1638 32.9 36.2138 33.05 36.2138C33.6 36.2138 33.8 36.6633 34.15 36.9131C34.15 36.963 34.1 36.963 34.1 37.013C33.75 36.8631 33.45 36.7632 33.1 36.6134L33.05 36.6633C33.1 36.7133 33.15 36.8132 33.25 36.8631C33.55 37.013 33.85 37.1628 34.15 37.2627C34.45 37.4126 34.75 37.5624 35.1 37.7622C34.55 37.962 34.1 37.8122 33.6 37.6124C33.6 37.7123 33.6 37.7123 33.6 37.7622C34.05 38.0619 34.45 38.3117 35 38.1618C35.1 38.1119 35.25 38.1618 35.4 38.2118C35.95 38.4615 36.5 38.6114 37.1 38.2617C37.15 38.2617 37.15 38.2118 37.2 38.2118C37.8 38.1618 38.35 38.012 38.9 37.6623C39.2 37.4625 39.6 37.5125 39.9 37.7622C40 37.8122 40.05 37.962 40.1 38.0619C40.15 38.1618 40.2 38.2617 40.25 38.3117C40.35 38.6613 40.5 38.8611 40.45 39.2607ZM39.7 32.3676C39 32.2178 38.5 31.8182 38.05 31.3187C37.5 30.6693 36.95 29.97 36.4 29.2707C36.35 29.1708 36.3 29.0709 36.25 28.971C36 27.8721 35.8 26.7233 35.55 25.6244C35.55 25.5744 35.55 25.5744 35.55 25.4745C35.8 25.4246 35.95 25.5744 36 25.7742C36.4 26.7732 36.75 27.7722 37.15 28.7213C37.6 29.7203 38.05 30.6693 38.9 31.3686C39 31.4186 39.1 31.4685 39.15 31.5684C39.15 31.5185 39.2 31.5185 39.2 31.4685C39.05 31.3187 38.9 31.1189 38.75 30.969C37.9 29.97 37.3 28.7712 36.9 27.5225C36.7 26.9231 36.5 26.3237 36.3 25.6743C36.25 25.5245 36.35 25.3746 36.35 25.1748C36.4 25.1748 36.4 25.1748 36.45 25.1748C36.65 25.6244 36.85 26.024 37.1 26.4735C37.65 27.4226 37.9 28.5215 38.35 29.5205C38.8 30.5694 39.5 31.4685 40.45 32.1179C40.5 32.1179 40.5 32.1678 40.6 32.1678C40.3 32.4675 40 32.4176 39.7 32.3676ZM43.15 25.5245C42.05 25.5245 40.95 25.2747 39.95 24.7253C39.85 24.6753 39.65 24.6753 39.55 24.6254C39.65 24.7253 39.7 24.8751 39.8 24.975C41.15 26.4735 41.85 28.2717 41.95 30.3197C41.95 30.4695 41.95 30.6194 41.9 30.8192C39.1 28.6214 36.9 26.1239 35.7 22.8272C36.2 22.7772 36.6 22.977 36.9 23.3766C38 24.8751 39.15 26.4236 40.25 27.9221C40.5 28.2717 40.75 28.6214 41 28.971C41.05 29.021 41.1 29.0709 41.15 29.1209C41.2 29.1209 41.2 29.1209 41.25 29.0709C41.2 28.8711 41.2 28.7213 41.1 28.5215C40.7 27.7722 40.35 27.023 39.9 26.3237C39.3 25.3247 38.6 24.3756 38 23.3766C37.95 23.2767 37.9 23.1768 37.85 23.0769C38.25 23.027 38.6 22.977 39 22.977C39.1 22.977 39.2 23.0769 39.25 23.1269C40.35 23.976 41.55 24.6254 42.9 24.975C43.05 25.025 43.25 25.025 43.45 25.0749C43.45 25.025 43.45 24.975 43.5 24.975C43.2 24.8751 42.9 24.7253 42.6 24.6254C41.45 24.1758 40.4 23.6264 39.45 22.7772C39.2 22.5774 39.15 22.3277 39.2 21.9281C39.55 22.1279 39.85 22.2278 40.1 22.4276C41.2 23.2767 42.3 24.0759 43.6 24.6753C43.95 24.8252 44.35 24.9251 44.75 25.0749C44.8 25.0749 44.9 25.1249 44.95 25.1249C44.95 25.1748 44.95 25.1748 44.95 25.2248C44.35 25.4246 43.75 25.5245 43.15 25.5245ZM40.35 22.3277C39.4 21.8781 38.6 21.2787 38.1 20.3297C39.45 21.2288 40.95 21.6783 42.5 21.978C41.3 21.3786 39.95 20.9291 38.85 20.1798C38.85 20.1299 38.85 20.1299 38.9 20.0799C39.65 20.1299 40.45 20.1299 41.2 20.2298C41.5 20.2797 41.8 20.4296 42.1 20.5794C43.1 21.0789 44.05 21.6284 44.8 22.4775C44.9 22.5774 44.95 22.6773 45.1 22.8272C43.45 23.0769 41.85 23.027 40.35 22.3277Z" fill="#C4C4C4"/>
<path d="M26.85 40.5095C27.45 40.8092 28.05 41.1089 28.65 41.3586C29.15 41.5584 29.65 41.5584 30.2 41.4086C30.8 41.2088 31.2 40.4595 31 39.8601C30.95 39.7602 30.9 39.7103 30.85 39.5604C30.85 39.8601 30.85 40.1099 30.8 40.3097C30.6 40.8092 30 41.1588 29.45 41.0589C29 40.959 28.6 40.8092 28.2 40.6094C27.7 40.3596 27.25 40.0599 26.75 39.7602C26.75 39.96 26.75 40.1099 26.8 40.3097C26.7 40.3596 26.8 40.4595 26.85 40.5095Z" fill="#C4C4C4"/>
<path d="M23.4 41.5584C23.15 41.9081 22.95 42.2078 22.7 42.5574C22.25 43.1069 21.75 43.6064 21.1 43.9061C20.3 44.3556 19.4 43.956 19.25 43.0569C19.25 43.007 19.2 42.9071 19.2 42.8571H19.15C19.1 42.957 19.05 43.0569 19.05 43.1568C18.95 43.8561 19.55 44.6054 20.3 44.6054C21.05 44.6054 21.7 44.3556 22.25 43.8561C22.7 43.4565 23.05 42.9071 23.45 42.5075C23.8 42.1578 23.7 41.8082 23.55 41.4086C23.45 41.4585 23.45 41.5085 23.4 41.5584Z" fill="#C4C4C4"/>
<path d="M23.4501 39.7103C23.2501 39.8601 23.0501 40.01 22.8001 40.1099C22.1501 40.5095 21.5501 40.8591 20.8001 41.009C19.9501 41.1089 19.3001 40.5095 19.4001 39.7103C19.4001 39.6603 19.4001 39.6603 19.3501 39.5105C19.2501 39.6603 19.2001 39.7602 19.2001 39.8102C19.0001 40.4096 19.3501 41.1589 19.9501 41.3587C20.5001 41.5585 21.1001 41.5085 21.6001 41.2587C22.1001 41.0589 22.5501 40.8092 23.0001 40.6094C23.5501 40.4096 23.5501 40.3596 23.4501 39.7103Z" fill="#C4C4C4"/>
</svg>
