<svg xmlns="http://www.w3.org/2000/svg" viewBox="0 0 70 25"><defs><style>.a{fill:#c4c4c4;}</style></defs><title>rs_school</title><path class="a" d="M35.05,7.72l3.35-.21a2.57,2.57,0,0,0,.44,1.23,1.8,1.8,0,0,0,1.5.67,1.7,1.7,0,0,0,1.15-.34,1,1,0,0,0,.4-.8,1,1,0,0,0-.36-.76,4.55,4.55,0,0,0-1.78-.65A7.45,7.45,0,0,1,36.5,5.49a2.7,2.7,0,0,1-1-2.16A3,3,0,0,1,36,1.69,3.27,3.27,0,0,1,37.5.49,7.2,7.2,0,0,1,40.25,0a5.72,5.72,0,0,1,3.28.8A3.55,3.55,0,0,1,44.9,3.36l-3.27.2a1.76,1.76,0,0,0-.55-1.11A1.85,1.85,0,0,0,39.9,2.1a1.56,1.56,0,0,0-.91.26.86.86,0,0,0-.31.65.61.61,0,0,0,.26.5,3,3,0,0,0,1.16.42,14.3,14.3,0,0,1,3.26,1A3.36,3.36,0,0,1,44.8,6.18a3.14,3.14,0,0,1,.45,1.66,3.64,3.64,0,0,1-.6,2A3.82,3.82,0,0,1,43,11.22a6.75,6.75,0,0,1-2.7.47c-1.92,0-3.23-.37-4-1.11A4.32,4.32,0,0,1,35,7.78ZM1.27,11.44V.21H7.05a8.51,8.51,0,0,1,2.46.3,2.56,2.56,0,0,1,1.37,1,3.07,3.07,0,0,1,.58,1.83A3.1,3.1,0,0,1,11.05,5,3.1,3.1,0,0,1,9.92,6a4.11,4.11,0,0,1-1.23.44,3.76,3.76,0,0,1,.91.42,3.35,3.35,0,0,1,.56.57,5.9,5.9,0,0,1,.5.7l1.66,3.26H8.42L6.54,8a2.67,2.67,0,0,0-.62-.86,1.38,1.38,0,0,0-.85-.26H4.76v4.55Zm3.5-6.68H6.24a4.67,4.67,0,0,0,.91-.15,1,1,0,0,0,.56-.36.94.94,0,0,0,.21-.65,1,1,0,0,0-.35-.84,2.16,2.16,0,0,0-1.29-.29H4.76ZM.49,21.05l3.3-.2a2.46,2.46,0,0,0,.43,1.23,1.84,1.84,0,0,0,1.53.68,1.76,1.76,0,0,0,1.15-.35A1,1,0,0,0,7.11,21h0a1.07,1.07,0,0,0-.18-.19,4.57,4.57,0,0,0-1.78-.66A7.63,7.63,0,0,1,1.88,18.8a2.75,2.75,0,0,1-1-2.17A3.08,3.08,0,0,1,1.42,15a3.52,3.52,0,0,1,1.5-1.2,7.4,7.4,0,0,1,2.76-.44A5.63,5.63,0,0,1,9,14.17a3.41,3.41,0,0,1,1.34,2.55l-3.26.19A1.83,1.83,0,0,0,6.5,15.8a1.71,1.71,0,0,0-1.16-.34,1.35,1.35,0,0,0-.89.23.81.81,0,0,0-.31.63.69.69,0,0,0,.25.5,3.27,3.27,0,0,0,1.17.41,15.55,15.55,0,0,1,3.26,1,3.4,3.4,0,0,1,1.44,1.24,3.27,3.27,0,0,1,.45,1.67,3.64,3.64,0,0,1-.6,2A3.87,3.87,0,0,1,8.47,24.5a7.07,7.07,0,0,1-2.76.5c-1.9,0-3.22-.37-4-1.11A4.4,4.4,0,0,1,.49,21.05ZM21,20.17l3,.92a5.33,5.33,0,0,1-1,2.14,4.31,4.31,0,0,1-1.49,1.29A6.17,6.17,0,0,1,19,25a7,7,0,0,1-3-.54,4.73,4.73,0,0,1-2-1.86,6.37,6.37,0,0,1-.84-3.44,5.78,5.78,0,0,1,1.5-4.27,5.61,5.61,0,0,1,4.2-1.5,5.76,5.76,0,0,1,3.33.86A5,5,0,0,1,24,16.88l-3.06.69a2.6,2.6,0,0,0-.34-.76,2,2,0,0,0-.7-.61,2.24,2.24,0,0,0-.95-.22,2,2,0,0,0-1.81,1,4,4,0,0,0-.5,2.21,4.18,4.18,0,0,0,.57,2.56,2,2,0,0,0,1.6.7,2,2,0,0,0,1.5-.56A3.62,3.62,0,0,0,21,20.17Zm5.71-6.63h3.46v3.93H33.9V13.54h3.5V24.77H33.9V20.23H30.1v4.54H26.66Zm12.9,5.62a5.72,5.72,0,0,1,1.54-4.27,5.75,5.75,0,0,1,4.3-1.54,5.79,5.79,0,0,1,4.31,1.5,5.64,5.64,0,0,1,1.5,4.21,7,7,0,0,1-.67,3.23,4.72,4.72,0,0,1-1.91,2,6.46,6.46,0,0,1-3.11.71,7.14,7.14,0,0,1-3.12-.65,4.72,4.72,0,0,1-2-1.91,6.25,6.25,0,0,1-.79-3.28Zm3.5,0a3.73,3.73,0,0,0,.63,2.45,2.12,2.12,0,0,0,1.71.76,2.19,2.19,0,0,0,1.73-.73A4.13,4.13,0,0,0,47.74,19a3.41,3.41,0,0,0-.64-2.31A2.15,2.15,0,0,0,45.4,16a2.13,2.13,0,0,0-1.68.74,3.82,3.82,0,0,0-.64,2.46Z"/><path class="a" d="M49.73,19.16a5.75,5.75,0,0,1,1.53-4.27,5.72,5.72,0,0,1,4.27-1.54,5.81,5.81,0,0,1,4.32,1.5,5.64,5.64,0,0,1,1.5,4.21,6.82,6.82,0,0,1-.66,3.23,4.81,4.81,0,0,1-1.92,2,6.29,6.29,0,0,1-3.13.71,7.22,7.22,0,0,1-3.14-.61,4.81,4.81,0,0,1-2-1.92,6.33,6.33,0,0,1-.78-3.27Zm3.47,0a3.73,3.73,0,0,0,.63,2.45,2.37,2.37,0,0,0,3.36.08h0s0-.05.08-.08A4.21,4.21,0,0,0,57.89,19a3.52,3.52,0,0,0-.64-2.31,2.15,2.15,0,0,0-1.74-.7,2.09,2.09,0,0,0-1.68.73,3.76,3.76,0,0,0-.64,2.46Z"/><path class="a" d="M61,13.54h3.47V22h5.41v2.79H61Z"/></svg>