<svg width="50" height="50" viewBox="0 0 50 50" fill="none" xmlns="http://www.w3.org/2000/svg">
<path d="M41.4258 40.9771C41.376 40.9272 41.2264 40.9272 41.2264 40.9272C41.1766 40.7278 41.027 40.7278 40.8276 40.678C40.7279 40.7278 40.5784 40.7278 40.5285 40.8275C40.4288 40.9272 40.3789 40.9771 40.2294 40.9771C40.1297 40.9771 39.9801 41.0768 39.9303 41.1266C39.8306 41.326 39.9303 41.4257 40.1795 41.4257C40.3291 41.4257 40.4288 41.4257 40.5285 41.5753C40.5285 41.6251 40.6282 41.675 40.6781 41.675C40.7778 41.675 40.9273 41.675 41.027 41.675C41.0769 41.675 41.1766 41.6251 41.1766 41.5753C41.2264 41.4257 41.3261 41.4257 41.4757 41.4257C41.6751 41.4257 41.7748 41.326 41.7249 41.1266C41.6751 41.0768 41.5255 41.0269 41.4258 40.9771Z" fill="#C4C4C4"/>
<path d="M8.67385 41.5752C8.7237 41.7746 8.97296 41.6251 9.12251 41.6749C9.22221 41.6749 9.37176 41.6251 9.37176 41.5752C9.37176 41.3758 9.52131 41.4257 9.62101 41.4257C9.82041 41.4257 9.92011 41.3758 9.87026 41.1266C9.82041 41.0269 9.72071 40.977 9.62101 40.9271C9.57116 40.8773 9.42161 40.8773 9.42161 40.8773C9.37176 40.628 9.22221 40.6779 8.97296 40.6779C8.92311 40.6779 8.87326 40.6779 8.8234 40.6779C8.77355 40.6779 8.7237 40.7278 8.67385 40.7776C8.67385 40.9272 8.57415 40.9271 8.47445 40.9271C8.37475 40.9271 8.2252 40.977 8.17535 41.0767C8.07565 41.2263 8.2252 41.3758 8.37475 41.3758C8.47445 41.4257 8.57415 41.4257 8.67385 41.5752Z" fill="#C4C4C4"/>
<path d="M41.3757 44.1675C41.3259 44.1675 41.276 44.1176 41.276 44.0678C41.276 43.8185 41.1265 43.7687 40.9271 43.8185C40.7775 43.8185 40.628 43.8185 40.5781 43.9681C40.5283 44.1675 40.4286 44.1675 40.2292 44.1675C40.0796 44.1675 40.0298 44.2173 40.0298 44.3669C40.0298 44.5164 40.1295 44.5663 40.2292 44.5164C40.3787 44.5164 40.5283 44.4666 40.5283 44.666C40.5283 44.7158 40.628 44.7158 40.6778 44.7657C40.8274 44.7657 40.9271 44.7657 41.0766 44.7657C41.1265 44.7657 41.2262 44.7158 41.2262 44.7158C41.276 44.5164 41.4256 44.5164 41.5253 44.5663C41.7247 44.5663 41.7247 44.4666 41.7247 44.317C41.7247 44.1675 41.625 44.1675 41.5253 44.1675C41.4754 44.1675 41.4256 44.1675 41.3757 44.1675Z" fill="#C4C4C4"/>
<path d="M8.42455 44.5662C8.52425 44.5662 8.62395 44.5662 8.6738 44.7158C8.6738 44.7656 8.7735 44.8155 8.82335 44.8155C8.9729 44.8155 9.12245 44.8155 9.22215 44.8155C9.272 44.8155 9.3717 44.7656 9.3717 44.7158C9.42155 44.5164 9.57111 44.5662 9.67081 44.5662C9.82036 44.5662 9.87021 44.5164 9.87021 44.3668C9.87021 44.317 9.87021 44.2671 9.87021 44.1674C9.72066 44.1674 9.62096 44.1674 9.52126 44.1674C9.42155 44.1674 9.42155 44.1176 9.3717 44.0677C9.32185 43.968 9.22215 43.8683 9.1723 43.8683C9.02275 43.8185 8.7735 43.7686 8.72365 44.0179C8.6738 44.2173 8.52425 44.2173 8.37469 44.2173C8.32484 44.2173 8.17529 44.2173 8.17529 44.2671C8.17529 44.3668 8.17529 44.4665 8.22514 44.5164C8.22514 44.5164 8.32484 44.5662 8.42455 44.5662Z" fill="#C4C4C4"/>
<path d="M41.4755 45.5135C41.4257 45.5135 41.2761 45.5135 41.2761 45.4636C41.2263 45.2144 41.0269 45.2642 40.8773 45.2144C40.7776 45.2642 40.5782 45.2642 40.5782 45.3639C40.5284 45.5135 40.4287 45.5135 40.2791 45.5135C40.2293 45.5135 40.0797 45.5633 40.0797 45.6132C39.98 45.8126 40.0797 46.012 40.329 46.012C40.4785 46.012 40.5782 46.012 40.5782 46.1615C40.5782 46.2114 40.6779 46.2612 40.7278 46.2612C40.8275 46.2612 40.977 46.2612 41.1266 46.2612C41.1764 46.2612 41.2761 46.2114 41.2761 46.1615C41.326 46.012 41.4257 46.012 41.5752 46.012C41.7746 46.012 41.8245 45.9621 41.8245 45.7627C41.7248 45.5633 41.6251 45.5135 41.4755 45.5135Z" fill="#C4C4C4"/>
<path d="M8.67385 46.1616C8.67385 46.2114 8.77355 46.2613 8.77355 46.2613C8.9231 46.2613 9.07266 46.2613 9.22221 46.2613C9.27206 46.2613 9.32191 46.2114 9.32191 46.1616C9.32191 45.9622 9.47146 46.012 9.57116 46.012C9.67086 46.012 9.77056 46.012 9.77056 45.9622C9.87026 45.7628 9.77056 45.5634 9.52131 45.5634C9.47146 45.5634 9.32191 45.5634 9.32191 45.5135C9.27206 45.3141 9.12251 45.3141 8.97295 45.3141V45.2643C8.87325 45.3141 8.77355 45.364 8.67385 45.4138C8.57415 45.5135 8.5243 45.5634 8.37475 45.5634C8.27505 45.5634 8.1255 45.6631 8.1255 45.7628C8.07565 45.9123 8.17535 46.0619 8.37475 46.0619C8.47445 46.012 8.624 45.9622 8.67385 46.1616Z" fill="#C4C4C4"/>
<path d="M2.64203 44.0679C2.64203 44.018 2.64203 43.9682 2.64203 43.9183C2.64203 43.7688 2.69188 43.7189 2.84143 43.7189C3.14053 43.7189 3.38978 43.7189 3.68889 43.7189C3.88829 43.7189 3.98799 43.6691 3.98799 43.4198C3.98799 43.37 3.98799 43.37 3.98799 43.3201C3.98799 43.1706 4.03784 43.1207 4.18739 43.1706C4.38679 43.1706 4.63605 43.1706 4.83545 43.1706C5.3838 43.1706 5.33395 43.3201 5.33395 42.6222C5.33395 42.4727 5.2841 42.4228 5.13455 42.4228C4.8853 42.4228 4.58619 42.4228 4.33694 42.4228C3.98799 42.373 3.98799 42.373 3.98799 42.0739C3.98799 41.9243 3.93814 41.8744 3.78859 41.8744C3.53934 41.8744 3.29008 41.8744 3.09068 41.8744C2.69188 41.8744 2.69188 41.8744 2.69188 41.4756C2.69188 41.3261 2.64203 41.2762 2.49248 41.2762C2.19337 41.2762 1.89427 41.2762 1.64502 41.2762C1.24622 41.2762 1.24622 41.2762 1.24622 41.675C1.19636 41.8246 1.14651 41.8744 0.996963 41.8744C0.747711 41.8744 0.448608 41.8744 0.199356 41.8744C0.149506 41.8744 0.0996551 41.8744 0.0498047 41.8744C0.0996551 42.5225 0.249206 43.1207 0.448608 43.6691C0.548309 43.6691 0.64801 43.6691 0.747711 43.6691C1.14651 43.6691 1.14651 43.6691 1.14651 44.0679C1.14651 44.1676 1.19636 44.2174 1.29607 44.2174C1.69487 44.2174 2.09367 44.2174 2.44263 44.2174C2.59218 44.2174 2.64203 44.1676 2.64203 44.0679ZM2.34293 42.9712C2.19337 42.9712 2.04382 42.9712 1.89427 42.9712C1.74472 42.9712 1.59517 42.9712 1.44562 42.9712C1.29607 42.9712 1.29607 42.8715 1.29607 42.7718C1.29607 42.6721 1.29607 42.5724 1.44562 42.5724C1.74472 42.5724 2.04382 42.5724 2.34293 42.5724C2.49248 42.5724 2.49248 42.7219 2.49248 42.7718C2.49248 42.8715 2.54233 42.9712 2.34293 42.9712Z" fill="#C4C4C4"/>
<path d="M48.5542 44.9651C48.5542 45.0648 48.5542 45.1147 48.5542 45.2144C48.5542 45.2642 48.604 45.3141 48.6539 45.3639C48.8034 45.1147 48.9032 44.9153 49.0029 44.666C48.953 44.666 48.9032 44.666 48.8035 44.666C48.6539 44.666 48.5542 44.7657 48.5542 44.9651Z" fill="#C4C4C4"/>
<path d="M47.6074 45.8624C47.2086 45.8624 47.2086 45.8624 47.2086 46.2612C47.2086 46.4108 47.1588 46.4606 47.0092 46.4606C46.7101 46.4606 46.411 46.4606 46.0621 46.4606C45.9125 46.4606 45.8627 46.5105 45.8627 46.66C45.8627 46.7099 45.8627 46.7099 45.8627 46.7597C45.8627 46.9093 45.8128 46.9591 45.6632 46.9591C45.4638 46.9591 45.2146 46.9591 45.0152 46.9591C44.5167 46.9591 44.4668 47.009 44.5167 47.5075C44.5167 47.657 44.5665 47.7069 44.7161 47.7069C44.9653 47.7069 45.2146 47.7069 45.4638 47.7069C45.8128 47.7069 45.8128 47.7069 45.8128 48.0558C45.8128 48.2054 45.8626 48.2552 45.9624 48.3051C46.8597 47.657 47.6573 46.8594 48.3053 45.9123C48.1558 45.9123 48.0062 45.9123 47.9065 45.9123C47.8567 45.8624 47.7071 45.8624 47.6074 45.8624Z" fill="#C4C4C4"/>
<path d="M0.947357 44.666C0.897507 44.666 0.897507 44.666 0.847656 44.666C0.947357 44.9153 1.09691 45.1147 1.19661 45.3639C1.19661 45.3639 1.24646 45.3141 1.24646 45.2642C1.29631 45.1147 1.29631 44.9651 1.29631 44.8156C1.24646 44.666 1.09691 44.666 0.947357 44.666Z" fill="#C4C4C4"/>
<path d="M4.83519 47.6571C5.33369 47.6571 5.28384 47.7069 5.28384 47.2084C5.28384 46.9592 5.23399 46.9093 4.98474 46.9093C4.68564 46.9093 4.38653 46.9093 4.08743 46.9093C3.93788 46.9093 3.88803 46.8595 3.93788 46.7099V46.6601C3.93788 46.4108 3.93788 46.4108 3.68863 46.4108C3.48923 46.4108 3.23997 46.4108 3.04057 46.4108C2.64177 46.4108 2.59192 46.4108 2.59192 46.012C2.59192 45.8625 2.54207 45.8126 2.39252 45.8126C2.09341 45.8126 1.84416 45.8126 1.54506 45.8126C1.49521 45.8126 1.44536 45.8126 1.39551 45.8126C1.99371 46.7598 2.79132 47.5574 3.68863 48.2054C3.83818 48.1556 3.83818 48.1057 3.83818 47.8066C3.83818 47.7069 3.88803 47.6571 3.98773 47.6571C4.13728 47.6571 4.33668 47.6571 4.48624 47.6571C4.68564 47.6571 4.78534 47.6571 4.83519 47.6571Z" fill="#C4C4C4"/>
<path d="M9.6214 48.7038C9.5217 48.7038 9.422 48.7038 9.3223 48.5543C9.27245 48.305 8.8238 48.2552 8.67425 48.5044C8.57454 48.654 8.52469 48.7537 8.32529 48.7038C8.12589 48.7038 8.07604 48.7537 8.12589 48.9531C8.12589 49.1026 8.27544 49.1027 8.37514 49.1027C8.47484 49.1027 8.62439 49.1027 8.62439 49.1525C8.67425 49.4018 8.8238 49.3519 9.0232 49.4018C9.1229 49.3519 9.3223 49.3519 9.3223 49.3021C9.37215 49.1027 9.5217 49.1027 9.67125 49.1525C9.82081 49.1525 9.87066 49.1026 9.87066 48.9531C9.87066 48.7038 9.82081 48.7038 9.6214 48.7038Z" fill="#C4C4C4"/>
<path d="M48.6537 41.4756C48.6537 41.3261 48.6038 41.2762 48.5041 41.3261C48.3047 41.3261 48.1552 41.3261 47.9558 41.3261C47.8561 41.3261 47.7564 41.3261 47.6567 41.3261C47.2579 41.3261 47.2579 41.3261 47.208 41.7249C47.208 41.8246 47.1582 41.8744 47.0585 41.8744C46.8092 41.8744 46.5101 41.8744 46.2609 41.8744C45.9119 41.8744 45.9119 41.8744 45.9119 42.2234C45.9119 42.3729 45.8621 42.3729 45.7624 42.3729C45.563 42.3729 45.3137 42.3729 45.1143 42.3729C44.6158 42.3729 44.566 42.4228 44.6158 42.9213C44.6158 43.0708 44.6657 43.1207 44.8152 43.1207C45.1143 43.1207 45.4134 43.1207 45.6627 43.1207C45.9119 43.1207 45.9119 43.1207 45.9119 43.3699C45.9119 43.6192 46.0615 43.669 46.211 43.669C46.4603 43.669 46.6597 43.669 46.9089 43.669C47.3077 43.669 47.2579 43.669 47.2579 43.9681C47.2579 44.1177 47.3077 44.1675 47.4573 44.1675C47.7564 44.1675 48.0555 44.1675 48.4044 44.1675C48.7035 44.1675 48.7534 44.1675 48.7534 43.8684C48.7534 43.7189 48.8032 43.669 48.9528 43.669C49.1522 43.669 49.3018 43.669 49.5012 43.669C49.7006 43.0708 49.8501 42.4726 49.9 41.8744C49.6507 41.8744 49.4513 41.8744 49.2021 41.8744C48.6537 41.8744 48.6537 41.8744 48.6537 41.4756ZM48.4044 42.9711C48.2549 42.9711 48.1053 42.9711 47.9558 42.9711C47.8062 42.9711 47.6567 42.9711 47.5071 42.9711C47.3576 42.9711 47.3576 42.8714 47.3576 42.7717C47.3576 42.672 47.3077 42.5225 47.4573 42.5225C47.7564 42.5225 48.0555 42.5225 48.4044 42.5225C48.6038 42.5225 48.5041 42.672 48.5041 42.7717C48.554 42.8714 48.554 42.9711 48.4044 42.9711Z" fill="#C4C4C4"/>
<path d="M41.2262 48.5544C41.1265 48.3051 40.628 48.3051 40.5283 48.5544C40.4785 48.7538 40.3289 48.7538 40.1794 48.7538C40.0298 48.7538 39.98 48.8036 39.98 48.9532C39.98 49.1027 40.0298 49.2024 40.1794 49.1526C40.2791 49.1526 40.4286 49.1526 40.4286 49.2024C40.4785 49.4018 40.6779 49.4018 40.8274 49.4018C40.9271 49.352 41.1265 49.352 41.1764 49.2523C41.2262 49.1027 41.3758 49.1027 41.4755 49.1027C41.5752 49.1027 41.6749 49.0529 41.6749 48.9532C41.6749 48.7538 41.6749 48.7039 41.4755 48.7039C41.3758 48.7039 41.2761 48.7039 41.2262 48.5544Z" fill="#C4C4C4"/>
<path d="M28.9629 44.666H28.9131C28.8632 44.6161 28.8134 44.6161 28.8134 44.5663C28.8134 44.4167 28.7137 44.4167 28.614 44.4167C28.3647 44.4167 28.0656 44.4167 27.8163 44.4167C27.6668 44.4167 27.5671 44.3669 27.5671 44.2173C27.5671 44.0677 27.5671 43.968 27.5671 43.8185C27.5671 43.6689 27.5172 43.5692 27.3677 43.6191C27.2181 43.6191 27.0686 43.6191 26.9689 43.6191C26.5701 43.6191 26.5701 43.6191 26.5202 43.2203C26.5202 43.0707 26.4704 43.0209 26.3208 43.0209C26.1713 43.0209 26.0217 43.0209 25.922 43.0209C25.5731 43.0209 25.5731 43.0209 25.5731 42.6719C25.5731 42.5224 25.5232 42.4725 25.3737 42.4725C25.1244 42.4725 24.8253 42.4725 24.5761 42.4725C24.4265 42.4725 24.3767 42.5224 24.3268 42.6719C24.277 43.0209 24.277 43.0209 23.928 43.0209H23.8782C23.4794 43.0209 23.3797 42.971 23.4295 43.4695C23.4295 43.6191 23.3797 43.6191 23.28 43.6191C23.0307 43.6191 22.8313 43.6191 22.582 43.6191C22.4325 43.6191 22.3826 43.6689 22.3826 43.8185C22.3826 43.968 22.3826 44.1176 22.3826 44.2672C22.3826 44.4167 22.3328 44.4666 22.1832 44.4666C21.8841 44.4666 21.585 44.4666 21.3358 44.4666C21.2859 44.4666 21.1862 44.5164 21.1862 44.5663C21.1862 44.7158 21.0865 44.7158 20.9868 44.7158C20.8871 44.7158 20.7874 44.7158 20.7376 44.7158C20.6877 44.7158 20.6379 44.7657 20.6379 44.8155C20.6379 45.0149 20.588 45.2143 20.6379 45.4137C20.6379 45.4636 20.8871 45.4636 20.9868 45.4636H21.0367C21.0865 45.5134 21.1364 45.5134 21.1364 45.5633C21.1364 45.663 21.2361 45.7128 21.3358 45.7128C21.6349 45.7128 21.934 45.7128 22.2331 45.7128C22.3328 45.7128 22.3826 45.7627 22.3826 45.8624C22.3826 46.0119 22.3826 46.1615 22.3826 46.311C22.3826 46.5104 22.4325 46.5603 22.6319 46.5603C22.8811 46.5603 23.0805 46.5603 23.3298 46.5603C23.4295 46.5603 23.4794 46.6101 23.4794 46.7098C23.5292 47.1585 23.5292 47.1585 23.9779 47.1585C23.9779 47.1585 23.9779 47.1585 24.0277 47.1585C24.4265 47.1585 24.4265 47.1585 24.4265 47.5573C24.4265 47.7068 24.4764 47.7567 24.6259 47.7567C24.7755 47.7567 24.9749 47.7567 25.1244 47.7567C25.6728 47.7567 25.6229 47.7567 25.6229 47.308C25.6229 47.2083 25.6728 47.1585 25.7725 47.1585C25.922 47.1585 26.0716 47.1585 26.1713 47.1585C26.6199 47.1585 26.5701 47.1585 26.5701 46.7597C26.5701 46.6101 26.6199 46.5603 26.7695 46.5603C26.9689 46.5603 27.2181 46.5603 27.4175 46.5603C27.5671 46.5603 27.6668 46.5104 27.6169 46.311C27.6169 46.2113 27.6169 46.0618 27.6169 45.9621C27.6169 45.7128 27.6169 45.7128 27.8662 45.7128C28.1653 45.7128 28.4644 45.7128 28.8134 45.7128C28.8134 45.4636 28.9131 45.4636 29.0626 45.4636C29.1623 45.4636 29.2122 45.4636 29.3119 45.4636C29.3617 45.4636 29.4116 45.4137 29.4116 45.4137C29.4116 45.2143 29.4116 45.0149 29.3617 44.8155C29.3119 44.666 29.1125 44.666 28.9629 44.666ZM24.3268 43.3698C24.7256 43.3698 25.1244 43.3698 25.5232 43.3698C25.5731 43.3698 25.6229 43.4197 25.6229 43.4695C25.6229 43.5194 25.6229 43.5692 25.6229 43.6689C25.6229 43.7686 25.5731 43.8185 25.4734 43.8185C25.274 43.8185 25.0746 43.8185 24.925 43.8185C24.7755 43.8185 24.6259 43.8185 24.4764 43.8185C24.2271 43.8185 24.2271 43.8185 24.2271 43.5692C24.2271 43.5194 24.1773 43.3698 24.3268 43.3698ZM23.0805 45.2642C22.8313 45.2642 22.582 45.2642 22.3328 45.2642C22.1334 45.2642 22.1832 45.1645 22.1832 45.0149C22.1832 44.9152 22.1334 44.7657 22.3328 44.7657C22.4823 44.7657 22.6319 44.7657 22.7814 44.7657C22.931 44.7657 23.0805 44.7657 23.2301 44.7657C23.3298 44.7657 23.3797 44.8155 23.3797 44.9152C23.3797 45.2642 23.3797 45.2642 23.0805 45.2642ZM25.4734 46.7098C25.274 46.7098 25.1244 46.7098 24.925 46.7098C24.7256 46.7098 24.5761 46.7098 24.3767 46.7098C24.277 46.7098 24.2271 46.66 24.2271 46.5603C24.2271 46.2612 24.2271 46.2612 24.5262 46.2612C24.8253 46.2612 25.1743 46.2612 25.4734 46.2612C25.6728 46.2612 25.6728 46.3609 25.6728 46.5104C25.6229 46.6101 25.6229 46.7098 25.4734 46.7098ZM26.5701 46.0119C26.5701 46.0618 26.5202 46.0618 26.4704 46.0618C26.3208 46.0618 26.1713 46.0618 26.0217 46.0618C25.9719 46.0618 25.922 46.0119 25.922 45.9621C25.922 45.8624 25.8722 45.8125 25.7725 45.8125C25.6728 45.8125 25.5731 45.8125 25.5731 45.663C25.5731 45.6131 25.4235 45.5134 25.3238 45.5134C25.1244 45.5134 24.8752 45.5134 24.6758 45.5134C24.5262 45.5134 24.4265 45.5633 24.3767 45.7627C24.3767 45.8125 24.277 45.8624 24.2271 45.8624C24.1274 45.8624 24.0277 45.8624 24.0277 46.0119C24.0277 46.0618 23.928 46.1116 23.8782 46.1116C23.7785 46.1116 23.6788 46.1116 23.5791 46.1116C23.3298 46.1116 23.3298 46.1116 23.3298 45.8624C23.3298 45.663 23.3797 45.6131 23.5791 45.663C23.6788 45.663 23.8283 45.7128 23.8283 45.5134C23.8283 45.5134 23.928 45.4636 23.9779 45.4636C24.277 45.4636 24.277 45.4137 24.277 45.1645C24.277 45.0149 24.3268 44.8654 24.1773 44.7657L24.1274 44.7158C23.9779 44.7158 23.8283 44.7158 23.8283 44.5164C23.8283 44.5164 23.6788 44.4666 23.6289 44.4666C23.4295 44.4666 23.3298 44.317 23.3797 44.1176C23.3797 44.0678 23.4794 44.0678 23.5292 44.0678C23.6289 44.0678 23.7286 44.0678 23.8283 44.0678C23.928 44.0678 24.0277 44.0677 24.0277 44.2173C24.0277 44.2672 24.1274 44.2672 24.1773 44.2672C24.277 44.2672 24.3767 44.2672 24.3767 44.4167C24.3767 44.5663 24.4265 44.6161 24.5761 44.6161C24.8752 44.6161 25.1244 44.6161 25.4235 44.6161C25.5232 44.6161 25.6229 44.5663 25.6229 44.4666C25.6229 44.2672 25.7226 44.2173 25.8722 44.2672C25.922 44.2672 25.922 44.2672 26.0217 44.2672C26.0217 44.0678 26.1214 44.0179 26.271 44.0678C26.3208 44.0678 26.4205 44.0678 26.4704 44.0678C26.7196 44.0678 26.7196 44.0678 26.7196 44.317C26.7196 44.4666 26.6698 44.5164 26.5202 44.5164C26.3707 44.5164 26.2211 44.4666 26.2211 44.7158C26.2211 44.7158 26.1214 44.7657 26.0716 44.7657C25.8223 44.7657 25.7725 44.8654 25.7725 45.0648C25.7725 45.4137 25.8223 45.4636 26.0716 45.5134C26.1214 45.5134 26.2211 45.5633 26.2211 45.6131C26.2211 45.7128 26.3208 45.7627 26.3707 45.7627H26.4205C26.5701 45.663 26.6698 45.8125 26.5701 46.0119ZM27.4674 45.2642C27.3178 45.2642 27.1683 45.2642 27.0187 45.2642C26.8692 45.2642 26.7695 45.2642 26.6199 45.2642C26.4704 45.2642 26.4704 45.1645 26.4704 45.0648C26.4704 44.9651 26.4205 44.8155 26.6199 44.8155C26.919 44.8155 27.1683 44.8155 27.4674 44.8155C27.6668 44.8155 27.6169 44.9651 27.6169 45.0648C27.6668 45.1645 27.6668 45.2642 27.4674 45.2642Z" fill="#C4C4C4"/>
<path d="M21.7346 21.7348C21.7844 21.7847 21.8343 21.7847 21.8343 21.8345C21.8841 21.8844 21.9838 21.9342 22.0337 21.9841C22.0835 22.0339 22.0835 22.0339 22.1334 22.0838C21.4853 20.5883 20.8372 18.9432 20.0895 17.2483C20.0396 17.4477 20.0396 17.5972 19.9898 17.7966C19.9898 17.8465 19.9898 17.8963 19.9399 17.996C20.239 18.6441 20.5381 19.2922 20.8372 19.9402C21.1364 20.5883 21.4355 21.0868 21.7346 21.7348Z" fill="#C4C4C4"/>
<path d="M22.1835 21.4856C22.3331 21.6351 22.4328 21.685 22.5823 21.8345C22.0339 20.2892 21.4856 18.5943 20.8874 16.8495C20.8375 17.0489 20.7877 17.1984 20.7378 17.348C20.7378 17.3978 20.688 17.4477 20.688 17.5474C20.9372 18.2453 21.1865 18.8934 21.4357 19.5414C21.7348 20.2393 21.9841 20.8874 22.1835 21.4856Z" fill="#C4C4C4"/>
<path d="M23.6791 8.67392C23.9284 8.67392 24.1278 8.47452 24.1278 8.22527C24.1278 7.97601 23.9284 7.77661 23.6791 7.77661C23.4299 7.77661 23.2305 7.97601 23.2305 8.22527C23.2305 8.47452 23.4299 8.67392 23.6791 8.67392Z" fill="#C4C4C4"/>
<path d="M25.3741 11.1666C25.2245 11.1167 25.1248 11.017 25.0251 10.8176C25.2245 10.7179 25.7729 10.4687 25.7729 10.1197C25.7729 9.7209 25.4239 9.37195 24.9753 9.37195C24.5266 9.37195 24.1777 9.7209 24.1777 10.1197C24.1777 10.4687 24.726 10.7179 24.9254 10.8176C24.8257 11.017 24.726 11.1167 24.5765 11.1666C24.2275 11.2164 23.8287 10.8176 23.8287 10.8176L23.729 10.9173C23.729 10.9173 24.1278 11.3161 24.4768 11.3161C24.5266 11.3161 24.5266 11.3161 24.5765 11.3161C24.726 11.2663 24.8756 11.1666 24.9753 10.9672C25.075 11.1666 25.2245 11.2663 25.3741 11.3161C25.4239 11.3161 25.4239 11.3161 25.4738 11.3161C25.8726 11.3161 26.2215 10.9672 26.2215 10.9173L26.1218 10.8176C26.1218 10.8176 25.723 11.2164 25.3741 11.1666Z" fill="#C4C4C4"/>
<path d="M26.3707 21.4357C26.3707 21.4855 26.3707 21.5354 26.4206 21.5852C26.5701 20.7876 26.7695 19.9402 26.9191 19.0429C27.1185 18.1456 27.2681 17.2483 27.4675 16.351C27.3179 16.5005 27.2182 16.6002 27.0686 16.6999C27.0188 16.7498 26.9689 16.7996 26.9191 16.8495C26.7197 17.9462 26.5701 19.0429 26.3707 20.0897C26.3209 20.4387 26.271 20.7876 26.2212 21.0867C26.2212 21.1366 26.271 21.1864 26.271 21.2363C26.3209 21.2861 26.3707 21.336 26.3707 21.4357Z" fill="#C4C4C4"/>
<path d="M24.3768 5.33408C24.4266 5.33408 24.4765 5.33408 24.4765 5.33408L24.9251 5.13467L25.3738 5.33408C25.4236 5.33408 25.4735 5.33408 25.4735 5.33408L25.4236 4.73587L25.8723 4.28722L25.2741 4.18751L24.9251 3.63916L24.626 4.18751L24.0278 4.28722L24.4266 4.73587L24.3768 5.33408Z" fill="#C4C4C4"/>
<path d="M26.1713 8.67392C26.4206 8.67392 26.62 8.47452 26.62 8.22527C26.62 7.97601 26.4206 7.77661 26.1713 7.77661C25.9221 7.77661 25.7227 7.97601 25.7227 8.22527C25.7227 8.47452 25.9221 8.67392 26.1713 8.67392Z" fill="#C4C4C4"/>
<path d="M23.0806 21.6849C22.8812 20.8873 22.6319 20.0398 22.4325 19.1924C22.1833 18.3449 21.9839 17.4476 21.7346 16.5503C21.6349 16.8494 21.5851 16.9491 21.4854 17.2482C21.934 18.6939 22.3328 20.0398 22.7316 21.2861C22.8313 21.4356 22.931 21.5353 23.0806 21.6849Z" fill="#C4C4C4"/>
<path d="M28.2154 21.9841C28.2154 22.0838 28.2154 22.1336 28.2154 22.2832C28.9631 20.8375 29.7109 19.2922 30.5085 17.6471C30.2592 17.7468 30.1595 17.7966 29.9103 17.9462C29.3121 19.2922 28.7139 20.5384 28.1655 21.7348C28.2154 21.8345 28.2154 21.8844 28.2154 21.9841Z" fill="#C4C4C4"/>
<path d="M41.0269 0H8.82353C3.93819 0 0 4.03789 0 9.07278V39.4816V40.8275C0 40.8774 0 40.8774 0 40.8774C0.0498504 40.8774 0.149551 40.8774 0.249252 40.8774C0.498504 40.8774 0.747757 40.8774 0.997009 40.8774C1.19641 40.8774 1.29611 40.7777 1.29611 40.5783C1.29611 40.5284 1.29611 40.4287 1.29611 40.3789C1.29611 40.329 1.39581 40.2792 1.44566 40.2792C1.74477 40.2792 2.04387 40.2792 2.34297 40.2792C2.49252 40.2293 2.49252 40.329 2.49252 40.3789C2.49252 40.9272 2.54237 40.8275 2.99103 40.8275C3.19043 40.8275 3.43968 40.8275 3.63908 40.8275C3.78863 40.8275 3.83848 40.8774 3.83848 41.0269C3.83848 41.3759 3.88833 41.4257 4.23729 41.4257C4.48654 41.4257 4.73579 41.4257 4.98504 41.4257C5.1346 41.4257 5.18445 41.4756 5.18445 41.5753C5.18445 41.9242 5.18445 41.9242 5.5334 41.9242C5.8325 41.9242 6.1316 41.9242 6.43071 41.9242C6.53041 41.9242 6.58026 41.9741 6.58026 42.0738C6.58026 42.5224 6.58026 42.5224 7.07876 42.5224C7.27817 42.5224 7.52742 42.5224 7.72682 42.5224C7.92622 42.5224 7.87637 42.672 7.87637 42.7717C7.87637 42.8714 7.87637 42.9711 7.72682 42.9711C7.42772 42.9711 7.07876 42.9711 6.77966 42.9711C6.63011 42.9711 6.58026 43.0209 6.58026 43.1705C6.58026 43.32 6.63011 43.5194 6.53041 43.5693C6.43071 43.6191 6.28116 43.6191 6.1316 43.6191C5.88235 43.6191 5.6331 43.6191 5.38385 43.6191C5.2343 43.6191 5.18445 43.669 5.18445 43.8185C5.18445 44.2173 5.18445 44.2173 4.78564 44.2173C4.53639 44.2173 4.28714 44.2173 4.08774 44.2173C3.93819 44.2173 3.88833 44.2672 3.88833 44.4167C3.88833 44.7158 3.88833 44.7158 3.58923 44.7158C3.29013 44.7158 3.04088 44.7158 2.74177 44.7158C2.59222 44.7158 2.54237 44.7657 2.54237 44.9153C2.49252 45.4138 2.54237 45.4636 3.04088 45.4636C3.24028 45.4636 3.48953 45.4636 3.68893 45.4636C3.83848 45.4636 3.88833 45.5135 3.88833 45.663C3.88833 45.7129 3.88833 45.7627 3.88833 45.8126C3.88833 46.0618 3.93819 46.0618 4.18744 46.0618C4.48654 46.0618 4.78564 46.0618 5.0349 46.0618C5.18445 46.0618 5.2343 46.1117 5.2343 46.2612C5.2343 46.5603 5.2343 46.5603 5.58325 46.5603C5.88235 46.5603 6.18146 46.5603 6.48056 46.5603C6.63011 46.5603 6.67996 46.6102 6.67996 46.7597C6.67996 47.1585 6.67996 47.1585 7.07876 47.1585C7.32802 47.1585 7.57727 47.1585 7.77667 47.1585C7.92622 47.1585 7.92622 47.2084 7.92622 47.3081C7.92622 47.6072 7.92622 47.6072 7.62712 47.6072C7.32802 47.6072 7.07876 47.6072 6.77966 47.6072C6.63011 47.6072 6.58026 47.657 6.58026 47.8066C6.58026 48.2054 6.58026 48.2054 6.1316 48.2054C5.88235 48.2054 5.6331 48.2054 5.38385 48.2054C5.2343 48.2054 5.1346 48.2552 5.1346 48.4048C5.1346 48.7537 5.1346 48.7537 4.78564 48.7537C4.68594 48.7537 4.63609 48.7537 4.53639 48.7537C4.98504 49.003 5.48355 49.2522 5.98205 49.4018C6.0319 49.4018 6.0319 49.4018 6.08175 49.4018C6.18146 49.4018 6.23131 49.4516 6.23131 49.5015C7.07876 49.7507 7.92622 49.9003 8.82353 49.9003H41.0269C41.9242 49.9003 42.8215 49.7507 43.6191 49.5015C43.6191 49.4516 43.669 49.4018 43.7687 49.4018C43.8185 49.4018 43.8185 49.4018 43.8684 49.4018C44.3669 49.2024 44.8654 49.003 45.3141 48.7537C45.1645 48.7537 45.015 48.7537 44.8654 48.7537C44.7657 48.7537 44.7158 48.7039 44.7158 48.6042C44.7158 48.2054 44.7159 48.2054 44.2672 48.2054C43.9681 48.2054 43.7188 48.2054 43.4197 48.2054C43.32 48.2054 43.2702 48.1555 43.2702 48.0558C43.2702 47.6072 43.2702 47.6072 42.8215 47.6072C42.5723 47.6072 42.3729 47.6072 42.1236 47.6072C42.0239 47.6072 41.9741 47.5573 41.9741 47.4576C41.9741 47.1585 41.9741 47.1585 42.2732 47.1585C42.5723 47.1585 42.8714 47.1585 43.1705 47.1585C43.2702 47.1585 43.32 47.1087 43.32 47.009C43.32 46.5603 43.32 46.5603 43.7687 46.5603C44.0179 46.5603 44.2672 46.5603 44.5164 46.5603C44.666 46.5603 44.7657 46.5105 44.7657 46.3111C44.7657 46.0618 44.7657 46.0618 45.015 46.0618C45.2642 46.0618 45.5135 46.0618 45.7627 46.0618C45.9621 46.0618 46.0618 45.9621 46.0618 45.7627C46.0618 45.4636 46.0618 45.4636 46.3609 45.4636C46.66 45.4636 46.9093 45.4636 47.2084 45.4636C47.3579 45.4636 47.4078 45.4138 47.4078 45.2642C47.4078 44.6162 47.4078 44.7158 46.9093 44.7158C46.7099 44.7158 46.4606 44.7158 46.2612 44.7158C46.1615 44.7158 46.1117 44.666 46.1117 44.5663C46.1117 44.2672 46.1117 44.2672 45.7627 44.2672C45.5135 44.2672 45.2144 44.2672 44.9651 44.2672C44.8155 44.2672 44.7657 44.2173 44.7657 44.1176C44.7657 43.669 44.7657 43.669 44.317 43.669C44.0678 43.669 43.8185 43.669 43.5693 43.669C43.4197 43.669 43.3699 43.6191 43.3699 43.4696C43.3699 43.0708 43.3699 43.0708 42.9212 43.0708C42.672 43.0708 42.4726 43.0708 42.2233 43.0708C42.0738 43.0708 42.0738 42.9711 42.0738 42.8714C42.0738 42.7717 42.0239 42.6221 42.2233 42.6221C42.5224 42.6221 42.8215 42.6221 43.1705 42.6221C43.32 42.6221 43.3699 42.5723 43.3699 42.4227C43.3699 42.0239 43.3699 42.0239 43.7687 42.0239C44.0179 42.0239 44.317 42.0239 44.5663 42.0239C44.7159 42.0239 44.8156 41.9741 44.7657 41.8245C44.7657 41.5254 44.7657 41.5254 45.0648 41.5254C45.3141 41.5254 45.5633 41.5254 45.8126 41.5254C46.012 41.5254 46.1117 41.4257 46.1117 41.2263C46.1117 40.9771 46.1117 40.9771 46.4108 40.9771C46.7099 40.9771 46.9591 40.9771 47.2582 40.9771C47.4078 40.9771 47.4576 40.9272 47.5075 40.7777C47.5075 40.3789 47.5075 40.3789 47.9063 40.3789C48.1057 40.3789 48.3051 40.3789 48.5045 40.3789C48.654 40.3789 48.7039 40.4287 48.7039 40.5783C48.7039 40.6281 48.7039 40.7278 48.7039 40.7777C48.7537 40.8774 48.8534 40.9771 49.003 40.9771C49.3021 40.9771 49.6012 40.9771 49.9003 40.9771C49.9501 40.9771 49.9501 40.9771 50 40.9771V40.9272V39.5813V9.17248C49.8504 4.03789 45.9123 0 41.0269 0ZM5.9322 45.2642C5.6331 45.2642 5.334 45.2642 5.0349 45.2642C4.88534 45.2642 4.78564 45.2144 4.78564 45.0648C4.78564 44.8156 4.78564 44.8156 5.0349 44.8156C5.18445 44.8156 5.334 44.8156 5.5334 44.8156C5.68295 44.8156 5.88235 44.8156 6.0319 44.8156C6.18146 44.8156 6.23131 44.8654 6.23131 44.9651C6.23131 45.2642 6.23131 45.2642 5.9322 45.2642ZM43.9182 44.8156C44.0678 44.8156 44.2173 44.8156 44.3669 44.8156C44.5663 44.8156 44.7158 44.8156 44.9153 44.8156C45.015 44.8156 45.0648 44.8654 45.0648 44.9651C45.0648 45.2642 45.0648 45.2642 44.7657 45.2642C44.4666 45.2642 44.1176 45.2642 43.8185 45.2642C43.669 45.2642 43.6191 45.2144 43.6191 45.1147C43.6191 44.8156 43.6191 44.8156 43.9182 44.8156ZM36.7896 40.2293C37.1884 40.2293 37.5374 40.2293 37.9362 40.2293C37.986 40.2293 38.0359 40.2792 38.0857 40.329C38.1356 40.6281 38.0857 40.6281 37.7866 40.6281C37.6371 40.6281 37.4875 40.6281 37.3878 40.6281C37.1884 40.6281 36.989 40.6281 36.7896 40.6281C36.5902 40.6281 36.6401 40.5284 36.6401 40.4287C36.6899 40.3789 36.6401 40.2293 36.7896 40.2293ZM30.4586 40.3789C30.5085 40.329 30.5085 40.2792 30.5583 40.2792C30.658 40.2792 30.8076 40.2792 30.9073 40.2792C31.007 40.2792 31.0568 40.2792 31.1565 40.2792C31.3559 40.2792 31.3559 40.329 31.3559 40.4786C31.3559 40.678 31.3061 40.7278 31.1067 40.7278C30.9571 40.7278 30.7577 40.7278 30.6082 40.7278C30.4586 40.7278 30.4088 40.678 30.4088 40.5284C30.4586 40.4287 30.4586 40.3789 30.4586 40.3789ZM25.3739 40.678C25.2243 40.678 25.0748 40.678 24.9252 40.678C24.7258 40.678 24.5763 40.678 24.3769 40.678C24.2772 40.678 24.2273 40.6281 24.2273 40.5284C24.2273 40.4786 24.2273 40.4287 24.2273 40.3789C24.2273 40.329 24.327 40.2293 24.327 40.2293C24.7258 40.2293 25.1246 40.2293 25.5234 40.2293C25.5733 40.2293 25.6231 40.2792 25.6231 40.329C25.673 40.678 25.673 40.678 25.3739 40.678ZM19.0927 40.678C19.0429 40.678 18.9432 40.678 18.8933 40.678C18.7936 40.678 18.7438 40.678 18.6441 40.678C18.4945 40.678 18.3948 40.6281 18.3948 40.4786C18.3948 40.2293 18.3948 40.2293 18.6441 40.2293C18.8435 40.2293 18.993 40.2293 19.1924 40.2293C19.2921 40.2293 19.342 40.2792 19.342 40.3789C19.3918 40.678 19.3918 40.678 19.0927 40.678ZM13.0608 40.678C12.662 40.678 12.3131 40.678 11.9143 40.678C11.7149 40.678 11.7647 40.5284 11.7647 40.4287C11.7647 40.329 11.7149 40.1795 11.9143 40.1795C12.1137 40.1795 12.3131 40.1795 12.5125 40.1795C12.7119 40.1795 12.9113 40.1795 13.1107 40.1795C13.3101 40.1795 13.2602 40.2792 13.2602 40.3789C13.2104 40.5783 13.2104 40.678 13.0608 40.678ZM5.9322 40.678C5.6331 40.678 5.28415 40.678 4.98504 40.678C4.78564 40.678 4.78564 40.5783 4.78564 40.4786C4.78564 40.329 4.78564 40.2293 4.98504 40.2293C5.18445 40.2293 5.334 40.2293 5.5334 40.2293C5.7328 40.2293 5.88235 40.2293 6.08175 40.2293C6.23131 40.2293 6.23131 40.2792 6.23131 40.3789C6.23131 40.678 6.23131 40.678 5.9322 40.678ZM7.82652 41.8744C7.72682 41.8744 7.62712 41.8744 7.67697 41.7248C7.67697 41.5753 7.62712 41.5254 7.47757 41.5254C7.42772 41.5254 7.42772 41.5254 7.37787 41.5254C7.22831 41.5254 7.02891 41.5254 6.97906 41.4756C6.92921 41.326 6.92921 41.1266 6.92921 40.9272C6.92921 40.8774 7.02891 40.8275 7.07876 40.8275C7.22831 40.8275 7.37787 40.8275 7.47757 40.8275C7.57727 40.8275 7.67697 40.7777 7.62712 40.678C7.62712 40.5284 7.67697 40.4786 7.82652 40.4786C7.97607 40.4786 8.12562 40.4786 8.22532 40.4786C8.37487 40.4786 8.47458 40.4786 8.47458 40.2792L8.57428 40.2293C8.67398 40.2293 8.82353 40.2293 8.92323 40.2293C9.02293 40.2293 9.12263 40.2293 9.17248 40.2293C9.27218 40.2293 9.37188 40.2293 9.37188 40.3789C9.37188 40.4287 9.47158 40.4786 9.52144 40.4786C9.67099 40.4786 9.87039 40.4786 10.0199 40.4786C10.1196 40.4786 10.1695 40.5284 10.1695 40.6281C10.1695 40.7777 10.2692 40.8275 10.3689 40.8275C10.5184 40.8275 10.6181 40.8275 10.7677 40.8275C10.8674 40.8275 10.9172 40.8774 10.9172 40.9771C10.9671 41.5254 10.9671 41.5254 10.4187 41.5254C10.2692 41.5254 10.1196 41.5254 10.1196 41.7747C10.1196 41.8245 10.0199 41.8744 9.97009 41.8744C9.82054 41.8744 9.62114 41.8744 9.47158 41.8744C9.37188 41.8744 9.27218 41.8744 9.27218 42.0239C9.27218 42.0738 9.22233 42.1236 9.17248 42.1236C8.92323 42.1236 8.72383 42.1236 8.47458 42.1236C8.42473 42.1236 8.37487 42.0738 8.37487 42.0239C8.37487 41.8744 8.27517 41.8744 8.17547 41.8744C8.17547 41.8744 8.02592 41.8744 7.82652 41.8744ZM7.87637 46.4606C7.77667 46.4606 7.67697 46.4108 7.72682 46.3111C7.72682 46.1615 7.67697 46.1117 7.52742 46.1117C7.37787 46.1117 7.27817 46.1117 7.12861 46.1117C7.02891 46.1117 6.97906 46.0618 6.97906 45.9621C6.92921 45.4636 6.92921 45.4636 7.47757 45.4138C7.72682 45.4138 7.72682 45.4138 7.72682 45.1645C7.72682 44.5663 7.77667 44.666 7.22831 44.666C6.97906 44.666 6.97906 44.666 6.97906 44.4167C6.97906 43.9182 6.92921 43.9681 7.42772 43.9681C7.57727 43.9681 7.72682 44.0179 7.72682 43.7687C7.72682 43.7687 7.82652 43.7188 7.87637 43.7188C8.02592 43.7188 8.17547 43.7188 8.27517 43.7188C8.42473 43.7188 8.52443 43.669 8.57428 43.5194C8.57428 43.4696 8.67398 43.4197 8.67398 43.4197C8.77368 43.4197 8.92323 43.4197 9.02293 43.4197C9.12263 43.4197 9.17248 43.4197 9.27218 43.4197C9.37188 43.4197 9.47158 43.4197 9.47158 43.5693C9.47158 43.6191 9.62114 43.7188 9.72084 43.7188C9.87039 43.7687 9.97009 43.7188 10.1196 43.7188C10.2193 43.7188 10.319 43.7188 10.319 43.8684C10.319 43.9681 10.3689 44.0179 10.4686 44.0179C10.6181 44.0179 10.8175 44.0179 10.9671 44.0179C11.0668 44.0179 11.1166 44.0678 11.1166 44.1675C11.1166 44.8156 11.2163 44.7158 10.6181 44.7158C10.2692 44.7158 10.2692 44.7159 10.2692 45.0648C10.2692 45.4636 10.2692 45.4636 10.668 45.4636C11.1665 45.4636 11.0668 45.4138 11.0668 45.8624C11.0668 46.1117 11.0668 46.1117 10.8175 46.1117C10.7178 46.1117 10.5683 46.1117 10.4686 46.1117C10.319 46.1117 10.2692 46.1615 10.2692 46.3111C10.2692 46.4606 10.2193 46.4606 10.0698 46.4606C9.92024 46.4606 9.72084 46.4606 9.57129 46.4606C9.47159 46.4606 9.42173 46.4606 9.42173 46.6102C9.42173 46.7099 9.37188 46.7099 9.27218 46.7099C9.07278 46.7099 8.82353 46.7099 8.62413 46.7099C8.57428 46.7099 8.47458 46.66 8.47458 46.6102C8.47458 46.5105 8.42473 46.4606 8.32502 46.4606C8.17547 46.4606 8.02592 46.4606 7.87637 46.4606ZM10.6181 49.2024C10.4187 49.2024 10.319 49.1525 10.2692 49.4516C10.2692 49.5015 10.1695 49.5513 10.1695 49.5513C9.97009 49.5513 9.82054 49.5513 9.62114 49.5513C9.57129 49.5513 9.47158 49.6012 9.47158 49.6012C9.47158 49.7507 9.37188 49.7507 9.27218 49.7507C9.07278 49.7507 8.87338 49.7507 8.67398 49.7507C8.62413 49.7507 8.52443 49.7009 8.52443 49.7009C8.52443 49.5513 8.42473 49.5513 8.27517 49.5513C8.12562 49.5513 7.97607 49.5513 7.77667 49.5513C7.67697 49.5513 7.62712 49.5015 7.62712 49.4018C7.62712 49.2522 7.57727 49.1525 7.42772 49.2024H7.37787C7.22831 49.2024 7.07876 49.2024 6.92921 49.1525C6.92921 48.9531 6.92921 48.7537 6.92921 48.5543C6.92921 48.5045 7.02891 48.4546 7.07876 48.4546C7.22831 48.4546 7.37787 48.4546 7.52742 48.4546C7.62712 48.4546 7.67697 48.4546 7.67697 48.3051C7.67697 48.2552 7.77667 48.2054 7.82652 48.2054C7.97607 48.2054 8.17547 48.2054 8.32502 48.2054C8.42473 48.2054 8.52443 48.1555 8.52443 48.0558C8.52443 47.9063 8.62413 47.8564 8.72383 47.8564C8.82353 47.8564 8.87338 47.8564 8.97308 47.8564C9.02293 47.8564 9.12263 47.8564 9.17248 47.8564C9.32203 47.8564 9.42173 47.8564 9.42173 48.0558C9.42173 48.1057 9.52144 48.1555 9.57129 48.2054C9.72084 48.2054 9.87039 48.2054 10.0698 48.2054C10.1695 48.2054 10.2193 48.2054 10.2193 48.3549C10.2193 48.4048 10.319 48.4546 10.3689 48.4546C10.5683 48.4546 10.7178 48.4546 10.9172 48.4546C11.0169 48.4546 11.0668 48.5045 11.0668 48.6042V48.654C11.1166 49.2024 11.1166 49.2024 10.6181 49.2024ZM13.0608 49.8006C12.8614 49.8006 12.7119 49.8006 12.5125 49.8006C12.3131 49.8006 12.1635 49.8006 11.9641 49.8006C11.8146 49.8006 11.8146 49.7009 11.8146 49.6012C11.8146 49.5015 11.8146 49.4018 11.9641 49.4018C12.3629 49.4018 12.7119 49.4018 13.1107 49.4018C13.2602 49.4018 13.2602 49.5015 13.2602 49.6012C13.2104 49.7009 13.2104 49.8006 13.0608 49.8006ZM19.3918 49.7009C19.3918 49.7507 19.2921 49.8006 19.2423 49.8006C19.0429 49.8006 18.7936 49.8006 18.5942 49.8006C18.4447 49.8006 18.4447 49.7009 18.4447 49.6012C18.4447 49.5015 18.3948 49.4018 18.5942 49.4018C18.6939 49.4018 18.8435 49.4018 18.9432 49.4018C18.993 49.4018 19.0927 49.4018 19.1426 49.4018C19.3918 49.3519 19.4417 49.4516 19.3918 49.7009ZM25.4736 49.8006C25.0748 49.8006 24.7258 49.8006 24.327 49.8006C24.1276 49.8006 24.1775 49.7009 24.1775 49.6012C24.1775 49.5015 24.1775 49.4018 24.327 49.4018C24.5264 49.4018 24.7258 49.4018 24.8754 49.4018C25.0748 49.4018 25.2243 49.4018 25.4237 49.4018C25.5733 49.4018 25.5733 49.5015 25.5733 49.6012C25.6231 49.7009 25.673 49.8006 25.4736 49.8006ZM31.2562 49.8006C31.1565 49.8006 31.0568 49.8006 30.9571 49.8006C30.9073 49.8006 30.8076 49.8006 30.7577 49.8006C30.5085 49.8006 30.5085 49.8006 30.5085 49.5513C30.5085 49.4018 30.5583 49.3519 30.7079 49.3519C30.9073 49.3519 31.1067 49.3519 31.3061 49.3519C31.4556 49.3519 31.4556 49.4516 31.4556 49.5513C31.4058 49.7009 31.4058 49.8006 31.2562 49.8006ZM37.9362 49.8006C37.5872 49.8006 37.1884 49.8006 36.8395 49.8006C36.6899 49.8006 36.6899 49.7009 36.6899 49.6012C36.6899 49.5015 36.6899 49.3519 36.8395 49.3519C37.0389 49.3519 37.1884 49.3519 37.3878 49.3519C37.5872 49.3519 37.7368 49.3519 37.9362 49.3519C38.0857 49.3519 38.0857 49.4516 38.0857 49.5513C38.0857 49.7009 38.1356 49.8006 37.9362 49.8006ZM38.4347 47.7069V47.7567C38.4347 48.1555 38.4347 48.1555 38.0359 48.1555C37.7866 48.1555 37.4875 48.1555 37.2383 48.1555C37.0887 48.1555 37.0389 48.2054 37.0389 48.3549C37.0389 48.7039 37.0389 48.7039 36.6401 48.7039C36.3908 48.7039 36.1416 48.7039 35.8923 48.7039C35.7428 48.7039 35.6929 48.7537 35.6929 48.9033C35.6929 49.2522 35.7428 49.2024 35.344 49.2024C35.0947 49.2024 34.8455 49.2024 34.5962 49.2024C34.4467 49.2024 34.347 49.3021 34.347 49.4516C34.347 49.8006 34.347 49.8006 33.998 49.8006C33.7986 49.8006 33.5494 49.8006 33.3499 49.8006C33.2004 49.8006 33.1505 49.7507 33.1505 49.6012C33.1505 49.2522 33.1007 49.2024 32.7517 49.2024C32.4526 49.2024 32.2034 49.2024 31.9043 49.2024C31.7547 49.2024 31.7049 49.1525 31.7049 49.0528C31.7049 48.7039 31.7049 48.7039 31.3559 48.7039C31.1067 48.7039 30.8076 48.7039 30.5583 48.7039C30.4586 48.7039 30.4088 48.654 30.4088 48.5543C30.4088 48.1057 30.4088 48.1057 29.9601 48.1057C29.7109 48.1057 29.5115 48.1057 29.2622 48.1057C29.1625 48.1057 29.1127 48.0558 29.1127 47.9561C29.1127 47.657 29.1127 47.657 29.4118 47.657C29.7109 47.657 29.9601 47.657 30.2592 47.657C30.4088 47.657 30.4586 47.6072 30.4586 47.4576C30.4586 47.3081 30.4088 47.1585 30.5085 47.1087C30.6082 47.0588 30.7577 47.0588 30.9073 47.0588C31.1565 47.0588 31.3559 47.0588 31.6052 47.0588C31.7547 47.0588 31.7547 47.009 31.7547 46.9093C31.7547 46.5105 31.7547 46.5105 32.2034 46.5105C32.4526 46.5105 32.652 46.5105 32.9013 46.5105C33.001 46.5105 33.0508 46.5603 33.0508 46.66C33.0508 47.0588 33.0508 47.0588 33.4995 47.0588C33.8485 47.0588 34.2473 47.0588 34.5962 47.0588C34.7458 47.0588 34.7956 47.009 34.7956 46.8594C34.7956 46.3111 34.8455 46.4108 34.347 46.4108C34.1974 46.4108 33.998 46.4108 33.8485 46.4108C33.7488 46.4108 33.6989 46.3609 33.6989 46.2612V46.2114C33.6989 45.7627 33.7488 45.8126 33.2502 45.8126C32.7517 45.8126 32.2034 45.8126 31.7049 45.8126C31.6052 45.8126 31.5055 45.8126 31.5055 45.663C31.5055 45.5633 31.4058 45.5135 31.3061 45.5135C30.9571 45.5135 30.658 45.5135 30.3091 45.5135C30.1097 45.5135 30.01 45.6132 30.01 45.8126C30.01 45.9621 30.01 46.1117 30.01 46.2612C30.01 46.3609 29.9601 46.4108 29.8604 46.4108C29.6112 46.4108 29.3619 46.4108 29.1625 46.4108C29.013 46.4108 28.9631 46.4606 28.9631 46.6102C28.9631 46.9093 28.9631 46.8594 28.664 46.9093C28.2652 46.9093 28.2154 46.8096 28.2154 47.3579C28.2154 47.4576 28.1655 47.5075 28.0658 47.5075C27.7667 47.5075 27.4177 47.5075 27.1186 47.5075C26.9192 47.5075 26.8694 47.6072 26.8694 47.7567C26.8694 47.8066 26.8694 47.9063 26.8694 47.9561C26.8694 48.1555 26.9691 48.2054 27.1685 48.2054C27.4676 48.2054 27.7667 48.2054 28.1157 48.2054C28.2652 48.2054 28.3151 48.2552 28.3151 48.4048C28.3151 48.7537 28.2652 48.7537 28.664 48.7537C29.013 48.7537 29.0628 48.7537 29.0628 49.1525C29.0628 49.3021 29.1625 49.3519 29.2622 49.3519C29.4118 49.3519 29.5613 49.3519 29.7109 49.3519C29.8604 49.3519 29.8604 49.4516 29.8604 49.5513C29.8604 49.651 29.8604 49.7507 29.7109 49.7507C29.0628 49.7507 28.4148 49.7507 27.7667 49.7507C27.667 49.7507 27.6171 49.7009 27.6171 49.6012C27.6171 49.2522 27.5673 49.2024 27.2183 49.2024C27.0688 49.2024 26.9192 49.2024 26.7198 49.2024C26.5703 49.2024 26.5703 49.1525 26.5703 49.0528C26.5703 48.7039 26.5703 48.7039 26.2213 48.7039C26.0718 48.7039 25.9222 48.7039 25.7727 48.7039C25.7228 48.7039 25.673 48.6042 25.6231 48.6042V48.5543C25.6231 48.1555 25.673 48.1555 25.2243 48.1555C25.0249 48.1555 24.7757 48.1555 24.5763 48.1555C24.4267 48.1555 24.3769 48.2054 24.3769 48.3549C24.3769 48.7537 24.3769 48.7537 23.9282 48.7537C23.8784 48.7537 23.8285 48.7537 23.7787 48.7537C23.4796 48.7537 23.3799 48.7537 23.3799 49.1027C23.3799 49.2522 23.33 49.2522 23.2303 49.2522C23.0309 49.2522 22.8315 49.2522 22.6321 49.2522C22.4327 49.2522 22.333 49.3519 22.333 49.5513C22.333 49.8504 22.333 49.8504 22.0339 49.8504C21.4357 49.8504 20.8375 49.8504 20.2891 49.8504C20.1396 49.8504 20.0897 49.8006 20.0897 49.651C20.0897 49.5015 20.1396 49.4018 20.2891 49.4516C20.4387 49.4516 20.5882 49.4516 20.6879 49.4516C20.8375 49.4516 20.8873 49.4018 20.8873 49.2522C20.8873 48.8534 20.8873 48.8534 21.2861 48.8534H21.336C21.5852 48.8534 21.6351 48.8534 21.5852 48.5543C21.5852 48.3549 21.6351 48.3051 21.8345 48.3051C22.1336 48.3051 22.4327 48.3051 22.7318 48.3051C22.9312 48.3051 23.0309 48.2054 23.0309 48.006C23.0309 47.5573 23.0309 47.5573 22.6321 47.5573C22.333 47.5573 22.0837 47.5573 21.7846 47.5573C21.6351 47.5573 21.5852 47.5075 21.5852 47.4078C21.5852 46.9093 21.5852 47.009 21.1366 46.9591C20.8375 46.9591 20.8375 46.9591 20.8375 46.66C20.8375 46.5105 20.7876 46.4606 20.6381 46.4606C20.3888 46.4606 20.1894 46.4606 19.9402 46.4606C19.7906 46.4606 19.7408 46.4108 19.7408 46.2612C19.7408 46.1117 19.7408 46.012 19.7408 45.8624C19.7408 45.663 19.6411 45.5633 19.3918 45.5633C19.0927 45.5633 18.8435 45.5633 18.5444 45.5633C18.3948 45.5633 18.2453 45.6132 18.1954 45.8126C18.1954 45.8624 18.0957 45.9123 18.0459 45.9123C17.4975 45.9123 16.8993 45.9123 16.3509 45.9123C16.0518 45.9123 16.0518 45.9123 16.0518 46.2114C16.0518 46.6102 16.0518 46.5105 15.7029 46.5603C15.5035 46.5603 15.3041 46.5603 15.1047 46.5603C15.005 46.5603 14.9551 46.6102 14.9551 46.7099C14.9053 47.2084 14.9053 47.2084 15.4038 47.2084C15.7527 47.2084 16.1515 47.2084 16.5005 47.2084C16.6002 47.2084 16.6999 47.1585 16.65 47.0588C16.65 46.66 16.65 46.66 17.0987 46.66C17.348 46.66 17.5474 46.66 17.7966 46.66C17.8963 46.66 17.9462 46.7099 17.9462 46.8096C17.9462 47.2582 17.9462 47.2582 18.3948 47.2582C18.6441 47.2582 18.8435 47.2582 19.0927 47.2582C19.1924 47.2582 19.2423 47.3081 19.2423 47.4078C19.2423 47.9561 19.2423 47.8564 19.6909 47.8564C19.9402 47.8564 20.1396 47.8564 20.3888 47.8564C20.4885 47.8564 20.5384 47.9063 20.5882 48.006C20.5882 48.3051 20.5882 48.3051 20.2891 48.3051C19.99 48.3051 19.7408 48.3051 19.4417 48.3051C19.2921 48.3051 19.2423 48.3549 19.2423 48.5045C19.2423 48.9033 19.2423 48.9033 18.8435 48.9033C18.5942 48.9033 18.345 48.9033 18.0957 48.9033C17.996 48.9033 17.9462 48.9531 17.9462 49.0528C17.9462 49.4018 17.9462 49.4018 17.5972 49.4018C17.348 49.4018 17.0987 49.4018 16.8495 49.4018C16.65 49.4018 16.5503 49.5015 16.5503 49.7009C16.5503 50 16.5503 50 16.2512 50C16.002 50 15.7527 50 15.5035 50C15.4038 50 15.3539 49.9501 15.3539 49.8504C15.3539 49.4018 15.3539 49.4516 14.9551 49.4516C14.7059 49.4516 14.4566 49.4516 14.2074 49.4516C14.1077 49.4516 14.0578 49.4018 14.0578 49.3021C14.0578 48.9531 14.0578 48.9531 13.7089 48.9531C13.4596 48.9531 13.1605 48.9531 12.9113 48.9531C12.8116 48.9531 12.7617 48.9033 12.7617 48.8036C12.7617 48.3549 12.7617 48.4048 12.3131 48.4048C12.0638 48.4048 11.8644 48.4048 11.6152 48.4048C11.4656 48.4048 11.4158 48.3549 11.4158 48.2054C11.4158 48.1555 11.4158 48.1057 11.4158 48.0558C11.4158 47.9063 11.3161 47.8066 11.1166 47.8066C10.8175 47.8066 10.4686 47.8066 10.1695 47.8066C10.0199 47.8066 9.92024 47.7567 9.97009 47.6072V47.5573C9.97009 47.4078 10.0199 47.4078 10.1196 47.4078C10.4187 47.4078 10.7677 47.4078 11.0668 47.4078C11.2662 47.4078 11.3659 47.3579 11.3659 47.1087C11.3659 47.0588 11.3659 47.0588 11.3659 47.009C11.3659 46.8594 11.4158 46.8096 11.5653 46.8096C11.8644 46.8096 12.1137 46.8096 12.4128 46.8096C12.662 46.8096 12.7119 46.7597 12.7119 46.5105C12.7119 46.3609 12.7617 46.2612 12.9113 46.2612C13.2104 46.2612 13.5095 46.2612 13.7587 46.2612C13.9083 46.2612 14.008 46.2114 14.008 46.0618C14.008 45.7129 14.008 45.7129 14.4068 45.7129C14.656 45.7129 14.9053 45.7129 15.1545 45.7129C15.3041 45.7129 15.3539 45.663 15.3539 45.5135C15.3539 45.4138 15.3539 45.2642 15.3539 45.1645C15.3539 45.015 15.3041 44.9651 15.1545 44.9651C14.8554 44.9651 14.5563 44.9651 14.2572 44.9651C14.1077 44.9651 14.008 44.9153 14.008 44.7158C14.008 44.666 14.008 44.666 14.008 44.6161C14.008 44.5164 13.9581 44.4666 13.8584 44.4666C13.5593 44.4666 13.2104 44.4666 12.9113 44.4666C12.7617 44.4666 12.7119 44.4167 12.7119 44.2672C12.7119 43.8684 12.8116 43.8185 12.2632 43.8185C12.014 43.8185 11.7647 43.8185 11.5653 43.8185C11.4656 43.8185 11.4158 43.7687 11.4158 43.669C11.4158 43.6191 11.4158 43.5693 11.4158 43.5194C11.4158 43.32 11.3161 43.2203 11.1166 43.2203C10.8175 43.2203 10.4686 43.2203 10.1695 43.2203C10.0199 43.2203 10.0199 43.1206 10.0199 43.0209C10.0199 42.9212 10.0199 42.7717 10.1695 42.7717C10.4686 42.7717 10.8175 42.7717 11.1166 42.7717C11.3161 42.7717 11.4158 42.672 11.4158 42.4726C11.4158 42.4227 11.4158 42.3729 11.4158 42.323C11.4158 42.2233 11.4656 42.1735 11.5653 42.1735C11.8644 42.1735 12.1635 42.1735 12.4626 42.1735C12.662 42.1735 12.7119 42.1236 12.7119 41.9242C12.7119 41.675 12.7119 41.675 13.011 41.675C13.2602 41.675 13.4596 41.675 13.7089 41.675C13.9581 41.675 14.0578 41.6251 14.0578 41.3759C14.0578 41.1266 14.0578 41.1266 14.3071 41.1266C14.6062 41.1266 14.9053 41.1266 15.2044 41.1266C15.3539 41.1266 15.4038 41.0768 15.4038 40.9272C15.4038 40.5284 15.4038 40.5284 15.8524 40.5284C16.0518 40.5284 16.2014 40.5284 16.4008 40.5284C16.5503 40.5284 16.6002 40.5783 16.6002 40.7278C16.6002 40.7777 16.6002 40.8774 16.6002 40.9272C16.65 41.0269 16.7498 41.1266 16.8993 41.1266C17.1984 41.1266 17.4975 41.1266 17.7966 41.1266C17.9462 41.1266 17.996 41.1765 17.9462 41.326C17.9462 41.7747 17.9462 41.7248 18.345 41.7248C18.5942 41.7248 18.8435 41.7248 19.0429 41.7248C19.1924 41.7248 19.2423 41.7747 19.2423 41.9242C19.2423 42.2732 19.2423 42.2732 19.5912 42.2732C19.8903 42.2732 20.1396 42.2732 20.4387 42.2732C20.5882 42.2732 20.5882 42.3729 20.5882 42.4726C20.5882 42.5723 20.6381 42.7218 20.4387 42.7218C20.1396 42.7218 19.7906 42.7218 19.4915 42.7218C19.2921 42.7218 19.2423 42.8215 19.2423 42.9711C19.2423 43.32 19.2423 43.32 18.8933 43.32C18.6441 43.32 18.3948 43.32 18.1456 43.32C18.0459 43.32 17.9462 43.3699 17.996 43.4696C17.996 43.8684 17.996 43.8684 17.5474 43.8684C17.348 43.8684 17.0987 43.8684 16.8993 43.8684C16.7996 43.8684 16.7497 43.8684 16.7497 43.7188C16.7497 43.2702 16.7497 43.2702 16.2512 43.2702C15.9023 43.2702 15.5533 43.2702 15.2044 43.2702C15.0548 43.2702 15.005 43.32 14.9551 43.4696C14.9053 43.9681 14.9551 44.0179 15.4536 44.0179C15.6032 44.0179 15.7029 44.0179 15.8524 44.0179C16.002 44.0179 16.0518 44.0678 16.0518 44.2173V44.2672C16.0518 44.5164 16.0518 44.5164 16.3011 44.5164C16.8495 44.5164 17.4477 44.5164 17.996 44.5164C18.1456 44.5164 18.2453 44.5164 18.2453 44.7158C18.2453 44.8155 18.2951 44.8654 18.4447 44.8654C18.7936 44.8654 19.1426 44.8654 19.5414 44.8654C19.6909 44.8654 19.7408 44.8156 19.7408 44.666C19.7408 44.5164 19.7408 44.3669 19.7408 44.1675C19.7408 44.0678 19.7906 44.0179 19.8903 44.0179C20.0897 44.0179 20.2891 44.0179 20.4885 44.0179C20.7378 44.0179 20.8375 43.9182 20.8375 43.669C20.8375 43.4197 20.8375 43.4197 21.0867 43.4197C21.1864 43.4197 21.2861 43.4197 21.3858 43.4197C21.5354 43.4197 21.5852 43.3699 21.5354 43.2702C21.5354 42.8714 21.5354 42.8714 21.9342 42.8714C22.1834 42.8714 22.4327 42.8714 22.682 42.8714C22.8814 42.8714 22.9312 42.8215 22.9312 42.6221C22.9312 42.2233 22.9312 42.2233 22.5324 42.2233C22.2333 42.2233 21.9342 42.2233 21.6849 42.2233C21.5852 42.2233 21.5354 42.1735 21.5354 42.0738C21.5354 41.675 21.5354 41.675 21.0867 41.675C20.7876 41.675 20.7876 41.675 20.7876 41.3759C20.7876 41.0269 20.7876 41.0269 20.4387 41.0269C20.3888 41.0269 20.2891 41.0269 20.2393 41.0269C19.9402 41.0269 19.8903 40.9272 19.99 40.678C19.99 40.6281 20.0897 40.5783 20.1396 40.5783C20.4885 40.5783 20.7876 40.5783 21.1366 40.5783C21.4357 40.5783 21.7846 40.5783 22.0837 40.5783C22.2333 40.5783 22.2831 40.6281 22.2831 40.7777C22.2831 40.8275 22.2831 40.8774 22.2831 40.9272C22.2831 41.0768 22.4327 41.1765 22.5823 41.1765C22.7817 41.1765 22.9811 41.1765 23.1805 41.1765C23.33 41.1765 23.3799 41.2263 23.3799 41.326C23.3799 41.675 23.4297 41.7248 23.7787 41.7248C23.8784 41.7248 24.0279 41.7248 24.1276 41.7248C24.2273 41.7248 24.2772 41.7747 24.2772 41.8744C24.2772 42.1735 24.2273 42.2233 24.6261 42.2233C24.8255 42.2233 25.0748 42.2233 25.2742 42.2233C25.4237 42.2233 25.4736 42.1735 25.4736 42.0239C25.4736 41.7248 25.4237 41.7248 25.8225 41.7248C25.9222 41.7248 26.0219 41.7248 26.1216 41.7248C26.321 41.7248 26.4207 41.6251 26.4207 41.4257C26.4207 41.1765 26.4207 41.1765 26.67 41.1765C26.8694 41.1765 27.0189 41.1765 27.2183 41.1765C27.4177 41.1765 27.4676 41.1266 27.5174 40.9272C27.5174 40.5783 27.5174 40.5783 27.8664 40.5783C28.4148 40.5783 29.013 40.5783 29.5613 40.5783C29.7607 40.5783 29.7607 40.678 29.7607 40.7777C29.7607 40.9272 29.7607 41.0269 29.5613 41.0269C29.4118 41.0269 29.2622 41.0269 29.1127 41.0269C28.9631 41.0269 28.9133 41.0768 28.9133 41.2263C28.9133 41.3759 28.9133 41.5254 28.8634 41.6251C28.8136 41.675 28.6142 41.6251 28.4646 41.6251C28.1655 41.6251 28.1655 41.6251 28.1655 41.9242C28.1655 42.2233 28.1655 42.2233 27.8664 42.2233C27.6171 42.2233 27.3679 42.2233 27.1186 42.2233C26.7697 42.2233 26.67 42.3729 26.7697 42.7218C26.8195 42.8215 26.8694 42.9212 27.0189 42.9212C27.318 42.9212 27.667 42.9212 27.9661 42.9212C28.1157 42.9212 28.1655 42.9711 28.1655 43.1206C28.1655 43.6191 28.1655 43.5194 28.5643 43.5194C28.6142 43.5194 28.664 43.5194 28.7139 43.5194C28.8136 43.5194 28.8634 43.5693 28.8634 43.669C28.8634 44.0179 28.9133 44.0678 29.2622 44.0678C29.4118 44.0678 29.5613 44.0678 29.7607 44.0678C29.8604 44.0678 29.9601 44.1176 29.9103 44.2173C29.9103 44.3669 29.9103 44.5164 29.9103 44.666C29.9103 44.8156 30.01 44.9153 30.1595 44.9153C30.5085 44.9153 30.8076 44.9153 31.1565 44.9153C31.3061 44.9153 31.3559 44.8654 31.3559 44.7158C31.3559 44.5663 31.4058 44.5663 31.5553 44.5663C32.1535 44.5663 32.7019 44.5663 33.3001 44.5663C33.4995 44.5663 33.5494 44.5164 33.5494 44.317C33.5494 44.0678 33.5494 44.0678 33.7986 44.0678C33.998 44.0678 34.1974 44.0678 34.3968 44.0678C34.5464 44.0678 34.6461 43.9681 34.6461 43.8185C34.6461 43.2203 34.6959 43.32 34.1476 43.32C33.7986 43.32 33.4497 43.32 33.1007 43.32C32.9511 43.32 32.9013 43.3699 32.9013 43.5194C32.9013 43.9182 32.9013 43.9182 32.4526 43.9182C32.2034 43.9182 32.004 43.9182 31.7547 43.9182C31.655 43.9182 31.6052 43.8684 31.6052 43.7687V43.7188C31.6052 43.2702 31.655 43.32 31.2064 43.32C30.9571 43.32 30.7079 43.32 30.4586 43.32C30.3589 43.32 30.3091 43.2702 30.3091 43.1705C30.3091 42.672 30.3091 42.7717 29.8604 42.7717C29.6112 42.7717 29.3619 42.7717 29.1625 42.7717C29.013 42.7717 29.013 42.7218 29.013 42.6221C29.013 42.323 29.013 42.323 29.3121 42.323C29.6112 42.323 29.8604 42.323 30.1595 42.323C30.3091 42.323 30.4088 42.2732 30.3589 42.1236V42.0738C30.3589 41.8245 30.3589 41.8245 30.6082 41.8245C30.9073 41.8245 31.1565 41.8245 31.4556 41.8245C31.6052 41.8245 31.655 41.7747 31.655 41.6251C31.655 41.2762 31.655 41.2762 32.004 41.2762C32.2532 41.2762 32.5025 41.2762 32.7517 41.2762C32.9511 41.2762 33.0508 41.1765 33.0508 40.9771C33.0508 40.6281 33.0508 40.678 33.3499 40.678C33.5992 40.678 33.8485 40.678 34.0479 40.678C34.1476 40.678 34.1974 40.678 34.1974 40.8275C34.1974 41.2762 34.1974 41.2762 34.6461 41.2762C34.8953 41.2762 35.0947 41.2762 35.344 41.2762C35.4437 41.2762 35.4935 41.326 35.4935 41.4257C35.4935 41.8245 35.5434 41.8245 35.9422 41.8245C36.1914 41.8245 36.4407 41.8245 36.6899 41.8245C36.7896 41.8245 36.8395 41.8744 36.8395 41.9741C36.8395 42.323 36.8395 42.323 37.1884 42.323C37.4875 42.323 37.7866 42.323 38.0359 42.323C38.1854 42.323 38.2353 42.3729 38.2353 42.5224C38.2353 43.0209 38.1854 42.9212 38.6839 42.9212C38.9332 42.9212 39.1326 42.9212 39.3819 42.9212C39.5813 42.9212 39.5813 42.9711 39.5813 43.1705C39.5813 43.32 39.5314 43.3699 39.3819 43.3699C39.0827 43.3699 38.7836 43.3699 38.4845 43.3699C38.335 43.3699 38.2851 43.4197 38.2851 43.5693C38.2851 43.9681 38.2851 43.9681 37.8365 43.9681C37.5872 43.9681 37.338 43.9681 37.0887 43.9681C36.9392 43.9681 36.8893 44.0179 36.8893 44.1675C36.8893 44.5663 36.8893 44.5663 36.4905 44.5663C36.2413 44.5663 35.992 44.5663 35.7428 44.5663C35.5932 44.5663 35.5434 44.6161 35.5434 44.7158C35.5434 45.015 35.5434 45.015 35.2443 45.015C34.995 45.015 34.6959 45.015 34.4467 45.015C34.2971 45.015 34.2473 45.0648 34.2473 45.2144V45.2642C34.2473 45.7627 34.1476 45.7627 34.7458 45.7627C34.995 45.7627 35.1944 45.7627 35.4437 45.7627C35.5434 45.7627 35.5932 45.8126 35.5932 45.9123C35.5932 46.4108 35.5932 46.3111 36.0419 46.3609C36.2911 46.3609 36.4905 46.3609 36.7398 46.3609C36.8893 46.3609 36.9392 46.4108 36.9392 46.5105C36.9392 46.8594 36.9392 46.8594 37.2881 46.8594C37.5872 46.8594 37.8863 46.8594 38.1356 46.8594C38.2851 46.8594 38.335 46.9093 38.335 47.0588C38.335 47.4576 38.335 47.4576 38.7338 47.4576C38.983 47.4576 39.2323 47.4576 39.4816 47.4576C39.5813 47.4576 39.6311 47.5075 39.6311 47.6072C39.6311 47.9063 39.6311 47.9063 39.332 47.9063C39.0329 47.9063 38.7338 47.9063 38.4845 47.9063C38.4845 47.5075 38.4347 47.5573 38.4347 47.7069ZM13.0608 44.8156C13.2602 44.8156 13.2104 44.9651 13.2104 45.0648C13.2104 45.1645 13.2104 45.2642 13.0608 45.2642C12.662 45.2642 12.3131 45.2642 11.9143 45.2642C11.8146 45.2642 11.7647 45.2144 11.7647 45.1147C11.7647 44.8156 11.7647 44.8156 12.0638 44.8156C12.2134 44.8156 12.3629 44.8156 12.5125 44.8156C12.662 44.8156 12.8614 44.8156 13.0608 44.8156ZM38.0857 45.1645C38.0857 45.2144 37.986 45.2642 37.986 45.2642C37.5872 45.2642 37.1884 45.2642 36.8395 45.2642C36.7398 45.2642 36.6899 45.2144 36.6899 45.1147C36.6899 45.0648 36.6899 45.015 36.6899 44.9153C36.6899 44.8156 36.7398 44.7657 36.8395 44.7657C37.0389 44.7657 37.2383 44.7657 37.3878 44.7657C37.5872 44.7657 37.7368 44.7657 37.9362 44.7657C38.0359 44.7657 38.0857 44.8156 38.0857 44.9153C38.0857 45.015 38.1356 45.1147 38.0857 45.1645ZM42.0239 48.2552C42.1236 48.2552 42.1735 48.2552 42.1735 48.4048C42.1735 48.4546 42.2732 48.5045 42.323 48.5045C42.4726 48.5045 42.6221 48.5045 42.7717 48.5045C42.8714 48.5045 42.9212 48.5543 42.9212 48.654C42.9212 48.8036 42.9212 48.9531 42.9212 49.0528C42.9212 49.1525 42.8714 49.2024 42.7717 49.2024C42.6221 49.2024 42.5224 49.2024 42.3729 49.2024C42.2233 49.2024 42.1735 49.2522 42.1735 49.4018C42.1735 49.5513 42.1236 49.5513 42.0239 49.5513C41.8744 49.5513 41.7248 49.5513 41.5753 49.5513C41.4756 49.5513 41.326 49.5513 41.326 49.7009C41.326 49.7507 41.2263 49.7507 41.1765 49.7507C41.0768 49.7507 40.9272 49.7507 40.8275 49.7507C40.7278 49.7507 40.6281 49.7507 40.5284 49.7507C40.4287 49.7507 40.3789 49.7507 40.329 49.6012C40.329 49.5513 40.2293 49.5015 40.1795 49.5015C40.0299 49.5015 39.8305 49.5015 39.681 49.5015C39.5813 49.5015 39.5314 49.5015 39.5314 49.3519C39.5314 49.2024 39.4816 49.1027 39.2822 49.1525C39.1825 49.1525 39.0329 49.1525 38.9332 49.1525C38.8335 49.1525 38.7836 49.1027 38.7836 49.003C38.7836 48.8534 38.7836 48.7039 38.7836 48.6042C38.7836 48.5045 38.8335 48.4546 38.9332 48.4546C39.0329 48.4546 39.1326 48.4546 39.2323 48.4546C39.3819 48.4546 39.5314 48.5045 39.4816 48.2552C39.4816 48.2552 39.5813 48.2054 39.6311 48.2054C39.7807 48.2054 39.9302 48.2054 40.1296 48.2054C40.2293 48.2054 40.329 48.1555 40.329 48.006C40.329 47.8564 40.3789 47.8564 40.4786 47.8564C40.678 47.8564 40.8774 47.8564 41.0768 47.8564C41.1765 47.8564 41.2263 47.8564 41.2762 48.006C41.2762 48.1555 41.3759 48.2054 41.5254 48.2054C41.7248 48.2552 41.8744 48.2552 42.0239 48.2552ZM42.0239 43.669C42.1236 43.669 42.1735 43.669 42.1735 43.8185C42.1735 43.9182 42.2233 43.9681 42.323 43.9681C42.4726 43.9681 42.6221 43.9681 42.7218 43.9681C42.8215 43.9681 42.8714 44.0179 42.8714 44.1176C42.9212 44.666 42.9212 44.666 42.3729 44.666C42.1236 44.666 42.1236 44.666 42.1236 44.9153C42.1236 45.4636 42.0239 45.4138 42.6221 45.4138C42.8714 45.4138 42.8714 45.4138 42.8714 45.663C42.8714 46.1615 42.9212 46.0618 42.4227 46.1117C42.1735 46.1117 42.1735 46.1117 42.1236 46.3609C42.1236 46.4108 42.0239 46.4606 41.9741 46.4606C41.7747 46.4606 41.6251 46.4606 41.4257 46.4606C41.326 46.4606 41.2762 46.5105 41.2263 46.6102C41.2263 46.66 41.1266 46.7099 41.0768 46.7099C40.9771 46.7099 40.8275 46.7099 40.7278 46.7099C40.6281 46.7099 40.5284 46.7099 40.4786 46.7099C40.3789 46.7099 40.2792 46.7099 40.2792 46.5603C40.2792 46.5105 40.1795 46.4606 40.1296 46.4606C39.9801 46.4606 39.7807 46.4606 39.6311 46.4606C39.5314 46.4606 39.4317 46.4108 39.4816 46.3111C39.4816 46.1615 39.4317 46.1117 39.2822 46.1117C39.1326 46.1117 39.0329 46.1117 38.8833 46.1117C38.8335 46.1117 38.7836 46.012 38.7338 46.012C38.6839 45.5135 38.6839 45.4636 39.1824 45.4636C39.4317 45.4636 39.4317 45.4636 39.4317 45.2144C39.4317 44.6161 39.4816 44.7158 38.9332 44.7158C38.6839 44.7158 38.6839 44.7158 38.6839 44.4666C38.6839 43.9681 38.6341 44.0179 39.1326 44.0179C39.2822 44.0179 39.4816 44.0678 39.4317 43.8185C39.4317 43.8185 39.5314 43.7687 39.5813 43.7687C39.7308 43.7687 39.8804 43.7687 40.0299 43.7687C40.1795 43.7687 40.2792 43.7188 40.2792 43.5693C40.2792 43.5194 40.329 43.4696 40.3789 43.4696C40.6281 43.4696 40.8774 43.4696 41.0768 43.4696C41.1266 43.4696 41.1765 43.5194 41.1765 43.5693C41.2263 43.7687 41.326 43.7687 41.4756 43.7687C41.7248 43.7188 41.8744 43.669 42.0239 43.669ZM42.4227 41.5254C42.2732 41.5254 42.1236 41.5254 42.1735 41.7248C42.1735 41.8245 42.1236 41.8744 42.0239 41.8744C41.8744 41.8744 41.675 41.8744 41.5254 41.8744C41.4257 41.8744 41.3759 41.8744 41.326 42.0239C41.326 42.0738 41.2263 42.1236 41.1765 42.1236C40.9771 42.1236 40.7278 42.1236 40.5284 42.1236C40.4786 42.1236 40.4287 42.0738 40.4287 42.0239C40.4287 41.8744 40.329 41.8744 40.2293 41.8744C40.0798 41.8744 39.9302 41.8744 39.7308 41.8744C39.6311 41.8744 39.5314 41.8744 39.5813 41.7248C39.5813 41.5753 39.5314 41.5254 39.3819 41.5254C39.2822 41.5254 39.1326 41.5254 39.0329 41.5254C38.8833 41.5254 38.8335 41.4756 38.8335 41.326C38.8335 40.8275 38.8335 40.8275 39.2822 40.8275C39.4317 40.8275 39.5813 40.8275 39.5314 40.5783C39.5314 40.5284 39.6311 40.4786 39.681 40.4786C39.8804 40.4786 40.0299 40.4786 40.2293 40.4786C40.2792 40.4786 40.3789 40.4287 40.3789 40.3789C40.3789 40.2293 40.4786 40.2293 40.5783 40.2293C40.678 40.2293 40.7777 40.2293 40.8774 40.2293C40.9771 40.2293 41.0768 40.2293 41.1266 40.2293C41.2263 40.2293 41.326 40.2293 41.326 40.3789C41.326 40.4287 41.4257 40.4786 41.4756 40.4786C41.6251 40.4786 41.8245 40.4786 41.9741 40.4786C42.0738 40.4786 42.1735 40.5284 42.1236 40.6281C42.1236 40.7777 42.1735 40.8275 42.323 40.8275C42.4726 40.8275 42.5723 40.8275 42.7218 40.8275C42.8215 40.8275 42.8714 40.8774 42.8714 40.9771C42.9212 41.5254 42.9212 41.5254 42.4227 41.5254ZM44.7657 40.678C44.6162 40.678 44.4666 40.678 44.317 40.678C44.1176 40.678 43.9681 40.678 43.7687 40.678C43.669 40.678 43.6191 40.6281 43.6191 40.5284C43.6191 40.4786 43.6191 40.4287 43.6191 40.3789C43.6191 40.2792 43.669 40.2293 43.7188 40.2293C44.1176 40.2293 44.5164 40.2293 44.9153 40.2293C44.9651 40.2293 45.015 40.2792 45.015 40.329C45.0648 40.678 45.0648 40.678 44.7657 40.678ZM18.8435 4.88534C18.9432 4.68594 18.993 4.53639 19.0927 4.33699C19.1924 4.23729 19.342 4.08774 19.4915 3.98804C19.4417 3.88833 19.4417 3.78863 19.4417 3.63908C19.5414 3.09073 19.99 2.74177 20.4387 2.69192C21.0369 2.59222 21.6351 2.79163 22.0837 3.14058C22.1336 3.04088 22.1834 2.94118 22.2333 2.84148C22.7817 2.39282 23.7787 2.09372 24.8754 2.09372C25.9721 2.09372 26.9691 2.39282 27.5174 2.84148C27.5673 2.89133 27.667 2.99103 27.667 3.14058C28.1157 2.79163 28.7139 2.59222 29.3121 2.69192C29.8106 2.79163 30.2094 3.09073 30.3091 3.63908C30.3091 3.68893 30.3091 3.73878 30.3091 3.78863C30.3589 3.83848 30.4088 3.88833 30.4586 3.93819C30.6082 4.08774 30.7079 4.23729 30.7577 4.43669C30.8076 4.63609 30.8076 4.83549 30.8574 5.0349C30.9073 5.2343 31.007 5.48355 31.1565 5.6331C31.1067 5.68295 31.007 5.7328 30.9073 5.78265C30.9073 5.78265 30.7577 5.48355 30.6082 5.28415C30.5085 5.18445 30.5085 4.68594 30.5085 4.58624C30.5085 4.43669 30.4586 4.33699 30.3589 4.18744C30.3091 4.13759 30.3091 4.08774 30.2592 4.03789C30.2592 4.03789 30.2592 4.03789 30.2094 3.98804C30.0598 4.13759 29.7607 4.13759 29.5115 4.08774C29.1625 4.03789 28.9133 3.98804 28.6142 4.18744C28.5145 4.33699 28.4148 4.48654 28.2652 4.63609C28.2652 4.78564 28.3151 4.93519 28.3151 5.0349H28.3649C28.4148 5.0349 28.4646 5.0349 28.4646 5.0349C28.5145 5.0349 28.5145 5.0349 28.5643 5.0349C28.6142 5.0349 28.664 5.0349 28.7139 5.0349C28.7637 5.0349 28.7637 5.0349 28.8136 5.0349C28.8634 5.0349 28.9631 5.08475 29.013 5.08475C29.013 5.08475 29.0628 5.08475 29.0628 5.1346C29.1127 5.18445 29.1625 5.18445 29.2124 5.2343C29.2124 5.2343 29.2124 5.2343 29.2622 5.2343C29.5115 5.38385 29.7109 5.6331 29.8106 5.9322V5.98205C29.8106 6.0319 29.8604 6.08175 29.8604 6.1316C29.8604 6.18146 29.8604 6.18146 29.9103 6.23131C29.9103 6.28116 29.9103 6.28116 29.9103 6.33101C29.9103 6.38086 29.9103 6.38086 29.9103 6.43071C29.9103 6.48056 29.9103 6.58026 29.9103 6.63011C29.9103 6.67996 29.9103 6.67996 29.9103 6.72981C29.9103 6.77966 29.9103 6.82951 29.8604 6.82951C29.8604 6.87936 29.8604 6.87936 29.8106 6.92921C29.8106 6.97906 29.7607 6.97906 29.7607 7.02891C29.7607 7.07876 29.7109 7.07876 29.7109 7.12861C29.7109 7.17846 29.661 7.17846 29.661 7.22831L29.6112 7.27817C29.5613 7.32802 29.5115 7.37787 29.5115 7.42772L29.4616 7.47757C29.4118 7.52742 29.4118 7.52742 29.3619 7.57727L29.3121 7.62712C29.2622 7.67697 29.2622 7.67697 29.2124 7.67697L29.1625 7.72682C29.1127 7.72682 29.1127 7.77667 29.0628 7.77667L29.013 7.82652C28.9631 7.92622 28.9631 7.97607 28.9133 7.97607C28.9133 7.97607 28.8634 7.97607 28.8634 8.02592L28.8136 8.07577C28.8136 8.07577 28.7637 8.07577 28.7637 8.12562C28.7637 8.12562 28.7139 8.12562 28.7139 8.17547C28.7139 8.17547 28.7139 8.17547 28.664 8.17547C28.664 8.17547 28.664 8.17547 28.6142 8.17547C28.9631 8.97308 29.1625 9.87039 29.3121 10.668C29.5613 12.1137 28.9133 13.3599 27.667 14.1575L24.9252 16.1017L22.1336 14.1575C21.8843 14.008 21.6849 13.8086 21.4855 13.6092C21.4357 13.5593 21.3858 13.5095 21.336 13.4596L21.2861 13.4098C20.7378 12.7617 20.4387 12.014 20.4885 11.1665C20.4885 11.1166 20.4885 11.0169 20.4885 10.9671C20.4885 10.8674 20.4885 10.7677 20.5384 10.668V10.6181C20.6879 9.82054 20.8873 8.92323 21.2363 8.12562C21.2363 8.12562 21.2363 8.12562 21.1864 8.07577L21.1366 8.02592L21.0867 7.97607C21.0369 7.92622 21.0369 7.92622 20.987 7.87637L20.9372 7.82652C20.8873 7.82652 20.8873 7.77667 20.8375 7.77667L20.7876 7.72682L20.7378 7.67697L20.6879 7.62712C20.6381 7.57727 20.6381 7.57727 20.5882 7.52742L20.5384 7.47757C20.4885 7.42772 20.4387 7.37787 20.4387 7.32802L20.3888 7.27817C20.3888 7.22831 20.339 7.22831 20.339 7.17846C20.339 7.12861 20.2891 7.12861 20.2891 7.07876C20.2891 7.02891 20.2393 7.02891 20.2393 6.97906C20.2393 6.92921 20.2393 6.92921 20.1894 6.87936C20.1894 6.82951 20.1894 6.77966 20.1396 6.77966C20.1396 6.72981 20.1396 6.72981 20.1396 6.67996C20.1396 6.63011 20.1396 6.53041 20.1396 6.48056C20.1396 6.43071 20.1396 6.43071 20.1396 6.38086C20.1396 6.33101 20.1396 6.33101 20.1396 6.28116C20.1396 6.23131 20.1396 6.23131 20.1894 6.18146C20.1894 6.1316 20.2393 6.08175 20.2393 6.0319V5.98205C20.339 5.7328 20.5384 5.48355 20.7876 5.28415C20.7876 5.28415 20.7876 5.28415 20.8375 5.28415C20.8873 5.2343 20.9372 5.2343 20.987 5.18445C20.987 5.18445 21.0369 5.18445 21.0369 5.1346C21.0867 5.08475 21.1864 5.08475 21.2363 5.08475C21.2861 5.08475 21.2861 5.08475 21.336 5.08475C21.3858 5.08475 21.4357 5.08475 21.4855 5.08475C21.5354 5.08475 21.5354 5.08475 21.5852 5.08475H21.6351C21.6351 4.93519 21.6351 4.83549 21.6849 4.68594C21.4357 4.48654 21.2861 4.33699 21.1366 4.23729C20.7876 4.03789 20.5882 4.08774 20.2393 4.13759C20.0399 4.18744 19.7906 4.18744 19.6411 4.13759C19.5912 4.18744 19.5414 4.18744 19.4915 4.23729C19.4417 4.28714 19.3918 4.33699 19.342 4.38684C19.2921 4.48654 19.2423 4.58624 19.2423 4.68594C19.1924 4.78564 19.1924 4.88534 19.1426 4.98504C19.0927 5.08475 18.993 5.18445 18.8933 5.2343C18.7438 5.334 18.5942 5.5334 18.5942 5.5334C18.5444 5.48355 18.4447 5.4337 18.3948 5.334C18.5444 5.2343 18.7438 5.08475 18.8435 4.88534ZM15.2044 19.3918V19.342V19.2921C15.9521 16.4008 18.5444 14.008 19.8405 12.9611C19.9402 13.4596 20.2891 13.659 20.5882 14.008C20.4387 14.008 20.2891 14.0578 20.1396 14.1077C20.339 14.2074 20.5384 14.3569 20.7378 14.4566C20.9372 14.5563 21.1864 14.656 21.3858 14.7557C20.4387 14.9053 22.0339 15.6032 22.0837 15.7029C21.984 15.7029 21.7348 15.7527 21.6849 15.8524C21.6351 16.002 21.7348 16.002 21.8843 16.0518C22.0339 16.1515 22.2333 16.2512 22.3829 16.3011C22.2832 16.5005 22.2333 16.65 22.1336 16.8993C22.4826 18.345 22.7817 19.7408 23.1306 21.0369C23.1805 21.1366 23.2802 21.1864 23.33 21.2363C23.3799 21.2861 23.4297 21.3858 23.4796 21.4357C23.33 20.6381 23.1306 19.7906 22.9811 18.8933C22.8814 18.4447 22.7817 17.996 22.7318 17.5474C22.6321 17.1486 22.5823 16.6999 22.4826 16.2512C22.5324 16.2512 22.5324 16.3011 22.5823 16.3011C22.5823 16.3011 22.6321 16.3011 22.682 16.3509C22.7817 16.4008 22.9312 16.4506 23.0309 16.5503C23.0309 16.6002 22.9811 16.6002 22.9811 16.65C22.9811 16.65 22.9811 16.65 22.9811 16.6999C22.8814 16.7497 22.8315 16.8494 22.8814 16.999C22.8814 17.0987 22.9811 17.1486 23.0808 17.1984C23.2303 18.1456 23.3799 19.0429 23.5294 19.8903C23.5793 20.2393 23.6291 20.5882 23.679 20.8873C23.7288 20.9372 23.7288 20.987 23.7787 20.987C23.8285 21.0369 23.8784 21.1366 23.9282 21.1864C23.9781 21.2363 23.9781 21.2861 24.0279 21.2861C23.9781 20.8873 23.9282 20.4387 23.8784 20.0399C23.7787 19.1924 23.6291 18.2951 23.5294 17.348C23.679 17.3978 23.7787 17.4477 23.9282 17.4975C24.0279 18.6441 24.1276 19.6909 24.2273 20.7378C24.327 20.9372 24.4267 21.0369 24.5264 21.1864C24.4766 20.7876 24.4766 20.339 24.4267 19.8903C24.3769 19.1426 24.327 18.3948 24.2772 17.6471C24.2772 17.6471 24.327 17.6471 24.327 17.6969C24.4267 17.7468 24.5264 17.8465 24.6261 17.9462C24.6261 18.5444 24.676 19.0927 24.676 19.6411C24.676 19.99 24.676 20.339 24.7258 20.6879C24.7757 20.7876 24.8255 20.8375 24.8754 20.9372C24.9252 21.0369 24.9751 21.0867 25.0249 21.1864C25.0249 20.1894 25.0249 19.1426 25.0249 18.0459C25.1745 17.996 25.2742 17.8465 25.3739 17.7468C25.3739 18.3948 25.324 19.0429 25.324 19.6411C25.324 19.99 25.324 20.339 25.2742 20.6879C25.324 20.7876 25.3739 20.8873 25.3739 20.9372C25.4237 21.0369 25.4237 21.0867 25.4736 21.1864C25.5234 20.7876 25.5234 20.339 25.5733 19.8903C25.6231 19.1426 25.673 18.345 25.7228 17.4975C25.8724 17.4477 25.9721 17.3978 26.1216 17.348C26.0219 18.4945 25.8724 19.6411 25.7727 20.6879C25.8225 20.8375 25.8724 20.9372 25.9222 21.0867C25.9222 21.1366 25.9721 21.1864 25.9721 21.2363C26.0219 20.8375 26.0718 20.3888 26.1216 19.99C26.2213 19.0927 26.3709 18.1456 26.4706 17.1984C26.6201 17.0987 26.8195 16.999 26.8195 16.8993C26.8694 16.6999 26.7198 16.6002 26.5703 16.5503C26.6201 16.4008 26.9192 16.3011 27.0688 16.2512C27.2682 16.1515 27.5174 16.002 27.7168 15.9023C27.8664 15.8524 27.9661 15.8524 27.9162 15.7029C27.8664 15.6032 27.6171 15.5533 27.5174 15.5533C27.5673 15.4536 29.1625 14.7059 28.2154 14.6062C28.3649 14.4566 28.664 14.4068 28.8634 14.3071C29.0628 14.2074 29.2622 14.0578 29.4616 13.9581C29.3121 13.9083 29.1625 13.8584 29.013 13.8584C29.3619 13.4596 29.7109 13.2602 29.8106 12.7119C31.1067 13.7587 33.7986 16.1515 34.5962 19.1426V19.1924V19.2423C34.8455 20.5882 34.6461 21.7846 34.0479 22.6321C33.998 22.682 33.9482 22.7318 33.8983 22.8315C33.8485 22.8814 33.7986 22.9312 33.7488 23.0309L33.6989 23.0808C33.6491 23.1306 33.5493 23.1805 33.4995 23.2303C33.4496 23.2802 33.3499 23.33 33.3001 23.3799H33.2502C33.2004 23.3799 33.1505 23.3799 33.1007 23.3799C33.0508 23.3799 33.001 23.3799 32.9013 23.3799C32.8514 23.3799 32.8514 23.3799 32.8016 23.3799C32.7517 23.3799 32.7517 23.3799 32.7019 23.3799C32.652 23.3799 32.6022 23.33 32.5025 23.33C32.3529 23.2802 32.2034 23.1805 32.0538 23.0808C32.004 23.0309 31.9043 22.9811 31.8544 22.9811C31.7547 22.8814 31.6052 22.8315 31.5055 22.7318C31.5055 22.7318 31.4556 22.7318 31.4556 22.682C31.4058 22.6321 31.3061 22.6321 31.2562 22.5823C31.2064 22.5324 31.1067 22.5324 31.007 22.5324C30.9571 22.5324 30.9571 22.5324 30.9073 22.4826L32.7517 19.0429C32.8016 18.9432 32.7517 18.8933 32.7019 18.8435L32.1037 18.5444L32.3031 18.1456L30.9073 17.3978L28.1655 22.4826L29.5613 23.2303L29.8604 22.6321L30.4586 22.9312C30.4586 22.9312 30.5085 22.9312 30.5583 22.9312C30.4088 23.5793 30.2592 24.2273 30.1595 24.8754C30.4088 25.4736 30.7577 26.3709 31.007 27.2682C31.1067 27.667 31.2064 28.0658 31.2562 28.4148C31.2562 28.5145 31.2562 28.664 31.3061 28.7637C31.3061 28.8634 31.3061 28.9631 31.3061 29.0628C31.2562 29.4118 31.2064 29.9103 31.1067 30.4088C31.0568 30.8076 30.9571 31.2064 30.8574 31.655C30.8076 31.9541 30.7577 32.2034 30.7079 32.5025C30.5583 33.4995 30.4088 34.3968 30.5085 34.995C30.6082 35.8425 30.7577 36.5404 30.7577 36.989C31.2064 37.2881 31.655 37.8863 31.1565 38.2353C31.1565 38.2353 31.1067 38.2851 31.0568 38.2851C30.9571 37.986 30.8076 37.5374 30.7079 37.5872C30.6082 37.6371 30.658 38.0857 30.7079 38.3848C30.5583 38.4347 30.4088 38.4347 30.2094 38.4845C30.1595 38.2353 30.0598 37.9362 29.9601 37.7866C29.9103 37.7866 29.9103 37.7866 29.8604 37.7866H29.8106C29.7607 37.9362 29.7607 38.2353 29.7607 38.4845C29.6112 38.4845 29.4616 38.5344 29.3121 38.5344C29.2622 38.2851 29.2124 37.986 29.1625 37.8365C29.1127 37.8365 29.0628 37.8365 29.013 37.8365C28.9631 37.986 28.9133 38.2851 28.9133 38.5344C28.7139 38.5344 28.4646 38.5344 28.2652 38.5344C28.2652 38.2851 28.2652 37.986 28.2154 37.8365C28.1655 37.8365 28.1157 37.8365 28.0658 37.8365C27.9661 37.986 27.9163 38.2851 27.8664 38.5344C27.4177 38.4845 27.0688 38.4347 26.9192 38.2851C26.7697 38.1356 26.6201 37.6869 26.9691 37.3878L26.9192 37.338C26.9192 37.2881 26.9192 36.8893 26.9192 36.3908C26.9192 35.5932 26.9192 34.6461 26.9192 34.0977C26.9192 33.8983 26.8694 33.6989 26.8195 33.5992C26.7198 33.3499 26.4706 33.1007 26.1216 32.9511C25.9721 32.8514 25.7727 32.8016 25.5733 32.7517C25.3739 32.7019 25.1745 32.7019 24.9751 32.7019C24.8754 32.7019 24.7757 32.7019 24.676 32.7019C24.3769 32.7517 24.0778 32.8514 23.8285 32.9511C23.7288 33.001 23.679 33.0508 23.5793 33.1007C23.4297 33.2004 23.33 33.3001 23.2303 33.4496C23.1805 33.4995 23.1306 33.5992 23.1306 33.6491C22.9312 34.1974 23.1805 36.7896 22.9312 37.6371L22.8814 37.6869C23.2303 37.986 23.0808 38.4347 22.9312 38.5842C22.7817 38.7338 22.4327 38.7836 21.984 38.8335C21.9342 38.5842 21.8843 38.2851 21.7846 38.1356C21.7348 38.1356 21.6849 38.1356 21.6351 38.1356C21.5852 38.2851 21.5852 38.5842 21.5852 38.8335C21.3858 38.8335 21.1366 38.8335 20.9372 38.8335C20.9372 38.5842 20.8873 38.2851 20.8375 38.1356C20.7876 38.1356 20.7378 38.1356 20.6879 38.1356C20.6381 38.2353 20.5384 38.5842 20.5384 38.8335C20.3888 38.8335 20.2393 38.7836 20.0897 38.7836C20.0897 38.5344 20.0897 38.2353 20.0399 38.0857H19.99C19.9402 38.0857 19.9402 38.0857 19.8903 38.0857C19.7906 38.2353 19.7408 38.5344 19.6411 38.7836C19.4417 38.7338 19.2921 38.7338 19.1426 38.6839C19.1924 38.3848 19.2423 37.9362 19.1426 37.8863C19.0429 37.7866 18.8933 38.2851 18.7936 38.5842C18.7438 38.5842 18.7438 38.5344 18.6939 38.5344C18.2453 38.2353 18.6441 37.5872 19.0927 37.2881C19.0927 36.8395 19.1924 36.1416 19.342 35.2941C19.342 35.1446 19.3918 34.9452 19.3918 34.6959C19.3918 34.4965 19.3918 34.2473 19.342 33.998C19.342 33.8485 19.2921 33.7488 19.2921 33.5992C19.1924 32.9511 19.0429 32.2034 18.9432 31.5055C18.8933 31.2064 18.8435 30.9571 18.7936 30.7079C18.6939 30.2094 18.6441 29.7109 18.5942 29.3619C18.5942 29.2622 18.5942 29.1625 18.5942 29.0628C18.5942 29.0628 18.5942 29.0628 18.5942 29.013C18.5942 28.8136 18.6441 28.5643 18.6939 28.3649C18.6939 28.2652 18.7438 28.1157 18.7936 27.9661C18.993 27.1186 19.342 26.1715 19.5912 25.5234C19.6411 25.4736 19.6411 25.3739 19.6909 25.324C19.6909 25.2742 19.7408 25.2243 19.7408 25.2243C19.6411 24.5763 19.4915 23.9282 19.342 23.2802L19.9402 22.9312L20.2891 23.5294L21.6849 22.7817L21.336 22.1834C21.4855 22.2831 21.5852 22.333 21.7348 22.4327C20.987 20.987 20.2393 19.4417 19.4417 17.7966C19.3918 18.0459 19.3918 18.1954 19.342 18.4447L18.9432 17.6471L17.5474 18.3948L17.7468 18.7438L17.0987 18.9432C16.999 18.993 16.999 19.0927 17.0489 19.1426L18.8933 22.5823C18.8435 22.5823 18.7936 22.6321 18.7936 22.6321C18.6939 22.6321 18.6441 22.682 18.5444 22.682C18.4945 22.7318 18.3948 22.7318 18.345 22.7817C18.345 22.7817 18.2951 22.7817 18.2951 22.8315C18.1954 22.8814 18.0459 22.9811 17.9462 23.0808C17.8963 23.1306 17.7966 23.1805 17.7468 23.1805C17.5972 23.2802 17.4477 23.33 17.2981 23.4297C17.2483 23.4796 17.1486 23.4796 17.0987 23.4796C17.0489 23.4796 16.999 23.4796 16.999 23.4796H16.9492C16.8993 23.4796 16.8494 23.4796 16.7497 23.4796C16.6999 23.4796 16.65 23.4796 16.6002 23.4796H16.5503C16.5005 23.4297 16.4008 23.3799 16.3509 23.33C16.3011 23.2802 16.2014 23.2303 16.1515 23.1805L16.1017 23.1306C16.0518 23.0808 16.002 23.0309 15.9521 22.9312C15.9023 22.8814 15.8524 22.8315 15.8026 22.7318C15.2044 21.984 14.9551 20.7378 15.2044 19.3918C15.2044 19.3918 15.2044 19.4417 15.2044 19.3918Z" fill="#C4C4C4"/>
<path d="M27.8165 22.0339C28.4645 20.5383 29.1126 18.8933 29.8603 17.1984C29.7606 17.2482 29.6609 17.2981 29.5612 17.3479C29.4615 17.3978 29.4117 17.4476 29.2621 17.5473C28.7138 18.9431 28.2651 20.2392 27.7666 21.4855C27.7666 21.7348 27.7666 21.8345 27.8165 22.0339Z" fill="#C4C4C4"/>
<path d="M26.8693 21.5353C26.8693 21.5852 26.8693 21.635 26.9191 21.6849C27.1185 20.8873 27.3678 20.0398 27.5672 19.1924C27.6669 18.7437 27.8164 18.3449 27.9161 17.8963C28.0158 17.4476 28.1654 16.9989 28.2651 16.5503C28.1155 16.6998 28.0158 16.7497 27.8663 16.8494C27.8164 16.8992 27.7666 16.9491 27.7167 16.9491C27.3678 18.3948 27.0687 19.7906 26.7197 21.0867C26.8194 21.3359 26.8194 21.4356 26.8693 21.5353Z" fill="#C4C4C4"/>
<path d="M27.2681 21.2861C27.2681 21.336 27.2681 21.3858 27.3179 21.4357C27.3179 21.5354 27.3678 21.5852 27.3678 21.6849C27.3678 21.7348 27.3678 21.7846 27.3678 21.8345C27.5173 21.4357 27.617 21.0368 27.7666 20.638C27.9161 20.2392 28.0657 19.8404 28.1654 19.3918C28.4645 18.5443 28.7636 17.6969 29.0627 16.7996C29.0128 16.8494 28.963 16.8494 28.9131 16.8993C28.7636 16.999 28.6639 17.0488 28.5143 17.1984C28.3149 17.8963 28.0657 18.5942 27.8663 19.2921C27.6669 19.99 27.4675 20.638 27.2681 21.2861Z" fill="#C4C4C4"/>
<path d="M27.0688 21.4855C27.1187 21.4357 27.1685 21.3858 27.2683 21.2861C27.2184 21.3858 27.1187 21.4357 27.0688 21.4855Z" fill="#C4C4C4"/>
</svg>
