<?xml version="1.0" encoding="utf-8"?>
<!-- Generator: Adobe Illustrator 24.1.2, SVG Export Plug-In . SVG Version: 6.00 Build 0)  -->
<svg version="1.1" id="Layer_1" xmlns="http://www.w3.org/2000/svg" xmlns:xlink="http://www.w3.org/1999/xlink" x="0px" y="0px"
	 viewBox="0 0 50 50" style="enable-background:new 0 0 50 50;" xml:space="preserve">
<style type="text/css">
	.st0{fill:#8F8F8F;}
	.st1{fill:#38383A;}
</style>
<path class="st0" d="M42.8,27.8c-1.7,0-3.2,0.4-4.5,1c-0.5-0.9-0.9-1.7-1-2.3c-0.1-0.7-0.2-1.1-0.1-1.9c0.1-0.8,0.6-2,0.6-2.1
	c0-0.1-0.1-0.5-1.1-0.5c-1,0-1.8,0.2-1.9,0.5c-0.1,0.3-0.3,0.9-0.4,1.5c-0.2,0.9-2,4.1-3,5.8c-0.3-0.7-0.6-1.2-0.7-1.7
	c-0.1-0.7-0.2-1.1-0.1-1.9c0.1-0.8,0.6-2,0.6-2.1c0-0.1-0.1-0.5-1.1-0.5c-1,0-1.8,0.2-1.9,0.5c-0.1,0.3-0.2,0.9-0.4,1.5
	c-0.2,0.6-2.6,6-3.2,7.4c-0.3,0.7-0.6,1.3-0.8,1.7l0,0c0,0,0,0,0,0.1c-0.2,0.3-0.3,0.5-0.3,0.5s0,0,0,0c-0.1,0.2-0.3,0.5-0.4,0.5
	c-0.1,0-0.2-0.6,0-1.5c0.4-1.9,1.2-4.8,1.2-4.9c0-0.1,0.2-0.6-0.6-0.8c-0.7-0.3-1,0.2-1,0.2c-0.1,0-0.1,0.2-0.1,0.2s0.8-3.3-1.5-3.3
	c-1.4,0-3.4,1.6-4.4,3c-0.6,0.3-1.9,1-3.3,1.8c-0.5,0.3-1.1,0.6-1.6,0.9c0,0-0.1-0.1-0.1-0.1c-2.8-2.9-7.9-5-7.6-9
	c0.1-1.4,0.6-5.2,9.8-9.8c7.6-3.7,13.6-2.7,14.7-0.4c1.5,3.3-3.2,9.4-11.1,10.3c-3,0.3-4.6-0.8-5-1.3c-0.4-0.5-0.5-0.5-0.6-0.4
	c-0.3,0.1-0.1,0.5,0,0.8c0.2,0.6,1.2,1.7,2.8,2.2c1.4,0.5,4.9,0.7,9.2-0.9c4.7-1.8,8.5-6.9,7.4-11.2c-1.1-4.3-8.3-5.8-15.1-3.4
	c-4.1,1.4-8.4,3.7-11.6,6.7c-3.8,3.5-4.4,6.6-4.1,7.8c0.9,4.5,7.1,7.5,9.6,9.7c-0.1,0.1-0.2,0.1-0.3,0.2c-1.3,0.6-6,3.1-7.2,5.8
	c-1.4,3,0.2,5.1,1.3,5.4c3.2,0.9,6.5-0.7,8.3-3.4s1.6-6.1,0.7-7.7c0,0,0,0,0-0.1c0.3-0.2,0.7-0.4,1-0.6c0.6-0.4,1.3-0.7,1.8-1
	c-0.3,0.8-0.5,1.8-0.6,3.3c-0.1,1.7,0.6,3.9,1.5,4.8c0.4,0.4,0.9,0.4,1.2,0.4c1.1,0,1.5-0.9,2.1-1.9c0.6-1.3,1.2-2.8,1.2-2.8
	s-0.7,4,1.3,4c0.7,0,1.5-0.9,1.8-1.4c0,0,0,0,0,0s0,0,0.1-0.1c0.1-0.1,0.1-0.2,0.1-0.2s0,0,0,0c0.3-0.5,0.9-1.6,1.9-3.5
	c1.2-2.5,2.4-5.5,2.4-5.5s0.1,0.7,0.5,2c0.2,0.7,0.7,1.5,1,2.3c-0.3,0.4-0.5,0.6-0.5,0.6s0,0,0,0c-0.2,0.3-0.5,0.6-0.8,1
	c-1,1.2-2.2,2.5-2.3,2.9c-0.2,0.5-0.1,0.8,0.2,1.1c0.3,0.2,0.7,0.2,1.2,0.2c0.9-0.1,1.5-0.3,1.8-0.4c0.5-0.2,1-0.4,1.6-0.8
	c1-0.7,1.5-1.7,1.5-3.1c0-0.7-0.3-1.5-0.6-2.2c0.1-0.1,0.2-0.3,0.3-0.4c1.5-2.2,2.7-4.7,2.7-4.7s0.1,0.7,0.5,2
	c0.2,0.6,0.5,1.3,0.9,2c-1.4,1.2-2.3,2.5-2.6,3.4c-0.6,1.6-0.1,2.4,0.7,2.5c0.4,0.1,0.9-0.1,1.3-0.3c0.5-0.2,1.1-0.4,1.7-0.9
	c1-0.7,1.9-1.7,1.8-3c0-0.6-0.2-1.2-0.4-1.8c1.2-0.5,2.8-0.8,4.8-0.5c4.3,0.5,5.1,3.2,5,4.3c-0.2,1.1-1.1,1.7-1.4,1.9
	c-0.3,0.2-0.4,0.3-0.4,0.4c0,0.2,0.2,0.2,0.4,0.2c0.4-0.1,2.3-0.9,2.3-3C49.8,30.6,47.3,27.7,42.8,27.8z M9.7,38.9
	c-1.4,1.5-3.4,2.1-4.3,1.6c-0.9-0.5-0.6-2.8,1.2-4.5c1.1-1,2.4-1.9,3.3-2.5c0.2-0.1,0.5-0.3,0.9-0.5C10.9,33,11,33,11,33l0,0
	c0.1,0,0.1-0.1,0.2-0.1C11.8,35.2,11.2,37.3,9.7,38.9z M20.1,31.9c-0.5,1.2-1.5,4.3-2.2,4.1c-0.5-0.1-0.9-2.5-0.1-4.8
	c0.4-1.2,1.2-2.5,1.7-3.1c0.8-0.9,1.6-1.2,1.8-0.8C21.6,27.8,20.4,31.1,20.1,31.9z M28.6,36c-0.2,0.1-0.4,0.2-0.5,0.1
	c-0.1,0,0.1-0.2,0.1-0.2s1.1-1.2,1.5-1.7c0.2-0.3,0.5-0.7,0.8-1.1c0,0,0,0.1,0,0.1C30.6,34.7,29.2,35.6,28.6,36z M35.2,34.5
	c-0.2-0.1-0.1-0.5,0.4-1.6c0.2-0.4,0.7-1.2,1.5-1.9c0.1,0.3,0.2,0.6,0.1,0.8C37.2,33.5,36,34.2,35.2,34.5z"/>
</svg>
