<svg width="140" height="39" viewBox="0 0 140 39" fill="none" xmlns="http://www.w3.org/2000/svg">
<path d="M139.933 34.5702C139.916 34.4122 139.93 34.2512 139.93 34.0922C139.914 33.0032 139.83 32.9152 138.774 32.8932C138.576 32.8892 138.377 32.8922 138.178 32.8922C134.842 32.8922 131.506 32.8922 128.169 32.8922C128.107 32.0022 128.059 31.9462 127.289 31.9332C126.862 31.9262 126.436 31.9322 126.009 31.9322C125.689 31.9322 125.369 31.9322 125.049 31.9322C124.729 31.9322 124.409 31.9322 124.089 31.9322C124.074 30.9782 124.074 30.9782 123.121 30.9722C123.044 30.9722 122.966 30.9722 122.889 30.9722C122.249 30.9722 121.609 30.9722 120.969 30.9722C120.969 30.8182 120.949 30.6612 120.973 30.5102C121.038 30.1002 120.881 29.9432 120.471 30.0082C120.321 30.0322 120.163 30.0122 120.009 30.0122C119.689 30.0122 119.369 30.0122 119.049 30.0122C118.729 30.0122 118.409 30.0122 118.089 30.0122C118.089 29.8532 118.076 29.6932 118.092 29.5362C118.125 29.2142 118.076 29.0342 117.668 29.0412C116.907 29.0552 116.906 29.0262 116.89 29.8932C116.889 29.9332 116.89 29.9722 116.89 30.0122C116.65 30.0122 116.41 30.0122 116.17 30.0122C115.77 30.0122 115.37 30.0122 114.97 30.0122C114.65 30.0122 114.33 30.0122 114.01 30.0122C113.856 30.0122 113.699 30.0322 113.548 30.0082C113.138 29.9432 112.981 30.1002 113.046 30.5102C113.07 30.6602 113.05 30.8182 113.05 30.9722C110.73 30.9722 108.41 30.9722 106.09 30.9722C106.09 30.6522 106.09 30.3322 106.09 30.0122C106.244 30.0122 106.401 29.9922 106.552 30.0162C106.962 30.0812 107.119 29.9242 107.054 29.5142C107.03 29.3642 107.05 29.2062 107.05 29.0522C107.37 29.0522 107.69 29.0522 108.01 29.0522C108.164 29.0522 108.321 29.0322 108.472 29.0562C108.882 29.1212 109.039 28.9642 108.974 28.5542C108.95 28.4042 108.97 28.2462 108.97 28.0922C109.124 28.0922 109.281 28.0722 109.432 28.0962C109.842 28.1612 109.999 28.0042 109.934 27.5942C109.91 27.4442 109.93 27.2862 109.93 27.1322C110.206 27.1322 110.484 27.1102 110.757 27.1382C111.097 27.1732 111.156 27.0042 111.132 26.7242C111.118 26.5672 111.138 26.4082 111.128 26.2512C111.099 25.8312 111.063 25.4112 111.029 24.9912C110.637 24.9852 110.246 24.9732 109.854 24.9732C108.984 24.9732 108.984 24.9762 108.969 25.9322C108.815 25.9322 108.658 25.9522 108.507 25.9282C108.097 25.8632 107.94 26.0202 108.005 26.4302C108.029 26.5802 108.009 26.7382 108.009 26.8922C107.855 26.8922 107.701 26.8822 107.548 26.8942C106.985 26.9382 106.855 27.0692 106.811 27.6312C106.799 27.7842 106.809 27.9382 106.809 28.0922C106.655 28.0922 106.498 28.1122 106.347 28.0882C105.937 28.0232 105.78 28.1802 105.845 28.5902C105.869 28.7402 105.849 28.8982 105.849 29.0522C105.529 29.0522 105.209 29.0522 104.889 29.0522C104.735 29.0522 104.578 29.0722 104.427 29.0482C104.017 28.9832 103.86 29.1402 103.925 29.5502C103.949 29.7002 103.929 29.8582 103.929 30.0122C103.609 30.0122 103.289 30.0122 102.969 30.0122C102.649 30.0122 102.329 30.0122 102.009 30.0122C101.855 30.0122 101.698 30.0322 101.547 30.0082C101.137 29.9432 100.98 30.1002 101.045 30.5102C101.069 30.6602 101.049 30.8182 101.049 30.9722C100.729 30.9722 100.409 30.9722 100.089 30.9722C99.7687 30.9722 99.4487 30.9722 99.1287 30.9722C98.7287 30.9722 98.3287 30.9722 97.9287 30.9722C97.6087 30.9722 97.2887 30.9722 96.9687 30.9722C92.9687 30.9722 88.9687 30.9722 84.9687 30.9722C84.6487 30.9722 84.3287 30.9722 84.0087 30.9722C84.0087 30.6522 84.0087 30.3322 84.0087 30.0122C84.6487 30.0122 85.2887 30.0122 85.9287 30.0122C86.0057 30.0122 86.0837 30.0122 86.1607 30.0122C87.1137 30.0062 87.1137 30.0062 87.1287 29.0522C87.4487 29.0522 87.7687 29.0522 88.0887 29.0522C88.4087 29.0522 88.7287 29.0522 89.0487 29.0522C89.2027 29.0522 89.3597 29.0322 89.5107 29.0562C89.9207 29.1212 90.0777 28.9642 90.0127 28.5542C89.9887 28.4042 90.0087 28.2462 90.0087 28.0922C90.3287 28.0922 90.6487 28.0922 90.9687 28.0922C91.1227 28.0922 91.2797 28.0722 91.4307 28.0962C91.8407 28.1612 91.9977 28.0042 91.9327 27.5942C91.9087 27.4442 91.9287 27.2862 91.9287 27.1322C92.0827 27.1322 92.2367 27.1422 92.3897 27.1302C92.9527 27.0862 93.0827 26.9552 93.1267 26.3932C93.1387 26.2402 93.1287 26.0862 93.1287 25.9322C93.1287 25.6122 93.1287 25.2922 93.1287 24.9722C93.1287 24.7462 93.1537 24.5162 93.1177 24.2962C93.1007 24.1922 92.9687 24.1062 92.8887 24.0122C92.8887 23.8582 92.8687 23.7002 92.8927 23.5502C92.9577 23.1402 92.8007 22.9832 92.3907 23.0482C92.2407 23.0722 92.0827 23.0522 91.9287 23.0522C91.2887 23.0522 90.6487 23.0522 90.0087 23.0522C89.2687 22.6162 89.0627 22.6942 89.0497 23.4172C89.0457 23.6152 89.0487 23.8132 89.0487 24.0122C88.7287 24.0122 88.4087 24.0122 88.0887 24.0122C88.0117 24.0122 87.9337 24.0122 87.8567 24.0122C86.9037 24.0182 86.9037 24.0182 86.8887 24.9722C86.7347 24.9722 86.5777 24.9922 86.4267 24.9682C86.0167 24.9032 85.8597 25.0602 85.9247 25.4702C85.9487 25.6202 85.9287 25.7782 85.9287 25.9322C85.8507 25.9322 85.7727 25.9302 85.6947 25.9322C85.0557 25.9482 85.0197 25.9462 84.9827 26.5672C84.9607 26.9472 84.7447 26.9152 84.5217 26.8862C84.1177 26.8332 83.9317 26.9482 84.0027 27.3892C84.0397 27.6182 84.0087 27.8572 84.0087 28.0912C83.6887 28.0912 83.3687 28.0912 83.0487 28.0912C80.0087 28.0912 76.9687 28.0912 73.9287 28.0912C73.9287 27.6912 73.9287 27.2912 73.9287 26.8912C73.9287 26.5712 73.9287 26.2512 73.9287 25.9312C74.0887 25.9312 74.2477 25.9332 74.4077 25.9312C75.1197 25.9222 75.1267 25.9222 75.1277 25.2652C75.1307 23.1492 75.1297 21.0342 75.1287 18.9182C75.1277 18.0182 75.1257 18.0182 74.1687 18.0122C74.0887 18.0122 74.0087 18.0122 73.9287 18.0122C73.9287 17.3722 73.9287 16.7322 73.9287 16.0922C73.9287 16.0152 73.9287 15.9372 73.9287 15.8602C73.9227 14.9072 73.9227 14.9072 72.9687 14.8922C72.9687 14.5722 72.9687 14.2522 72.9687 13.9322C72.9687 13.7782 72.9487 13.6212 72.9727 13.4702C73.0377 13.0602 72.8807 12.9032 72.4707 12.9682C72.3207 12.9922 72.1627 12.9722 72.0087 12.9722C72.0087 12.6522 72.0087 12.3322 72.0087 12.0122C72.0087 11.8582 71.9887 11.7002 72.0127 11.5502C72.0777 11.1402 71.9207 10.9832 71.5107 11.0482C71.3607 11.0722 71.2027 11.0522 71.0487 11.0522C70.8087 11.0522 70.5687 11.0522 70.3287 11.0522C70.3287 10.8622 70.3057 10.6682 70.3337 10.4822C70.3957 10.0582 70.1277 10.0762 69.8487 10.0922C69.6087 10.0922 69.3687 10.0922 69.1287 10.0922C69.1087 9.7122 69.2297 9.1922 69.0297 8.9922C68.8297 8.7922 68.3087 8.9122 67.9287 8.8932C67.9287 8.5732 67.9287 8.2532 67.9287 7.9332C68.0827 7.9332 68.2407 7.9132 68.3907 7.9372C68.8007 8.0022 68.9577 7.8452 68.8927 7.4352C68.8687 7.2852 68.8887 7.1272 68.8887 6.9732C69.1157 6.6902 69.1577 6.3602 69.1287 6.0132C69.2827 6.0132 69.4397 5.9932 69.5907 6.0172C70.0007 6.0822 70.1577 5.9252 70.0927 5.5152C70.0687 5.3652 70.0887 5.2072 70.0887 5.0532C70.0887 4.7332 70.0887 4.4132 70.0887 4.0932C70.0887 3.9742 70.0797 3.8542 70.0907 3.7372C70.1277 3.3402 70.0967 3.0442 69.5497 3.1172C69.3587 3.1422 69.1487 2.9442 68.9367 2.8992C68.1127 2.7242 67.9367 2.8772 67.9287 3.7372C67.9277 3.8562 67.9287 3.9752 67.9287 4.0942C67.9287 4.4142 67.9287 4.7342 67.9287 5.0542C67.9287 5.3742 67.9287 5.6942 67.9287 6.0142C67.7747 6.0142 67.6177 6.0342 67.4667 6.0102C67.0567 5.9452 66.8997 6.1022 66.9647 6.5122C66.9887 6.6622 66.9687 6.8202 66.9687 6.9742C66.6487 6.9742 66.3287 6.9742 66.0087 6.9742C65.6887 6.9742 65.3687 6.9742 65.0487 6.9742C64.7287 6.9742 64.4087 6.9742 64.0887 6.9742C64.0887 6.8202 64.0687 6.6632 64.0927 6.5122C64.1577 6.1022 64.0007 5.9452 63.5907 6.0102C63.4407 6.0342 63.2827 6.0142 63.1287 6.0142C62.7287 6.0142 62.3287 6.0142 61.9287 6.0142C61.6087 6.0142 61.2887 6.0142 60.9687 6.0142C60.6487 6.0142 60.3287 6.0142 60.0087 6.0142C60.0087 5.6972 60.0127 5.3802 60.0057 5.0632C60.0037 4.9942 59.9497 4.8642 59.9327 4.8662C59.6337 4.9052 59.2457 4.5512 59.0487 5.0542C58.7287 5.0542 58.4087 5.0542 58.0887 5.0542C57.6887 5.0542 57.2887 5.0542 56.8887 5.0542C56.8887 4.9002 56.8687 4.7432 56.8927 4.5922C56.9577 4.1822 56.8007 4.0252 56.3907 4.0902C56.2407 4.1142 56.0827 4.0942 55.9287 4.0942C55.2887 4.0942 54.6487 4.0942 54.0087 4.0942C53.7047 3.7692 53.3527 3.7692 53.0487 4.0942C50.4087 4.0942 47.7687 4.0942 45.1287 4.0942C45.0327 4.0142 44.9437 3.8762 44.8407 3.8652C44.5397 3.8342 44.2327 3.8542 43.9287 3.8542C43.9287 3.6142 43.9287 3.3742 43.9287 3.1342C43.9287 3.0542 43.9287 2.9742 43.9287 2.8942C44.0827 2.8942 44.2407 2.8742 44.3907 2.8982C44.8007 2.9632 44.9577 2.8062 44.8927 2.3962C44.8687 2.2462 44.8887 2.0882 44.8887 1.9342C44.9657 1.9342 45.0437 1.9342 45.1207 1.9342C46.0737 1.9282 46.0737 1.9282 46.0887 0.974197C46.0887 0.815197 46.0757 0.655197 46.0917 0.498197C46.1257 0.173197 46.0767 -0.0068032 45.6687 0.0001968C44.9077 0.0141968 44.9067 -0.0148032 44.8907 0.852197C44.8897 0.892197 44.8907 0.931197 44.8907 0.971197C44.7367 0.971197 44.5797 0.991197 44.4287 0.967197C44.0187 0.902197 43.8617 1.0592 43.9267 1.4692C43.9507 1.6192 43.9307 1.7772 43.9307 1.9312C43.8527 1.9312 43.7747 1.9292 43.6967 1.9312C43.0567 1.9472 43.0197 1.9452 42.9847 2.5642C42.9637 2.9412 42.7527 2.9142 42.5267 2.8862C42.1327 2.8372 41.9197 2.9342 42.0067 3.3842C42.0357 3.5352 42.0117 3.6952 42.0117 3.8512C41.8577 3.8512 41.7037 3.8412 41.5507 3.8532C40.9877 3.8972 40.8577 4.0282 40.8137 4.5902C40.8017 4.7432 40.8117 4.8972 40.8117 5.0512C40.5717 5.0512 40.3317 5.0512 40.0917 5.0512C39.6917 5.0512 39.2917 5.0512 38.8917 5.0512C38.5717 5.0512 38.2517 5.0512 37.9317 5.0512C37.7777 5.0512 37.6207 5.0712 37.4697 5.0472C37.0597 4.9822 36.9027 5.1392 36.9677 5.5492C36.9917 5.6992 36.9717 5.8572 36.9717 6.0112C36.3317 6.0112 35.6917 6.0112 35.0517 6.0112C34.6517 6.0112 34.2517 6.0112 33.8517 6.0112C33.6117 6.0112 33.3717 6.0112 33.1317 6.0112C33.0547 6.0112 32.9767 6.0112 32.8997 6.0112C31.9467 6.0172 31.9467 6.0172 31.9317 6.9712C31.6117 6.9712 31.2917 6.9712 30.9717 6.9712C30.6517 6.9712 30.3317 6.9712 30.0117 6.9712C29.8577 6.9712 29.7007 6.9912 29.5497 6.9672C29.1397 6.9022 28.9827 7.0592 29.0477 7.4692C29.0717 7.6192 29.0517 7.7772 29.0517 7.9312C28.3317 7.9312 27.6117 7.9312 26.8917 7.9312C26.7377 7.9312 26.5807 7.9512 26.4297 7.9272C26.0197 7.8622 25.8627 8.0192 25.9277 8.4292C25.9517 8.5792 25.9317 8.7372 25.9317 8.8912C25.6117 8.8912 25.2917 8.8912 24.9717 8.8912C24.7387 8.8912 24.5057 8.8882 24.2737 8.8912C23.1657 8.9072 23.0687 9.0032 23.0517 10.0902C22.7317 10.0902 22.4117 10.0902 22.0917 10.0902C21.1137 10.0962 21.1137 10.0962 20.8917 11.0502C20.7377 11.0502 20.5807 11.0702 20.4297 11.0462C20.0197 10.9812 19.8627 11.1382 19.9277 11.5482C19.9517 11.6982 19.9317 11.8562 19.9317 12.0102C19.7777 12.0102 19.6207 12.0302 19.4697 12.0062C19.0597 11.9412 18.9027 12.0982 18.9677 12.5082C18.9917 12.6582 18.9717 12.8162 18.9717 12.9702C18.8177 12.9702 18.6607 12.9902 18.5097 12.9662C18.0997 12.9012 17.9427 13.0582 18.0077 13.4682C18.0317 13.6182 18.0117 13.7762 18.0117 13.9302C17.8937 13.9302 17.7747 13.9272 17.6567 13.9312C17.0637 13.9502 17.0557 13.9502 17.0537 14.4612C17.0487 15.6442 17.0517 16.8282 17.0517 18.0112C17.0517 18.1652 17.0717 18.3222 17.0477 18.4732C16.9827 18.8832 17.1397 19.0402 17.5497 18.9752C17.6997 18.9512 17.8577 18.9712 18.0117 18.9712C18.0117 19.0482 18.0117 19.1262 18.0117 19.2032C18.0177 20.1562 18.0177 20.1562 18.9717 20.1712C18.9717 20.4112 18.9717 20.6512 18.9717 20.8912C17.6117 20.8912 16.2517 20.8912 14.8917 20.8912C13.9377 20.9062 13.9377 20.9062 13.9317 21.8592C13.9317 21.9362 13.9317 22.0142 13.9317 22.0912C13.9907 22.9332 14.0687 23.0432 14.7267 23.0482C16.2707 23.0582 17.8147 23.0572 19.3577 23.0492C19.9887 23.0462 20.1997 22.8392 20.4117 22.0922C20.9717 22.0922 21.5317 22.0922 22.0917 22.0922C22.0917 22.2462 22.1117 22.4042 22.0877 22.5542C22.0227 22.9642 22.1797 23.1212 22.5897 23.0562C22.7397 23.0322 22.8977 23.0522 23.0517 23.0522C23.0517 23.3722 23.0517 23.6922 23.0517 24.0122C23.0517 24.3322 23.0517 24.6522 23.0517 24.9722C22.8977 24.9722 22.7397 24.9922 22.5897 24.9682C22.1797 24.9032 22.0227 25.0602 22.0877 25.4702C22.1117 25.6202 22.0917 25.7782 22.0917 25.9322C21.8567 25.9322 21.6167 25.9632 21.3887 25.9252C20.9427 25.8522 20.8237 26.0472 20.8917 26.4462C20.9527 26.8012 20.8017 26.9522 20.4467 26.8912C20.0477 26.8232 19.8527 26.9422 19.9257 27.3882C19.9637 27.6172 19.9327 27.8572 19.9327 28.0912C19.7787 28.0912 19.6217 28.1112 19.4707 28.0872C19.0607 28.0222 18.9037 28.1792 18.9687 28.5892C18.9927 28.7392 18.9727 28.8972 18.9727 29.0512C18.8187 29.0512 18.6617 29.0712 18.5107 29.0472C18.1007 28.9822 17.9437 29.1392 18.0087 29.5492C18.0327 29.6992 18.0127 29.8572 18.0127 30.0112C17.8587 30.0112 17.7017 30.0312 17.5507 30.0072C17.1407 29.9422 16.9837 30.0992 17.0487 30.5092C17.0727 30.6592 17.0527 30.8172 17.0527 30.9712C16.9757 30.9712 16.8977 30.9712 16.8207 30.9712C15.8677 30.9772 15.8677 30.9772 15.8527 31.9312C15.6127 31.9312 15.3727 31.9312 15.1327 31.9312C15.0557 31.9312 14.9777 31.9312 14.9007 31.9312C13.9477 31.9372 13.9477 31.9372 13.9327 32.8912C13.6127 32.8912 13.2927 32.8912 12.9727 32.8912C10.9727 32.8912 8.97271 32.8912 6.97271 32.8912C6.65271 32.8912 6.33271 32.8912 6.01271 32.8912C5.37271 32.9712 4.73271 33.0512 4.09271 33.1312C4.09271 33.0542 4.09271 32.9762 4.09271 32.8992C4.08671 31.9462 4.08671 31.9462 3.13271 31.9312C3.13271 31.8532 3.13471 31.7752 3.13271 31.6972C3.11671 31.0582 3.11871 31.0222 2.49771 30.9852C2.11771 30.9622 2.14871 30.7472 2.17871 30.5242C2.23171 30.1202 2.11671 29.9342 1.67571 30.0052C1.44671 30.0422 1.20771 30.0122 0.97371 30.0122C0.0157104 30.0262 0.0157104 30.0262 0.0137104 30.9122C0.0137104 31.1112 0.0357104 31.3132 0.00871042 31.5082C-0.0472896 31.9162 0.17271 31.9692 0.49671 31.9352C0.65371 31.9182 0.81471 31.9322 0.97371 31.9322C0.97371 32.0092 0.97371 32.0872 0.97371 32.1642C0.97971 33.1172 0.97971 33.1172 1.93371 33.1322C2.25371 33.1322 2.57371 33.1322 2.89371 33.1322C2.89371 33.2862 2.91371 33.4432 2.88971 33.5942C2.82471 34.0042 2.98171 34.1612 3.39171 34.0962C3.54171 34.0722 3.69971 34.0922 3.85371 34.0922C4.25371 34.0922 4.65371 34.0922 5.05371 34.0922C5.05371 34.2462 5.07371 34.4042 5.04971 34.5542C4.98471 34.9642 5.14171 35.1212 5.55171 35.0562C5.70171 35.0322 5.85971 35.0522 6.01371 35.0522C6.33371 35.0522 6.65371 35.0522 6.97371 35.0522C8.65371 35.0522 10.3337 35.0522 12.0137 35.0522C12.3337 35.0522 12.6537 35.0522 12.9737 35.0522C14.1237 35.0452 14.1237 35.0452 14.1737 34.0922C14.4137 34.0922 14.6537 34.0922 14.8937 34.0922C14.9707 34.0922 15.0487 34.0922 15.1257 34.0922C16.0787 34.0862 16.0787 34.0862 16.0937 33.1322C16.1957 33.0522 16.2897 32.9162 16.4007 32.9012C17.0397 32.8172 17.0407 32.8262 17.0537 32.1692C17.0557 32.0902 17.0537 32.0112 17.0537 31.9312C17.3737 31.9312 17.6937 31.9312 18.0137 31.9312C18.1677 31.9312 18.3247 31.9112 18.4757 31.9352C18.8857 32.0002 19.0427 31.8432 18.9777 31.4332C18.9537 31.2832 18.9737 31.1252 18.9737 30.9712C19.1277 30.9712 19.2847 30.9512 19.4357 30.9752C19.8457 31.0402 20.0027 30.8832 19.9377 30.4732C19.9137 30.3232 19.9337 30.1652 19.9337 30.0112C20.0107 30.0112 20.0887 30.0112 20.1657 30.0112C21.1187 30.0052 21.1187 30.0052 21.1337 29.0512C21.2877 29.0512 21.4447 29.0312 21.5957 29.0552C22.0057 29.1202 22.1627 28.9632 22.0977 28.5532C22.0747 28.4062 22.0897 28.2522 21.8767 28.0962C21.8997 28.1012 21.9217 28.1042 21.9437 28.1052C21.9727 28.1112 22.0027 28.1052 22.0297 28.0872C22.0277 28.0872 22.0247 28.0872 22.0227 28.0872C22.0687 28.0592 22.1017 27.9972 22.1027 27.8582C22.1017 27.9982 22.0697 28.0592 22.0307 28.0872C22.2927 28.0862 22.4317 28.0762 22.5567 28.0962C22.9667 28.1612 23.1237 28.0042 23.0587 27.5942C23.0347 27.4442 23.0547 27.2862 23.0547 27.1322C24.0087 27.1172 24.0087 27.1172 24.0147 26.1642C24.0147 26.0872 24.0147 26.0092 24.0147 25.9322C24.1687 25.9322 24.3257 25.9122 24.4767 25.9362C24.8867 26.0012 25.0437 25.8442 24.9787 25.4342C24.9547 25.2842 24.9747 25.1262 24.9747 24.9722C25.2947 24.9722 25.6147 24.9722 25.9347 24.9722C25.9347 26.0762 25.9327 27.1812 25.9357 28.2852C25.9377 29.0352 25.9407 29.0352 26.7767 29.0522C26.8157 29.0532 26.8557 29.0522 26.8947 29.0522C26.8947 29.3722 26.8947 29.6922 26.8947 30.0122C26.9097 30.9662 26.9097 30.9662 27.8627 30.9722C27.9397 30.9722 28.0177 30.9722 28.0947 30.9722C28.0947 31.1262 28.1147 31.2832 28.0907 31.4342C28.0257 31.8442 28.1827 32.0012 28.5927 31.9362C28.7427 31.9122 28.9007 31.9322 29.0547 31.9322C29.3747 31.9322 29.6947 31.9322 30.0147 31.9322C30.0147 32.0862 30.0347 32.2432 30.0107 32.3942C29.9457 32.8042 30.1027 32.9612 30.5127 32.8962C30.6627 32.8722 30.8207 32.8922 30.9747 32.8922C31.2577 33.1192 31.5877 33.1612 31.9347 33.1322C32.0187 32.6652 32.3847 32.9052 32.6037 32.9042C35.6787 32.8872 38.7547 32.8922 41.8297 32.8922C42.8277 32.8922 43.8267 32.8852 44.8247 32.9022C44.9297 32.9042 45.0317 33.0512 45.1347 33.1312C45.8577 32.9572 46.5687 32.6592 47.3137 33.1152C47.4857 33.2202 47.7777 33.1312 48.0147 33.1312C48.0147 33.4512 48.0147 33.7712 48.0147 34.0912C47.6947 34.0912 47.3747 34.0912 47.0547 34.0912C46.4147 34.0912 45.7747 34.0912 45.1347 34.0912C42.4147 34.0912 39.6947 34.0912 36.9747 34.0912C36.8207 34.0912 36.6637 34.1112 36.5127 34.0872C36.1027 34.0222 35.9457 34.1792 36.0107 34.5892C36.0347 34.7392 36.0147 34.8972 36.0147 35.0512C35.6947 35.0512 35.3747 35.0512 35.0547 35.0512C34.7787 35.0512 34.3787 34.9412 34.2577 35.0782C34.0927 35.2652 34.1527 35.6432 34.0887 35.9342C34.0587 36.0722 33.9447 36.1912 33.9027 36.3282C33.7477 36.8282 33.9487 37.1442 34.4647 37.2072C34.6587 37.2312 34.8587 37.2112 35.0557 37.2112C35.0787 37.9222 35.0787 37.9222 35.7857 37.9312C35.8627 37.9322 35.9387 37.9312 36.0157 37.9312C38.0157 37.9312 40.0157 37.9312 42.0157 37.9312C42.3357 37.9312 42.6557 37.9312 42.9757 37.9312C43.0027 37.9982 43.0217 38.1192 43.0587 38.1252C43.9497 38.2722 44.1427 38.1102 44.1747 37.2072C44.1777 37.1282 44.1747 37.0502 44.1747 36.9712C44.4947 36.9712 44.8147 36.9712 45.1347 36.9712C45.2887 36.9712 45.4457 36.9512 45.5967 36.9752C46.0067 37.0402 46.1637 36.8832 46.0987 36.4732C46.0747 36.3232 46.0947 36.1652 46.0947 36.0112C46.4147 36.0112 46.7347 36.0112 47.0547 36.0112C48.0147 36.0112 48.9747 36.0112 49.9347 36.0112C49.9347 36.1652 49.9547 36.3222 49.9307 36.4732C49.8657 36.8832 50.0227 37.0402 50.4327 36.9752C50.5827 36.9512 50.7407 36.9712 50.8947 36.9712C50.9867 37.0232 51.0727 37.0922 51.1707 37.1232C51.5017 37.2282 51.8437 37.3682 52.0947 36.9712C52.7347 36.9712 53.3747 36.9712 54.0147 36.9712C56.6547 36.9712 59.2947 36.9712 61.9347 36.9712C61.9957 37.0512 62.0727 37.2072 62.1167 37.1992C62.4027 37.1432 62.6867 37.0652 62.9597 36.9632C63.0377 36.9342 63.1177 36.8072 63.1267 36.7182C63.1497 36.4842 63.1347 36.2472 63.1347 36.0112C63.4547 36.0112 63.7747 36.0112 64.0947 36.0112C64.2487 36.0112 64.4057 35.9912 64.5567 36.0152C64.9667 36.0802 65.1237 35.9232 65.0587 35.5132C65.0347 35.3632 65.0547 35.2052 65.0547 35.0512C65.3747 35.0512 65.6947 35.0512 66.0147 35.0512C66.1687 35.0512 66.3257 35.0312 66.4767 35.0552C66.8867 35.1202 67.0437 34.9632 66.9787 34.5532C66.9547 34.4032 66.9747 34.2452 66.9747 34.0912C67.1287 34.0912 67.2857 34.0712 67.4367 34.0952C67.8467 34.1602 68.0037 34.0032 67.9387 33.5932C67.9147 33.4432 67.9347 33.2852 67.9347 33.1312C68.1697 33.1312 68.4097 33.1002 68.6377 33.1382C69.0837 33.2112 69.2027 33.0162 69.1347 32.6172C69.0737 32.2622 69.2247 32.1112 69.5797 32.1722C69.9787 32.2402 70.1737 32.1212 70.1007 31.6752C70.0627 31.4462 70.0937 31.2062 70.0937 30.9722C70.2477 30.9722 70.4047 30.9522 70.5557 30.9762C70.9657 31.0412 71.1227 30.8842 71.0577 30.4742C71.0337 30.3242 71.0537 30.1662 71.0537 30.0122C71.3737 30.0122 71.6937 30.0122 72.0137 30.0122C75.3737 30.0122 78.7337 30.0122 82.0937 30.0122C82.0937 30.3322 82.0937 30.6522 82.0937 30.9722C82.0937 31.1262 82.1137 31.2842 82.0897 31.4342C82.0247 31.8442 82.1817 32.0012 82.5917 31.9362C82.7417 31.9122 82.8997 31.9322 83.0537 31.9322C83.0537 32.0092 83.0537 32.0872 83.0537 32.1642C83.0597 33.1172 83.0597 33.1172 84.0137 33.1322C88.6537 33.1322 93.2937 33.1322 97.9337 33.1322C98.3337 33.1322 98.7337 33.1322 99.1337 33.1322C99.3687 33.1322 99.6027 33.1382 99.8377 33.1312C100.222 33.1182 100.743 33.2382 100.949 33.0382C101.151 32.8412 101.032 32.3142 101.054 31.9332C101.374 31.9332 101.694 31.9332 102.014 31.9332C102.334 31.9332 102.654 31.9332 102.974 31.9332C103.694 31.9332 104.414 31.9332 105.134 31.9332C105.134 32.0102 105.134 32.0882 105.134 32.1652C105.14 33.1182 105.14 33.1182 106.094 33.1332C106.419 33.0532 106.74 32.9402 107.07 32.9022C107.424 32.8622 107.785 32.8932 108.143 32.8932C108.74 32.8932 109.337 32.8932 109.934 32.8932C109.996 32.9732 110.043 33.1012 110.122 33.1252C110.673 33.2932 111.153 32.8852 111.679 32.9042C112.094 32.9192 112.125 32.7192 112.096 32.4062C112.082 32.2492 112.093 32.0902 112.093 31.9322C113.373 31.9322 114.653 31.9322 115.933 31.9322C116.01 31.9322 116.088 31.9322 116.165 31.9322C117.118 31.9262 117.118 31.9262 117.133 30.9722C117.453 30.9722 117.773 30.9722 118.093 30.9722C118.093 31.1262 118.113 31.2832 118.089 31.4342C118.024 31.8442 118.181 32.0012 118.591 31.9362C118.741 31.9122 118.899 31.9322 119.053 31.9322C119.373 31.9322 119.693 31.9322 120.013 31.9322C120.333 31.9322 120.653 31.9322 120.973 31.9322C120.973 32.0482 120.97 32.1652 120.974 32.2812C120.991 32.7702 121.243 33.0782 121.73 33.1252C122.114 33.1622 122.505 33.1322 122.893 33.1322C123.293 33.1322 123.693 33.1322 124.093 33.1322C124.093 33.2862 124.113 33.4432 124.089 33.5942C124.024 34.0042 124.181 34.1612 124.591 34.0962C124.741 34.0722 124.899 34.0922 125.053 34.0922C125.373 34.0922 125.693 34.0922 126.013 34.0922C126.973 34.0922 127.933 34.0922 128.893 34.0922C128.952 34.9372 129.029 35.0482 129.699 35.0492C132.968 35.0562 136.238 35.0452 139.507 35.0612C139.908 35.0632 139.969 34.8982 139.933 34.5702ZM85.9297 27.1322C86.2497 27.1322 86.5697 27.1322 86.8897 27.1322C86.8897 26.7322 86.8897 26.3322 86.8897 25.9322C86.9697 25.9322 87.0497 25.9322 87.1297 25.9322C87.2837 25.9322 87.4407 25.9122 87.5917 25.9362C88.0017 26.0012 88.1587 25.8442 88.0937 25.4342C88.0697 25.2842 88.0897 25.1262 88.0897 24.9722C88.4407 24.9722 88.7917 24.9732 89.1437 24.9722C89.9957 24.9692 89.9957 24.9682 90.0097 24.0122C90.6497 24.0122 91.2897 24.0122 91.9297 24.0122C91.9297 24.3322 91.9297 24.6522 91.9297 24.9722C91.0057 25.0032 91.0007 25.0082 90.9697 25.9322C90.9697 26.0122 90.9697 26.0922 90.9697 26.1722C90.0327 26.1722 90.0327 26.1722 90.0097 26.8922C89.8637 26.9182 89.7157 26.9362 89.5717 26.9732C89.3957 27.0182 89.2237 27.0792 89.0497 27.1322C88.8957 27.1322 88.7377 27.1522 88.5877 27.1282C88.1777 27.0632 88.0207 27.2202 88.0857 27.6302C88.1097 27.7802 88.0897 27.9382 88.0897 28.0922C87.6897 28.0922 87.2897 28.0922 86.8897 28.0922C86.5697 28.0922 86.2497 28.0922 85.9297 28.0922C85.9297 27.7722 85.9297 27.4522 85.9297 27.1322ZM21.4227 28.0982C21.4847 28.1002 21.5467 28.1032 21.6347 28.0822C21.6827 28.0422 21.7617 28.0682 21.8407 28.0892C21.6617 28.1152 21.5267 28.1162 21.4227 28.0982ZM43.4677 36.0082C43.0577 35.9432 42.9007 36.1002 42.9657 36.5102C42.9897 36.6602 42.9697 36.8182 42.9697 36.9722C42.6497 36.9722 42.3297 36.9722 42.0097 36.9722C40.0097 36.9722 38.0097 36.9722 36.0097 36.9722C36.0097 36.6522 36.0097 36.3322 36.0097 36.0122C36.4097 36.0122 36.8097 36.0122 37.2097 36.0122C37.2097 35.6922 37.2097 35.3722 37.2097 35.0522C39.2707 35.0522 41.3317 35.0502 43.3927 35.0542C43.9107 35.0552 43.9107 35.0642 43.9297 35.6562C43.9337 35.7752 43.9297 35.8942 43.9297 36.0132C43.7757 36.0122 43.6187 36.0322 43.4677 36.0082ZM38.1617 10.0912C39.1147 10.0852 39.1147 10.0852 39.1297 9.1312C39.2077 9.1312 39.2857 9.1332 39.3637 9.1312C40.0027 9.1152 40.0387 9.1172 40.0757 8.4962C40.0977 8.1162 40.3137 8.1472 40.5367 8.1772C40.9407 8.2302 41.1267 8.1152 41.0557 7.6742C41.0187 7.4452 41.0497 7.2062 41.0497 6.9722C41.2037 6.9722 41.3607 6.9522 41.5117 6.9762C41.9217 7.0412 42.0787 6.8842 42.0137 6.4742C41.9897 6.3242 42.0097 6.1662 42.0097 6.0122C42.6497 6.0122 43.2897 6.0122 43.9297 6.0122C47.2897 6.0122 50.6497 6.0122 54.0097 6.0122C54.3297 6.0122 54.6497 6.0122 54.9697 6.0122C55.6097 6.0122 56.2497 6.0122 56.8897 6.0122C57.1107 6.9612 57.1107 6.9612 57.9747 6.9722C58.0127 6.9722 58.0507 6.9722 58.0897 6.9722C58.4097 6.9722 58.7297 6.9722 59.0497 6.9722C59.3697 6.9722 59.6897 6.9722 60.0097 6.9722C60.3297 6.9722 60.6497 6.9722 60.9697 6.9722C60.9697 7.1302 60.9817 7.2892 60.9667 7.4462C60.9377 7.7582 60.9687 7.9592 61.3837 7.9442C61.9097 7.9242 62.3897 8.3332 62.9407 8.1652C63.0197 8.1412 63.0667 8.0132 63.1287 7.9332C63.4487 7.9332 63.7687 7.9332 64.0887 7.9332C64.0887 8.0882 64.0907 8.2432 64.0887 8.3982C64.0847 8.6702 64.0857 8.8152 64.4677 8.9312C64.9877 9.0892 65.4877 9.1262 66.0087 9.1322C66.0087 9.4522 66.0087 9.7722 66.0087 10.0922C65.8547 10.0922 65.6977 10.1122 65.5467 10.0882C65.1367 10.0232 64.9797 10.1802 65.0447 10.5902C65.0687 10.7402 65.0487 10.8982 65.0487 11.0522C64.8947 11.0522 64.7367 11.0722 64.5867 11.0482C64.1767 10.9832 64.0197 11.1402 64.0847 11.5502C64.1087 11.7002 64.0887 11.8582 64.0887 12.0122C64.0887 12.3322 64.0887 12.6522 64.0887 12.9722C63.9347 12.9722 63.7777 12.9922 63.6267 12.9682C63.2167 12.9032 63.0597 13.0602 63.1247 13.4702C63.1487 13.6202 63.1287 13.7782 63.1287 13.9322C63.0487 13.9322 62.9687 13.9322 62.8887 13.9322C61.9347 13.9472 61.9347 13.9472 61.9287 14.9002C61.9287 14.9772 61.9287 15.0552 61.9287 15.1322C61.9287 15.3722 61.9287 15.6122 61.9287 15.8522C61.0447 15.8982 60.9997 15.9382 60.9697 16.7082C60.9657 16.8232 60.9687 16.9372 60.9687 17.0522C60.8147 17.0522 60.6577 17.0722 60.5067 17.0482C60.0967 16.9832 59.9397 17.1402 60.0047 17.5502C60.0287 17.7002 60.0087 17.8582 60.0087 18.0122C60.0087 18.3322 60.0087 18.6522 60.0087 18.9722C59.8547 18.9722 59.6977 18.9922 59.5467 18.9682C59.1367 18.9032 58.9797 19.0602 59.0447 19.4702C59.0687 19.6202 59.0487 19.7782 59.0487 19.9322C59.0487 20.2522 59.0487 20.5722 59.0487 20.8922C58.8517 20.8922 58.6527 20.8712 58.4597 20.8962C57.7937 20.9822 57.6707 21.3922 58.0887 22.0922C58.0887 22.3322 58.0887 22.5722 58.0887 22.8122C57.9347 22.8122 57.7807 22.8022 57.6277 22.8142C57.0647 22.8582 56.9347 22.9892 56.8907 23.5512C56.8787 23.7042 56.8887 23.8582 56.8887 24.0122C56.7347 24.0122 56.5777 24.0322 56.4267 24.0082C56.0167 23.9432 55.8597 24.1002 55.9247 24.5102C55.9487 24.6602 55.9287 24.8182 55.9287 24.9722C55.9287 25.2922 55.9287 25.6122 55.9287 25.9322C54.9747 25.9472 54.9747 25.9472 54.9687 26.9002C54.9687 26.9772 54.9687 27.0552 54.9687 27.1322C54.9687 27.2862 54.9487 27.4432 54.9727 27.5942C55.0377 28.0042 54.8807 28.1612 54.4707 28.0962C54.3207 28.0722 54.1627 28.0922 54.0087 28.0922C53.6887 28.0922 53.3687 28.0922 53.0487 28.0922C52.6197 28.0922 52.0977 28.2472 51.7837 28.0582C51.2157 27.7162 50.6597 27.9412 50.1077 27.8632C50.0597 27.8562 49.9887 28.0112 49.9287 28.0912C49.2887 28.0912 48.6487 28.0912 48.0087 28.0912C47.3687 28.0912 46.7287 28.0912 46.0887 28.0912C46.0887 27.8552 46.1037 27.6182 46.0807 27.3842C46.0717 27.2952 45.9857 27.1542 45.9157 27.1402C45.4017 27.0422 44.8857 26.9262 44.3657 26.9002C43.5817 26.8612 42.7947 26.8902 42.0087 26.8902C41.6887 26.8902 41.3687 26.8902 41.0487 26.8902C40.4087 26.8902 39.7687 26.8902 39.1287 26.8902C39.0827 26.0052 39.0427 25.9612 38.2727 25.9312C38.1587 25.9272 38.0437 25.9302 37.9287 25.9302C37.2887 25.9302 36.6487 25.9302 36.0087 25.9302C35.6887 25.9302 35.3687 25.9302 35.0487 25.9302C34.4087 25.9302 33.7687 25.9302 33.1287 25.9302C33.1137 24.9762 33.1137 24.9762 32.1607 24.9702C32.0837 24.9702 32.0057 24.9702 31.9287 24.9702C31.6087 24.9702 31.2887 24.9702 30.9687 24.9702C30.6487 24.9702 30.3287 24.9702 30.0087 24.9702C30.0087 24.8162 29.9887 24.6592 30.0127 24.5082C30.0777 24.0982 29.9207 23.9412 29.5107 24.0062C29.3607 24.0302 29.2027 24.0102 29.0487 24.0102C29.0487 23.6902 29.0487 23.3702 29.0487 23.0502C29.0487 22.7302 29.0487 22.4102 29.0487 22.0902C29.3687 22.0902 29.6887 22.0902 30.0087 22.0902C30.6487 22.0902 31.2887 22.0902 31.9287 22.0902C32.6487 22.0902 33.3687 22.0902 34.0887 22.0902C34.7287 22.0902 35.3687 22.0902 36.0087 22.0902C36.1627 22.0902 36.3197 22.0702 36.4707 22.0942C36.8807 22.1592 37.0377 22.0022 36.9727 21.5922C36.9487 21.4422 36.9687 21.2842 36.9687 21.1302C37.1277 21.1302 37.2877 21.1172 37.4447 21.1332C37.7667 21.1662 37.9467 21.1172 37.9397 20.7092C37.9257 19.9482 37.9547 19.9472 37.0877 19.9312C37.0477 19.9302 37.0087 19.9312 36.9687 19.9312C36.3287 19.9312 35.6887 19.9312 35.0487 19.9312C34.0927 19.9312 33.1367 19.9372 32.1807 19.9282C31.8717 19.9252 31.5077 19.9712 31.2757 19.8252C31.1357 19.7372 31.2077 19.3222 31.1637 19.0572C31.1577 19.0192 31.0357 19.0002 30.9677 18.9712C30.9677 18.6512 30.9677 18.3312 30.9677 18.0112C31.1217 18.0112 31.2787 17.9912 31.4297 18.0152C31.8397 18.0802 31.9967 17.9232 31.9317 17.5132C31.9077 17.3632 31.9277 17.2052 31.9277 17.0512C32.0047 17.0512 32.0827 17.0512 32.1597 17.0512C33.1127 17.0452 33.1127 17.0452 33.1277 16.0912C33.1277 15.7712 33.1277 15.4512 33.1277 15.1312C33.2817 15.1312 33.4387 15.1112 33.5897 15.1352C33.9997 15.2002 34.1567 15.0432 34.0917 14.6332C34.0677 14.4832 34.0877 14.3252 34.0877 14.1712C34.0877 14.0912 34.0877 14.0112 34.0877 13.9312C34.2417 13.9312 34.3987 13.9112 34.5497 13.9352C34.9597 14.0002 35.1167 13.8432 35.0517 13.4332C35.0277 13.2832 35.0477 13.1252 35.0477 12.9712C35.2017 12.9712 35.3587 12.9512 35.5097 12.9752C35.9197 13.0402 36.0767 12.8832 36.0117 12.4732C35.9877 12.3232 36.0077 12.1652 36.0077 12.0112C36.2417 12.0112 36.4807 11.9812 36.7087 12.0172C37.1447 12.0862 37.2787 11.9072 37.2087 11.5012C37.1487 11.1552 37.2827 11.0082 37.6477 11.0372C37.7337 11.0442 37.8967 10.8902 37.9147 10.7912C37.9547 10.5642 37.9277 10.3252 37.9277 10.0912C38.0077 10.0922 38.0847 10.0922 38.1617 10.0912ZM27.8597 18.9732C27.5357 19.0152 27.2127 19.0632 26.8897 19.1092C26.9697 19.3832 27.0497 19.6572 27.1297 19.9312C27.0497 19.9312 26.9697 19.9312 26.8897 19.9312C26.7357 19.9312 26.5787 19.9512 26.4277 19.9272C26.0177 19.8622 25.8607 20.0192 25.9257 20.4292C25.9497 20.5792 25.9297 20.7372 25.9297 20.8912C24.9697 20.8912 24.0097 20.8912 23.0497 20.8912C22.7297 20.8912 22.4097 20.8912 22.0897 20.8912C22.0747 19.9372 22.0747 19.9372 21.1217 19.9312C21.0447 19.9312 20.9667 19.9312 20.8897 19.9312C20.5697 19.9312 20.2497 19.9312 19.9297 19.9312C19.9297 19.7772 19.9097 19.6202 19.9337 19.4692C19.9987 19.0592 19.8417 18.9022 19.4317 18.9672C19.2817 18.9912 19.1237 18.9712 18.9697 18.9712C18.9697 18.6512 18.9697 18.3312 18.9697 18.0112C18.9697 17.0512 18.9697 16.0912 18.9697 15.1312C18.9697 14.7312 18.9697 14.3312 18.9697 13.9312C19.1237 13.9312 19.2807 13.9112 19.4317 13.9352C19.8417 14.0002 19.9987 13.8432 19.9337 13.4332C19.9097 13.2832 19.9297 13.1252 19.9297 12.9712C20.3297 12.9712 20.7297 12.9712 21.1297 12.9712C21.2837 12.9712 21.4407 12.9512 21.5917 12.9752C22.0017 13.0402 22.1587 12.8832 22.0937 12.4732C22.0697 12.3232 22.0897 12.1652 22.0897 12.0112C22.2437 12.0112 22.4007 11.9912 22.5517 12.0152C22.9617 12.0802 23.1187 11.9232 23.0537 11.5132C23.0297 11.3632 23.0497 11.2052 23.0497 11.0512C23.3697 11.0512 23.6897 11.0512 24.0097 11.0512C24.3297 11.0512 24.6497 11.0512 24.9697 11.0512C25.1237 11.0512 25.2807 11.0312 25.4317 11.0552C25.8417 11.1202 25.9987 10.9632 25.9337 10.5532C25.9097 10.4032 25.9297 10.2452 25.9297 10.0912C26.2497 10.0912 26.5697 10.0912 26.8897 10.0912C26.9667 10.0912 27.0447 10.0912 27.1217 10.0912C28.0747 10.0852 28.0747 10.0852 28.0897 9.1312C28.7297 9.1312 29.3697 9.1312 30.0097 9.1312C30.1637 9.1312 30.3177 9.1412 30.4707 9.1292C31.0337 9.0852 31.1637 8.9542 31.2077 8.3922C31.2197 8.2392 31.2097 8.0852 31.2097 7.9312C31.8497 7.9312 32.4897 7.9312 33.1297 7.9312C33.4497 7.9312 33.7697 7.9312 34.0897 7.9312C34.4407 7.9312 34.7917 7.9322 35.1437 7.9312C35.9957 7.9282 35.9957 7.9272 36.0097 6.9712C36.6497 6.9712 37.2897 6.9712 37.9297 6.9712C37.9297 7.2912 37.9297 7.6112 37.9297 7.9312C37.8517 7.9312 37.7737 7.9292 37.6957 7.9312C37.0567 7.9472 37.0387 7.9452 36.9787 8.5662C36.9547 8.8122 36.8817 8.8772 36.6397 8.8992C36.0197 8.9572 36.0197 8.9752 36.0107 9.5042C36.0077 9.6992 36.0097 9.8952 36.0097 10.0902C35.0727 10.0902 35.0727 10.0902 35.0497 10.8102C34.9697 10.8902 34.8897 10.9702 34.8097 11.0502C34.0987 11.0732 34.0987 11.0732 34.0897 11.7802C34.0887 11.8572 34.0897 11.9332 34.0897 12.0102C34.0127 12.0102 33.9347 12.0102 33.8577 12.0102C32.9047 12.0162 32.9047 12.0162 32.8897 12.9702C32.7357 12.9702 32.5787 12.9902 32.4277 12.9662C32.0177 12.9012 31.8607 13.0582 31.9257 13.4682C31.9497 13.6182 31.9297 13.7762 31.9297 13.9302C30.9757 13.9452 30.9757 13.9452 30.9697 14.8982C30.9697 14.9752 30.9697 15.0532 30.9697 15.1302C30.9697 15.4502 30.9697 15.7702 30.9697 16.0902C30.8157 16.0902 30.6587 16.1102 30.5077 16.0862C30.0977 16.0212 29.9407 16.1782 30.0057 16.5882C30.0297 16.7382 30.0097 16.8962 30.0097 17.0502C29.8557 17.0502 29.6987 17.0702 29.5477 17.0462C29.1377 16.9812 28.9807 17.1382 29.0457 17.5482C29.0697 17.6982 29.0497 17.8562 29.0497 18.0102C28.8957 18.0102 28.7377 18.0302 28.5877 18.0062C28.1777 17.9412 28.0207 18.0982 28.0857 18.5082C28.1097 18.6582 28.0897 18.8162 28.0897 18.9702C28.0127 18.9722 27.9357 18.9632 27.8597 18.9732ZM48.9697 30.9722C48.8157 30.9722 48.6587 30.9922 48.5077 30.9682C48.0977 30.9032 47.9407 31.0602 48.0057 31.4702C48.0297 31.6202 48.0097 31.7782 48.0097 31.9322C42.6497 31.9322 37.2897 31.9322 31.9297 31.9322C31.9297 31.7782 31.9097 31.6212 31.9337 31.4702C31.9987 31.0602 31.8417 30.9032 31.4317 30.9682C31.2817 30.9922 31.1237 30.9722 30.9697 30.9722C30.6497 30.9722 30.3297 30.9722 30.0097 30.9722C30.0097 30.8182 29.9897 30.6612 30.0137 30.5102C30.0787 30.1002 29.9217 29.9432 29.5117 30.0082C29.3617 30.0322 29.2037 30.0122 29.0497 30.0122C29.0497 29.8582 29.0297 29.7002 29.0537 29.5502C29.1187 29.1402 28.9617 28.9832 28.5517 29.0482C28.4017 29.0722 28.2437 29.0522 28.0897 29.0522C28.0897 28.0122 28.0897 26.9722 28.0897 25.9322C28.4097 25.9322 28.7297 25.9322 29.0497 25.9322C29.6897 25.9322 30.3297 25.9322 30.9697 25.9322C30.9697 26.2492 30.9647 26.5662 30.9727 26.8832C30.9747 26.9522 31.0287 27.0822 31.0457 27.0802C31.3447 27.0412 31.7327 27.3952 31.9297 26.8922C32.6497 26.9722 33.3697 27.0522 34.0897 27.1322C34.0897 27.2862 34.1097 27.4432 34.0857 27.5942C34.0207 28.0042 34.1777 28.1612 34.5877 28.0962C34.7377 28.0722 34.8957 28.0922 35.0497 28.0922C35.3697 28.0922 35.6897 28.0922 36.0097 28.0922C36.3297 28.0922 36.6497 28.0922 36.9697 28.0922C38.0097 28.0922 39.0497 28.0922 40.0897 28.0922C40.0897 28.2462 40.1097 28.4042 40.0857 28.5542C40.0207 28.9642 40.1777 29.1212 40.5877 29.0562C40.7377 29.0322 40.8957 29.0522 41.0497 29.0522C41.6897 29.0522 42.3297 29.0522 42.9697 29.0522C43.6097 29.0522 44.2497 29.0522 44.8897 29.0522C45.6097 29.0522 46.3297 29.0522 47.0497 29.0522C47.0497 29.2062 47.0697 29.3632 47.0457 29.5142C46.9807 29.9242 47.1377 30.0812 47.5477 30.0162C47.6977 29.9922 47.8557 30.0122 48.0097 30.0122C48.4097 30.0122 48.8097 30.0122 49.2097 30.0122C50.1697 30.0122 51.1297 30.0122 52.0897 30.0122C52.0897 30.3322 52.0897 30.6522 52.0897 30.9722C51.6897 30.9722 51.2897 30.9722 50.8897 30.9722C50.5697 30.9722 50.2497 30.9722 49.9297 30.9722C49.6097 30.9722 49.2897 30.9722 48.9697 30.9722ZM68.8897 30.9722C68.5697 30.9722 68.2497 30.9722 67.9297 30.9722C67.7757 30.9722 67.6187 30.9922 67.4677 30.9682C67.0577 30.9032 66.9007 31.0602 66.9657 31.4702C66.9897 31.6202 66.9697 31.7782 66.9697 31.9322C66.8157 31.9322 66.6587 31.9522 66.5077 31.9282C66.0977 31.8632 65.9407 32.0202 66.0057 32.4302C66.0297 32.5802 66.0097 32.7382 66.0097 32.8922C65.0557 32.9072 65.0557 32.9072 65.0497 33.8602C65.0497 33.9372 65.0497 34.0152 65.0497 34.0922C64.7297 34.0922 64.4097 34.0922 64.0897 34.0922C64.0627 34.0252 64.0437 33.9042 64.0067 33.8982C63.1157 33.7512 62.9227 33.9132 62.8907 34.8162C62.8877 34.8942 62.8907 34.9732 62.8907 35.0522C62.5707 35.0522 62.2507 35.0522 61.9307 35.0522C61.6107 35.0522 61.2907 35.0522 60.9707 35.0522C58.6507 35.0522 56.3307 35.0522 54.0107 35.0522C53.6907 35.0522 53.3707 35.0522 53.0507 35.0522C52.4107 35.0522 51.7707 35.0522 51.1307 35.0522C50.7307 35.0522 50.3307 35.0522 49.9307 35.0522C49.9307 34.7322 49.9307 34.4122 49.9307 34.0922C50.0077 34.0922 50.0857 34.0922 50.1627 34.0922C51.1157 34.0862 51.1157 34.0862 51.1307 33.1322C52.0847 33.1172 52.0847 33.1172 52.0907 32.1642C52.0907 32.0872 52.0907 32.0092 52.0907 31.9322C52.1687 31.9322 52.2467 31.9342 52.3247 31.9322C52.9647 31.9162 53.0017 31.9182 53.0367 31.2992C53.0587 30.9222 53.2687 30.9492 53.4947 30.9772C53.8887 31.0262 54.1017 30.9292 54.0147 30.4792C53.9857 30.3282 54.0097 30.1682 54.0097 30.0122C54.3297 30.0122 54.6497 30.0122 54.9697 30.0122C59.6097 30.0122 64.2497 30.0122 68.8897 30.0122C68.8897 30.3322 68.8897 30.6522 68.8897 30.9722ZM72.9697 25.9322C72.0157 25.9472 72.0157 25.9472 72.0097 26.9002C72.0097 26.9772 72.0097 27.0552 72.0097 27.1322C72.0097 27.4522 72.0097 27.7722 72.0097 28.0922C71.6897 28.0922 71.3697 28.0922 71.0497 28.0922C66.7947 28.0922 62.5407 28.0922 58.2867 28.0922C58.0087 28.0922 57.7267 28.1182 57.4527 28.0852C57.1177 28.0462 56.8837 27.8712 56.8897 27.4882C56.8927 27.2892 56.8907 27.0902 56.8907 26.8922C56.9707 26.7982 57.1027 26.7122 57.1197 26.6082C57.1557 26.3882 57.1307 26.1582 57.1307 25.9322C57.2847 25.9322 57.4417 25.9122 57.5927 25.9362C58.0027 26.0012 58.1597 25.8442 58.0947 25.4342C58.0707 25.2842 58.0907 25.1262 58.0907 24.9722C58.2447 24.9722 58.4017 24.9522 58.5527 24.9762C58.9627 25.0412 59.1197 24.8842 59.0547 24.4742C59.0307 24.3242 59.0507 24.1662 59.0507 24.0122C59.0507 23.6922 59.0507 23.3722 59.0507 23.0522C59.2047 23.0522 59.3617 23.0322 59.5127 23.0562C59.9227 23.1212 60.0797 22.9642 60.0147 22.5542C59.9907 22.4042 60.0107 22.2462 60.0107 22.0922C60.0107 21.7722 60.0107 21.4522 60.0107 21.1322C60.9647 21.1172 60.9647 21.1172 60.9707 20.1642C60.9707 20.0872 60.9707 20.0092 60.9707 19.9322C60.9707 19.6122 60.9707 19.2922 60.9707 18.9722C61.1247 18.9722 61.2817 18.9522 61.4327 18.9762C61.8427 19.0412 61.9997 18.8842 61.9347 18.4742C61.9107 18.3242 61.9307 18.1662 61.9307 18.0122C61.9307 17.6922 61.9307 17.3722 61.9307 17.0522C62.0107 17.0522 62.0907 17.0522 62.1707 17.0522C62.9357 17.0272 62.9487 17.0152 63.1307 16.0922C63.2847 16.0922 63.4417 16.0722 63.5927 16.0962C64.0027 16.1612 64.1597 16.0042 64.0947 15.5942C64.0707 15.4442 64.0907 15.2862 64.0907 15.1322C64.0907 14.7322 64.0907 14.3322 64.0907 13.9322C64.2447 13.9322 64.4017 13.9122 64.5527 13.9362C64.9627 14.0012 65.1197 13.8442 65.0547 13.4342C65.0307 13.2842 65.0507 13.1262 65.0507 12.9722C65.2047 12.9722 65.3617 12.9522 65.5127 12.9762C65.9227 13.0412 66.0797 12.8842 66.0147 12.4742C65.9907 12.3242 66.0107 12.1662 66.0107 12.0122C66.0107 11.6922 66.0107 11.3722 66.0107 11.0522C66.1647 11.0522 66.3217 11.0322 66.4727 11.0562C66.8827 11.1212 67.0397 10.9642 66.9747 10.5542C66.9507 10.4042 66.9707 10.2462 66.9707 10.0922C67.2907 10.0922 67.6107 10.0922 67.9307 10.0922C67.9307 10.2462 67.9507 10.4042 67.9267 10.5542C67.8617 10.9642 68.0187 11.1212 68.4287 11.0562C68.5787 11.0322 68.7367 11.0522 68.8907 11.0522C68.9057 12.0062 68.9057 12.0062 69.8587 12.0122C69.9357 12.0122 70.0137 12.0122 70.0907 12.0122C70.0907 12.1662 70.1107 12.3232 70.0867 12.4742C70.0217 12.8842 70.1787 13.0412 70.5887 12.9762C70.7387 12.9522 70.8967 12.9722 71.0507 12.9722C71.0507 13.2922 71.0507 13.6122 71.0507 13.9322C71.0507 14.0092 71.0507 14.0872 71.0507 14.1642C71.0567 15.1172 71.0567 15.1172 72.0107 15.1322C72.0107 15.4522 72.0107 15.7722 72.0107 16.0922C72.0107 16.2462 72.0307 16.4042 72.0067 16.5542C71.9417 16.9642 72.0987 17.1212 72.5087 17.0562C72.6587 17.0322 72.8167 17.0522 72.9707 17.0522C72.9697 20.0122 72.9697 22.9722 72.9697 25.9322Z" fill="#96D2D2"/>
</svg>
