<?xml version="1.0" encoding="utf-8"?>
<!-- Generator: Adobe Illustrator 24.1.2, SVG Export Plug-In . SVG Version: 6.00 Build 0)  -->
<svg version="1.1" id="Layer_1" xmlns="http://www.w3.org/2000/svg" xmlns:xlink="http://www.w3.org/1999/xlink" x="0px" y="0px"
	 viewBox="0 0 50 50" style="enable-background:new 0 0 50 50;" xml:space="preserve">
<style type="text/css">
	.st0{fill:#8F8F8F;}
	.st1{fill:#38383A;}
	.st2{fill-rule:evenodd;clip-rule:evenodd;fill:#FFFFFF;filter:url(#Adobe_OpacityMaskFilter);}
	.st3{mask:url(#mask0_2_);}
	.st4{fill-rule:evenodd;clip-rule:evenodd;fill:#8F8F8F;}
</style>
<defs>
	<filter id="Adobe_OpacityMaskFilter" filterUnits="userSpaceOnUse" x="0.3" y="0.4" width="49.4" height="49.1">
		<feColorMatrix  type="matrix" values="1 0 0 0 0  0 1 0 0 0  0 0 1 0 0  0 0 0 1 0"/>
	</filter>
</defs>
<mask maskUnits="userSpaceOnUse" x="0.3" y="0.4" width="49.4" height="49.1" id="mask0_2_">
	<path class="st2" d="M35.3,49.3c0.8,0.3,1.7,0.3,2.4-0.1L48,44.4c1.1-0.5,1.7-1.6,1.7-2.8V8.4c0-1.2-0.7-2.3-1.7-2.8L37.8,0.7
		c-1-0.5-2.2-0.4-3.1,0.3c-0.1,0.1-0.3,0.2-0.4,0.3L14.8,19.1l-8.5-6.4c-0.8-0.6-1.9-0.5-2.6,0.1L1,15.3c-0.9,0.8-0.9,2.2,0,3
		L8.4,25L1,31.7c-0.9,0.8-0.9,2.2,0,3l2.7,2.5c0.7,0.7,1.8,0.7,2.6,0.1l8.5-6.4l19.5,17.8C34.6,49,35,49.2,35.3,49.3z M37.4,13.8
		L22.6,25l14.8,11.2V13.8z"/>
</mask>
<g class="st3">
	<path class="st0" d="M48,5.6L37.8,0.7c-1.2-0.6-2.6-0.3-3.5,0.6L1,31.7c-0.9,0.8-0.9,2.2,0,3l2.7,2.5c0.7,0.7,1.8,0.7,2.6,0.1
		L46.4,6.9c1.3-1,3.3-0.1,3.3,1.6V8.4C49.7,7.2,49,6.2,48,5.6z"/>
	<g>
		<path class="st0" d="M48,44.4l-10.2,4.9c-1.2,0.6-2.6,0.3-3.5-0.6L1,18.3c-0.9-0.8-0.9-2.2,0-3l2.7-2.5c0.7-0.7,1.8-0.7,2.6-0.1
			l40.1,30.4c1.3,1,3.3,0.1,3.3-1.6v0.1C49.7,42.8,49,43.8,48,44.4z"/>
	</g>
	<g>
		<path class="st0" d="M37.8,49.3c-1.2,0.6-2.6,0.3-3.5-0.6c1.1,1.1,3.1,0.3,3.1-1.3V2.6c0-1.6-1.9-2.4-3.1-1.3
			c0.9-0.9,2.3-1.2,3.5-0.6L48,5.6c1.1,0.5,1.7,1.6,1.7,2.8v33.2c0,1.2-0.7,2.3-1.7,2.8L37.8,49.3z"/>
	</g>
	<g>
		<path class="st4" d="M35.3,49.3c0.8,0.3,1.7,0.3,2.4-0.1l10.2-4.9c1.1-0.5,1.7-1.6,1.7-2.8V8.4c0-1.2-0.7-2.3-1.7-2.8L37.8,0.7
			c-1-0.5-2.2-0.4-3.1,0.3c-0.1,0.1-0.3,0.2-0.4,0.3L14.8,19.1l-8.5-6.4c-0.8-0.6-1.9-0.5-2.6,0.1L1,15.3c-0.9,0.8-0.9,2.2,0,3
			L8.3,25L1,31.7c-0.9,0.8-0.9,2.2,0,3l2.7,2.5c0.7,0.7,1.8,0.7,2.6,0.1l8.5-6.4l19.5,17.8C34.6,49,34.9,49.2,35.3,49.3z M37.3,13.8
			L22.6,25l14.8,11.2V13.8z"/>
	</g>
</g>
</svg>
