<?xml version="1.0" encoding="utf-8"?>
<!-- Generator: Adobe Illustrator 24.1.2, SVG Export Plug-In . SVG Version: 6.00 Build 0)  -->
<svg version="1.1" id="Layer_1" xmlns="http://www.w3.org/2000/svg" xmlns:xlink="http://www.w3.org/1999/xlink" x="0px" y="0px"
	 viewBox="0 0 50 50" style="enable-background:new 0 0 50 50;" xml:space="preserve">
<style type="text/css">
	.st0{fill:#8F8F8F;}
	.st1{fill:#38383A;}
</style>
<g>
	<path id="path50" class="st0" d="M45.6,38.2L25.8,49.4v-8.7l12.3-6.8L45.6,38.2z M47,37V13.6l-7.2,4.2v15.1L47,37z M4.3,38.2
		l19.8,11.2v-8.7l-12.3-6.8L4.3,38.2z M2.9,37V13.6l7.2,4.2v15.1L2.9,37z M3.8,12.1L24.1,0.6V9l-13,7.2L11,16.2L3.8,12.1z
		 M46.2,12.1L25.8,0.6V9l13,7.2l0.1,0.1L46.2,12.1z"/>
	<path id="path52" class="st0" d="M24.1,38.7L11.9,32V18.8l12.2,7V38.7z M25.8,38.7L38,32V18.8l-12.2,7L25.8,38.7z M12.7,17.2
		L25,10.5l12.2,6.7L25,24.3L12.7,17.2z"/>
</g>
</svg>
