<svg width="25" height="25" viewBox="0 0 25 25" fill="none" xmlns="http://www.w3.org/2000/svg">
<path d="M0 12.975C0.0999001 12.95 0.174825 12.95 0.274725 12.95C1.5984 12.95 2.8971 12.95 4.22078 12.95C4.2957 12.95 4.37063 12.975 4.47053 12.975C4.52048 13.575 4.54545 14.15 4.62038 14.75C4.72028 15.475 4.82018 16.2 4.94505 16.95C4.97003 17.125 4.94505 17.225 4.7952 17.35C4.22078 17.775 3.97103 18.325 4.07093 19.05C4.07093 19.125 4.04595 19.25 3.996 19.3C3.52148 19.575 3.07193 19.825 2.57243 20.1C1.92308 19.275 1.42358 18.35 1.02398 17.4C0.4995 16.125 0.174825 14.8 0.0749251 13.425C0.0749251 13.35 0.04995 13.3 0.024975 13.225C0 13.1 0 13.025 0 12.975Z" fill="#C4C4C4"/>
<path d="M0 11.825C0.04995 11.5 0.0749251 11.2 0.124875 10.875C0.3996 8.72505 1.17383 6.80005 2.44755 5.05005C2.47253 5.00005 2.4975 4.97505 2.54745 4.92505C3.02198 5.20005 3.4965 5.45005 3.97103 5.70005C4.02098 5.72505 4.07093 5.85005 4.04595 5.92505C3.94605 6.67505 4.22078 7.25005 4.82018 7.70005C4.8951 7.75005 4.94505 7.87505 4.94505 7.95005C4.77023 9.27505 4.57043 10.625 4.3956 11.95C4.42058 11.95 4.44555 11.975 4.47053 11.975C4.3956 11.975 4.32068 12 4.24575 12C2.8971 12 1.57343 12 0.224775 12C0.14985 12 0.0749251 11.975 0 11.975C0 11.95 0 11.9 0 11.825Z" fill="#C4C4C4"/>
<path d="M25 13.275C24.95 13.575 24.9251 13.875 24.8751 14.2C24.5754 16.35 23.7762 18.3 22.4775 20.05C21.978 19.775 21.5035 19.525 21.0289 19.225C20.979 19.2 20.954 19.1 20.979 19.025C21.0789 18.3 20.8291 17.725 20.2547 17.3C20.1049 17.2 20.0799 17.1 20.1049 16.925C20.3546 15.65 20.5294 14.375 20.5294 13.1C20.5294 13.05 20.5544 13.025 20.5544 12.975C20.6293 12.975 20.7043 12.95 20.7542 12.95C22.1029 12.95 23.4765 12.95 24.8252 12.95C24.8751 12.95 24.95 12.975 25 12.975C25 13.075 25 13.175 25 13.275Z" fill="#C4C4C4"/>
<path d="M25.0001 12C24.9251 12 24.8752 12.025 24.8003 12.025C23.4516 12.025 22.103 12.025 20.7543 12.025C20.6794 12.025 20.6294 12 20.5295 12C20.5046 11.625 20.5295 11.225 20.4796 10.85C20.3547 9.9 20.2298 8.95 20.08 8C20.055 7.85 20.08 7.75 20.2049 7.65C20.8043 7.225 21.054 6.65 20.9541 5.9C20.9541 5.825 20.9791 5.725 21.054 5.7C21.5285 5.425 21.9781 5.175 22.5275 4.875C22.9271 5.525 23.3517 6.175 23.6764 6.85C24.4007 8.3 24.8502 9.825 24.9501 11.45C24.9501 11.525 24.9751 11.625 25.0001 11.7C25.0001 11.85 25.0001 11.925 25.0001 12Z" fill="#C4C4C4"/>
<path d="M12.937 24.975C12.937 22.775 12.937 20.575 12.937 18.3C13.5864 18.35 14.2107 18.375 14.8351 18.45C15.6343 18.55 16.4085 18.725 17.1828 18.85C17.2577 18.875 17.4075 18.925 17.4075 19C17.5074 19.475 17.7322 19.85 18.0819 20.175C17.3076 21.875 16.3586 23.4 14.7102 24.35C14.2357 24.625 13.6613 24.775 13.1368 24.975C13.1118 24.975 13.0369 24.975 12.937 24.975Z" fill="#C4C4C4"/>
<path d="M11.8132 24.9751C11.1389 24.8001 10.5145 24.5751 9.9401 24.1751C8.76627 23.3501 7.94209 22.2501 7.29274 21.0001C7.29274 20.9751 7.26777 20.9501 7.26777 20.9501C6.94309 20.5251 6.84319 20.1001 7.34269 19.7001C7.41762 19.6251 7.49254 19.5001 7.49254 19.3751C7.51752 18.9751 7.76727 18.8751 8.11692 18.8001C9.41562 18.5251 10.7143 18.3751 12.063 18.3501C12.063 20.5751 12.063 22.8001 12.063 25.0001C11.9631 24.9751 11.8881 24.9751 11.8132 24.9751Z" fill="#C4C4C4"/>
<path d="M12.9619 17.4C12.9619 16.35 12.9619 15.35 12.9619 14.325C12.9619 14.275 13.0368 14.175 13.1118 14.15C13.6113 13.95 13.9609 13.6 14.1857 13.075C14.2107 13 14.3106 12.925 14.3855 12.925C16.1088 12.925 17.832 12.925 19.5553 12.925C19.5553 12.925 19.5803 12.925 19.6302 12.975C19.6302 13.225 19.6302 13.5 19.5803 13.775C19.4554 14.75 19.3305 15.725 19.2057 16.675C19.1807 16.875 19.1058 16.95 18.881 16.975C18.3565 17.05 17.9569 17.35 17.6572 17.8C17.6073 17.875 17.4824 17.975 17.4075 17.95C15.9589 17.65 14.4854 17.475 12.9619 17.4Z" fill="#C4C4C4"/>
<path d="M19.6302 12.0249C19.5054 12.0249 19.4055 12.0499 19.3305 12.0499C17.7321 12.0499 16.1088 12.0499 14.5104 12.0499C14.3355 12.0499 14.2107 12.0249 14.1357 11.8249C13.9609 11.3499 13.6113 11.0499 13.1367 10.8499C13.0618 10.8249 12.9619 10.6999 12.9619 10.6499C12.9619 9.64992 12.9619 8.67492 12.9619 7.67492C12.9619 7.64992 12.9869 7.64992 12.9869 7.59992C13.4115 7.57492 13.836 7.57492 14.2606 7.52492C15.2846 7.37492 16.2836 7.22492 17.3076 7.04992C17.4824 7.02492 17.5823 7.02492 17.7072 7.19992C18.0069 7.67492 18.4314 7.94992 18.9809 8.02492C19.0558 8.02492 19.1557 8.12492 19.1807 8.17492C19.4554 9.42492 19.5803 10.6999 19.6302 12.0249Z" fill="#C4C4C4"/>
<path d="M12.063 17.375C11.3138 17.45 10.6145 17.475 9.91518 17.575C9.16593 17.675 8.44166 17.825 7.71738 17.95C7.56753 17.975 7.44265 17.975 7.34275 17.825C7.06803 17.35 6.61848 17.075 6.06903 16.975C5.9941 16.95 5.86923 16.875 5.84425 16.8C5.6944 15.55 5.54455 14.3 5.41968 13.05C5.41968 13.025 5.44465 13 5.44465 12.925C5.54455 12.925 5.64445 12.925 5.74435 12.925C7.34275 12.925 8.94116 12.925 10.5396 12.925C10.7394 12.925 10.8393 12.975 10.9142 13.175C11.089 13.65 11.4387 13.95 11.8882 14.15C11.9631 14.175 12.088 14.275 12.088 14.35C12.063 15.35 12.063 16.35 12.063 17.375Z" fill="#C4C4C4"/>
<path d="M12.0629 7.57491C12.0629 8.24991 12.0629 8.87491 12.0629 9.49991C12.0629 9.84991 12.0629 10.1999 12.0629 10.5499C12.0629 10.6999 12.013 10.7999 11.8631 10.8499C11.3886 11.0249 11.0639 11.3499 10.8641 11.8249C10.8142 11.9749 10.7392 12.0499 10.5644 12.0499C8.89108 12.0499 7.21775 12.0499 5.5694 12.0499C5.51945 12.0499 5.4695 12.0499 5.41955 12.0249C5.41955 11.6999 5.39457 11.3499 5.41955 11.0499C5.51945 10.1249 5.6693 9.19991 5.79417 8.24991C5.81915 8.07491 5.8691 8.02491 6.04392 7.99991C6.59337 7.92491 6.99297 7.64991 7.31765 7.17491C7.3676 7.09991 7.51745 6.99991 7.59237 7.02491C9.04093 7.32491 10.5145 7.52491 12.0629 7.57491Z" fill="#C4C4C4"/>
<path d="M12.9619 0.0249023C13.836 0.0999023 14.5853 0.449902 15.2596 0.949902C16.5583 1.9249 17.4075 3.2249 18.0568 4.6999C18.0818 4.7499 18.0568 4.8999 18.0069 4.9499C17.7321 5.2249 17.5573 5.5499 17.4574 5.9249C17.4324 5.9999 17.3575 6.0999 17.2826 6.1249C15.909 6.4499 14.4854 6.6249 13.0618 6.6499C13.0368 6.6499 13.0119 6.6249 12.9619 6.6249C12.9619 4.4249 12.9619 2.2249 12.9619 0.0249023Z" fill="#C4C4C4"/>
<path d="M12.038 6.675C10.6644 6.625 9.36567 6.475 8.06697 6.2C7.74229 6.125 7.56747 6 7.49254 5.65C7.41762 5.4 7.19284 5.175 7.04299 4.925C6.99304 4.85 6.94309 4.75 6.96807 4.675C7.66737 3.15 8.5415 1.75 9.99005 0.775C10.6144 0.375 11.2638 0.1 12.038 0C12.038 2.225 12.038 4.425 12.038 6.675Z" fill="#C4C4C4"/>
<path d="M3.09692 4.25005C4.67035 2.47505 6.5185 1.27505 8.79123 0.550049C8.44158 0.925049 8.1169 1.25005 7.84218 1.57505C7.14288 2.37505 6.59343 3.27505 6.16885 4.25005C6.09393 4.40005 6.04398 4.45005 5.86915 4.45005C5.4196 4.45005 5.04498 4.60005 4.69533 4.87505C4.6204 4.92505 4.49553 4.97505 4.4206 4.92505C3.97105 4.72505 3.57145 4.50005 3.09692 4.25005Z" fill="#C4C4C4"/>
<path d="M8.74128 24.3999C6.54348 23.7249 4.67035 22.4999 3.09692 20.7499C3.54647 20.4999 3.94607 20.2749 4.37065 20.0499C4.44558 20.0249 4.57045 20.0499 4.6204 20.0749C4.99503 20.3749 5.4196 20.5249 5.89413 20.5249C5.96905 20.5249 6.06895 20.5749 6.09393 20.6499C6.7183 22.0749 7.6174 23.2999 8.74128 24.3999Z" fill="#C4C4C4"/>
<path d="M16.2588 0.550049C18.4816 1.25005 20.3297 2.47505 21.9031 4.22505C21.4286 4.47505 21.004 4.72505 20.5795 4.95005C20.5295 4.97505 20.4296 4.92505 20.3797 4.90005C20.03 4.57505 19.6054 4.42505 19.1059 4.45005C19.031 4.45005 18.9061 4.37505 18.8812 4.32505C18.2568 2.92505 17.3827 1.70005 16.2588 0.650049C16.2838 0.625049 16.2838 0.600049 16.2588 0.550049Z" fill="#C4C4C4"/>
<path d="M16.2087 24.45C16.5334 24.1 16.8081 23.825 17.0579 23.55C17.8071 22.7 18.4065 21.775 18.8561 20.725C18.931 20.575 19.0059 20.5 19.1808 20.525C19.6053 20.55 20.0049 20.4 20.3296 20.125C20.4045 20.075 20.5794 20.05 20.6543 20.075C21.0539 20.275 21.4535 20.5 21.8781 20.75C20.3546 22.5 18.4815 23.7 16.2087 24.45Z" fill="#C4C4C4"/>
<path d="M13.3865 12.4751C13.3865 12.9751 12.9869 13.3751 12.4874 13.3751C11.9879 13.3751 11.6133 12.9751 11.6133 12.4751C11.6133 12.0001 12.0129 11.6001 12.4874 11.6001C12.9869 11.6001 13.3865 12.0001 13.3865 12.4751Z" fill="#C4C4C4"/>
<path d="M20.0799 6.2251C20.0799 6.7251 19.6803 7.1251 19.1808 7.1251C18.7062 7.1251 18.3066 6.7001 18.3066 6.2251C18.3066 5.7251 18.7062 5.3501 19.1808 5.3501C19.6803 5.3501 20.0799 5.7501 20.0799 6.2251Z" fill="#C4C4C4"/>
<path d="M20.0799 18.7501C20.0799 19.2501 19.6803 19.6501 19.1808 19.6251C18.7062 19.6251 18.3066 19.2251 18.3066 18.7501C18.3066 18.2501 18.6813 17.8501 19.1808 17.8501C19.6803 17.8501 20.0799 18.2501 20.0799 18.7501Z" fill="#C4C4C4"/>
<path d="M6.69339 6.22495C6.69339 6.69995 6.26882 7.12495 5.81927 7.12495C5.34474 7.12495 4.94514 6.72495 4.92017 6.24995C4.92017 5.72495 5.29479 5.32495 5.81927 5.32495C6.26882 5.34995 6.69339 5.74995 6.69339 6.22495Z" fill="#C4C4C4"/>
<path d="M5.81927 19.6251C5.31977 19.6251 4.94514 19.2501 4.92017 18.7501C4.92017 18.2751 5.31977 17.8501 5.81927 17.8501C6.26882 17.8501 6.69339 18.2751 6.71837 18.7251C6.71837 19.2251 6.29379 19.6251 5.81927 19.6251Z" fill="#C4C4C4"/>
</svg>
